%TF.GenerationSoftware,KiCad,Pcbnew,7.0.7*%
%TF.CreationDate,2024-05-22T00:05:12+09:00*%
%TF.ProjectId,hmproto34,686d7072-6f74-46f3-9334-2e6b69636164,rev?*%
%TF.SameCoordinates,Original*%
%TF.FileFunction,Legend,Bot*%
%TF.FilePolarity,Positive*%
%FSLAX46Y46*%
G04 Gerber Fmt 4.6, Leading zero omitted, Abs format (unit mm)*
G04 Created by KiCad (PCBNEW 7.0.7) date 2024-05-22 00:05:12*
%MOMM*%
%LPD*%
G01*
G04 APERTURE LIST*
%ADD10C,0.150000*%
%ADD11C,0.600000*%
%ADD12C,0.125000*%
%ADD13C,0.300000*%
%ADD14C,0.500000*%
%ADD15C,0.800000*%
%ADD16C,3.000000*%
%ADD17C,3.500000*%
%ADD18C,1.000000*%
%ADD19C,0.400000*%
G04 APERTURE END LIST*
D10*
X56625602Y-132109819D02*
X56625602Y-131443152D01*
X56625602Y-131633628D02*
X56577983Y-131538390D01*
X56577983Y-131538390D02*
X56530364Y-131490771D01*
X56530364Y-131490771D02*
X56435126Y-131443152D01*
X56435126Y-131443152D02*
X56339888Y-131443152D01*
X55625602Y-132062200D02*
X55720840Y-132109819D01*
X55720840Y-132109819D02*
X55911316Y-132109819D01*
X55911316Y-132109819D02*
X56006554Y-132062200D01*
X56006554Y-132062200D02*
X56054173Y-131966961D01*
X56054173Y-131966961D02*
X56054173Y-131586009D01*
X56054173Y-131586009D02*
X56006554Y-131490771D01*
X56006554Y-131490771D02*
X55911316Y-131443152D01*
X55911316Y-131443152D02*
X55720840Y-131443152D01*
X55720840Y-131443152D02*
X55625602Y-131490771D01*
X55625602Y-131490771D02*
X55577983Y-131586009D01*
X55577983Y-131586009D02*
X55577983Y-131681247D01*
X55577983Y-131681247D02*
X56054173Y-131776485D01*
X55244649Y-131443152D02*
X55006554Y-132109819D01*
X55006554Y-132109819D02*
X54768459Y-131443152D01*
X53101792Y-132109819D02*
X53673220Y-132109819D01*
X53387506Y-132109819D02*
X53387506Y-131109819D01*
X53387506Y-131109819D02*
X53482744Y-131252676D01*
X53482744Y-131252676D02*
X53577982Y-131347914D01*
X53577982Y-131347914D02*
X53673220Y-131395533D01*
X72805602Y-130269819D02*
X72805602Y-129269819D01*
X72805602Y-129269819D02*
X72424650Y-129269819D01*
X72424650Y-129269819D02*
X72329412Y-129317438D01*
X72329412Y-129317438D02*
X72281793Y-129365057D01*
X72281793Y-129365057D02*
X72234174Y-129460295D01*
X72234174Y-129460295D02*
X72234174Y-129603152D01*
X72234174Y-129603152D02*
X72281793Y-129698390D01*
X72281793Y-129698390D02*
X72329412Y-129746009D01*
X72329412Y-129746009D02*
X72424650Y-129793628D01*
X72424650Y-129793628D02*
X72805602Y-129793628D01*
X71234174Y-130174580D02*
X71281793Y-130222200D01*
X71281793Y-130222200D02*
X71424650Y-130269819D01*
X71424650Y-130269819D02*
X71519888Y-130269819D01*
X71519888Y-130269819D02*
X71662745Y-130222200D01*
X71662745Y-130222200D02*
X71757983Y-130126961D01*
X71757983Y-130126961D02*
X71805602Y-130031723D01*
X71805602Y-130031723D02*
X71853221Y-129841247D01*
X71853221Y-129841247D02*
X71853221Y-129698390D01*
X71853221Y-129698390D02*
X71805602Y-129507914D01*
X71805602Y-129507914D02*
X71757983Y-129412676D01*
X71757983Y-129412676D02*
X71662745Y-129317438D01*
X71662745Y-129317438D02*
X71519888Y-129269819D01*
X71519888Y-129269819D02*
X71424650Y-129269819D01*
X71424650Y-129269819D02*
X71281793Y-129317438D01*
X71281793Y-129317438D02*
X71234174Y-129365057D01*
X70472269Y-129746009D02*
X70329412Y-129793628D01*
X70329412Y-129793628D02*
X70281793Y-129841247D01*
X70281793Y-129841247D02*
X70234174Y-129936485D01*
X70234174Y-129936485D02*
X70234174Y-130079342D01*
X70234174Y-130079342D02*
X70281793Y-130174580D01*
X70281793Y-130174580D02*
X70329412Y-130222200D01*
X70329412Y-130222200D02*
X70424650Y-130269819D01*
X70424650Y-130269819D02*
X70805602Y-130269819D01*
X70805602Y-130269819D02*
X70805602Y-129269819D01*
X70805602Y-129269819D02*
X70472269Y-129269819D01*
X70472269Y-129269819D02*
X70377031Y-129317438D01*
X70377031Y-129317438D02*
X70329412Y-129365057D01*
X70329412Y-129365057D02*
X70281793Y-129460295D01*
X70281793Y-129460295D02*
X70281793Y-129555533D01*
X70281793Y-129555533D02*
X70329412Y-129650771D01*
X70329412Y-129650771D02*
X70377031Y-129698390D01*
X70377031Y-129698390D02*
X70472269Y-129746009D01*
X70472269Y-129746009D02*
X70805602Y-129746009D01*
X68615126Y-130269819D02*
X68615126Y-129269819D01*
X68615126Y-130222200D02*
X68710364Y-130269819D01*
X68710364Y-130269819D02*
X68900840Y-130269819D01*
X68900840Y-130269819D02*
X68996078Y-130222200D01*
X68996078Y-130222200D02*
X69043697Y-130174580D01*
X69043697Y-130174580D02*
X69091316Y-130079342D01*
X69091316Y-130079342D02*
X69091316Y-129793628D01*
X69091316Y-129793628D02*
X69043697Y-129698390D01*
X69043697Y-129698390D02*
X68996078Y-129650771D01*
X68996078Y-129650771D02*
X68900840Y-129603152D01*
X68900840Y-129603152D02*
X68710364Y-129603152D01*
X68710364Y-129603152D02*
X68615126Y-129650771D01*
X67757983Y-130222200D02*
X67853221Y-130269819D01*
X67853221Y-130269819D02*
X68043697Y-130269819D01*
X68043697Y-130269819D02*
X68138935Y-130222200D01*
X68138935Y-130222200D02*
X68186554Y-130126961D01*
X68186554Y-130126961D02*
X68186554Y-129746009D01*
X68186554Y-129746009D02*
X68138935Y-129650771D01*
X68138935Y-129650771D02*
X68043697Y-129603152D01*
X68043697Y-129603152D02*
X67853221Y-129603152D01*
X67853221Y-129603152D02*
X67757983Y-129650771D01*
X67757983Y-129650771D02*
X67710364Y-129746009D01*
X67710364Y-129746009D02*
X67710364Y-129841247D01*
X67710364Y-129841247D02*
X68186554Y-129936485D01*
X67329411Y-130222200D02*
X67234173Y-130269819D01*
X67234173Y-130269819D02*
X67043697Y-130269819D01*
X67043697Y-130269819D02*
X66948459Y-130222200D01*
X66948459Y-130222200D02*
X66900840Y-130126961D01*
X66900840Y-130126961D02*
X66900840Y-130079342D01*
X66900840Y-130079342D02*
X66948459Y-129984104D01*
X66948459Y-129984104D02*
X67043697Y-129936485D01*
X67043697Y-129936485D02*
X67186554Y-129936485D01*
X67186554Y-129936485D02*
X67281792Y-129888866D01*
X67281792Y-129888866D02*
X67329411Y-129793628D01*
X67329411Y-129793628D02*
X67329411Y-129746009D01*
X67329411Y-129746009D02*
X67281792Y-129650771D01*
X67281792Y-129650771D02*
X67186554Y-129603152D01*
X67186554Y-129603152D02*
X67043697Y-129603152D01*
X67043697Y-129603152D02*
X66948459Y-129650771D01*
X66472268Y-130269819D02*
X66472268Y-129603152D01*
X66472268Y-129269819D02*
X66519887Y-129317438D01*
X66519887Y-129317438D02*
X66472268Y-129365057D01*
X66472268Y-129365057D02*
X66424649Y-129317438D01*
X66424649Y-129317438D02*
X66472268Y-129269819D01*
X66472268Y-129269819D02*
X66472268Y-129365057D01*
X65567507Y-129603152D02*
X65567507Y-130412676D01*
X65567507Y-130412676D02*
X65615126Y-130507914D01*
X65615126Y-130507914D02*
X65662745Y-130555533D01*
X65662745Y-130555533D02*
X65757983Y-130603152D01*
X65757983Y-130603152D02*
X65900840Y-130603152D01*
X65900840Y-130603152D02*
X65996078Y-130555533D01*
X65567507Y-130222200D02*
X65662745Y-130269819D01*
X65662745Y-130269819D02*
X65853221Y-130269819D01*
X65853221Y-130269819D02*
X65948459Y-130222200D01*
X65948459Y-130222200D02*
X65996078Y-130174580D01*
X65996078Y-130174580D02*
X66043697Y-130079342D01*
X66043697Y-130079342D02*
X66043697Y-129793628D01*
X66043697Y-129793628D02*
X65996078Y-129698390D01*
X65996078Y-129698390D02*
X65948459Y-129650771D01*
X65948459Y-129650771D02*
X65853221Y-129603152D01*
X65853221Y-129603152D02*
X65662745Y-129603152D01*
X65662745Y-129603152D02*
X65567507Y-129650771D01*
X65091316Y-129603152D02*
X65091316Y-130269819D01*
X65091316Y-129698390D02*
X65043697Y-129650771D01*
X65043697Y-129650771D02*
X64948459Y-129603152D01*
X64948459Y-129603152D02*
X64805602Y-129603152D01*
X64805602Y-129603152D02*
X64710364Y-129650771D01*
X64710364Y-129650771D02*
X64662745Y-129746009D01*
X64662745Y-129746009D02*
X64662745Y-130269819D01*
X63805602Y-130222200D02*
X63900840Y-130269819D01*
X63900840Y-130269819D02*
X64091316Y-130269819D01*
X64091316Y-130269819D02*
X64186554Y-130222200D01*
X64186554Y-130222200D02*
X64234173Y-130126961D01*
X64234173Y-130126961D02*
X64234173Y-129746009D01*
X64234173Y-129746009D02*
X64186554Y-129650771D01*
X64186554Y-129650771D02*
X64091316Y-129603152D01*
X64091316Y-129603152D02*
X63900840Y-129603152D01*
X63900840Y-129603152D02*
X63805602Y-129650771D01*
X63805602Y-129650771D02*
X63757983Y-129746009D01*
X63757983Y-129746009D02*
X63757983Y-129841247D01*
X63757983Y-129841247D02*
X64234173Y-129936485D01*
X62900840Y-130269819D02*
X62900840Y-129269819D01*
X62900840Y-130222200D02*
X62996078Y-130269819D01*
X62996078Y-130269819D02*
X63186554Y-130269819D01*
X63186554Y-130269819D02*
X63281792Y-130222200D01*
X63281792Y-130222200D02*
X63329411Y-130174580D01*
X63329411Y-130174580D02*
X63377030Y-130079342D01*
X63377030Y-130079342D02*
X63377030Y-129793628D01*
X63377030Y-129793628D02*
X63329411Y-129698390D01*
X63329411Y-129698390D02*
X63281792Y-129650771D01*
X63281792Y-129650771D02*
X63186554Y-129603152D01*
X63186554Y-129603152D02*
X62996078Y-129603152D01*
X62996078Y-129603152D02*
X62900840Y-129650771D01*
X61662744Y-130269819D02*
X61662744Y-129269819D01*
X61662744Y-129650771D02*
X61567506Y-129603152D01*
X61567506Y-129603152D02*
X61377030Y-129603152D01*
X61377030Y-129603152D02*
X61281792Y-129650771D01*
X61281792Y-129650771D02*
X61234173Y-129698390D01*
X61234173Y-129698390D02*
X61186554Y-129793628D01*
X61186554Y-129793628D02*
X61186554Y-130079342D01*
X61186554Y-130079342D02*
X61234173Y-130174580D01*
X61234173Y-130174580D02*
X61281792Y-130222200D01*
X61281792Y-130222200D02*
X61377030Y-130269819D01*
X61377030Y-130269819D02*
X61567506Y-130269819D01*
X61567506Y-130269819D02*
X61662744Y-130222200D01*
X60853220Y-129603152D02*
X60615125Y-130269819D01*
X60377030Y-129603152D02*
X60615125Y-130269819D01*
X60615125Y-130269819D02*
X60710363Y-130507914D01*
X60710363Y-130507914D02*
X60757982Y-130555533D01*
X60757982Y-130555533D02*
X60853220Y-130603152D01*
X59234172Y-130269819D02*
X59234172Y-129269819D01*
X58805601Y-130269819D02*
X58805601Y-129746009D01*
X58805601Y-129746009D02*
X58853220Y-129650771D01*
X58853220Y-129650771D02*
X58948458Y-129603152D01*
X58948458Y-129603152D02*
X59091315Y-129603152D01*
X59091315Y-129603152D02*
X59186553Y-129650771D01*
X59186553Y-129650771D02*
X59234172Y-129698390D01*
X58329410Y-130269819D02*
X58329410Y-129603152D01*
X58329410Y-129698390D02*
X58281791Y-129650771D01*
X58281791Y-129650771D02*
X58186553Y-129603152D01*
X58186553Y-129603152D02*
X58043696Y-129603152D01*
X58043696Y-129603152D02*
X57948458Y-129650771D01*
X57948458Y-129650771D02*
X57900839Y-129746009D01*
X57900839Y-129746009D02*
X57900839Y-130269819D01*
X57900839Y-129746009D02*
X57853220Y-129650771D01*
X57853220Y-129650771D02*
X57757982Y-129603152D01*
X57757982Y-129603152D02*
X57615125Y-129603152D01*
X57615125Y-129603152D02*
X57519886Y-129650771D01*
X57519886Y-129650771D02*
X57472267Y-129746009D01*
X57472267Y-129746009D02*
X57472267Y-130269819D01*
X56567506Y-130269819D02*
X56567506Y-129746009D01*
X56567506Y-129746009D02*
X56615125Y-129650771D01*
X56615125Y-129650771D02*
X56710363Y-129603152D01*
X56710363Y-129603152D02*
X56900839Y-129603152D01*
X56900839Y-129603152D02*
X56996077Y-129650771D01*
X56567506Y-130222200D02*
X56662744Y-130269819D01*
X56662744Y-130269819D02*
X56900839Y-130269819D01*
X56900839Y-130269819D02*
X56996077Y-130222200D01*
X56996077Y-130222200D02*
X57043696Y-130126961D01*
X57043696Y-130126961D02*
X57043696Y-130031723D01*
X57043696Y-130031723D02*
X56996077Y-129936485D01*
X56996077Y-129936485D02*
X56900839Y-129888866D01*
X56900839Y-129888866D02*
X56662744Y-129888866D01*
X56662744Y-129888866D02*
X56567506Y-129841247D01*
X56138934Y-130222200D02*
X56043696Y-130269819D01*
X56043696Y-130269819D02*
X55853220Y-130269819D01*
X55853220Y-130269819D02*
X55757982Y-130222200D01*
X55757982Y-130222200D02*
X55710363Y-130126961D01*
X55710363Y-130126961D02*
X55710363Y-130079342D01*
X55710363Y-130079342D02*
X55757982Y-129984104D01*
X55757982Y-129984104D02*
X55853220Y-129936485D01*
X55853220Y-129936485D02*
X55996077Y-129936485D01*
X55996077Y-129936485D02*
X56091315Y-129888866D01*
X56091315Y-129888866D02*
X56138934Y-129793628D01*
X56138934Y-129793628D02*
X56138934Y-129746009D01*
X56138934Y-129746009D02*
X56091315Y-129650771D01*
X56091315Y-129650771D02*
X55996077Y-129603152D01*
X55996077Y-129603152D02*
X55853220Y-129603152D01*
X55853220Y-129603152D02*
X55757982Y-129650771D01*
X54853220Y-130269819D02*
X54853220Y-129269819D01*
X54853220Y-130222200D02*
X54948458Y-130269819D01*
X54948458Y-130269819D02*
X55138934Y-130269819D01*
X55138934Y-130269819D02*
X55234172Y-130222200D01*
X55234172Y-130222200D02*
X55281791Y-130174580D01*
X55281791Y-130174580D02*
X55329410Y-130079342D01*
X55329410Y-130079342D02*
X55329410Y-129793628D01*
X55329410Y-129793628D02*
X55281791Y-129698390D01*
X55281791Y-129698390D02*
X55234172Y-129650771D01*
X55234172Y-129650771D02*
X55138934Y-129603152D01*
X55138934Y-129603152D02*
X54948458Y-129603152D01*
X54948458Y-129603152D02*
X54853220Y-129650771D01*
X53996077Y-130222200D02*
X54091315Y-130269819D01*
X54091315Y-130269819D02*
X54281791Y-130269819D01*
X54281791Y-130269819D02*
X54377029Y-130222200D01*
X54377029Y-130222200D02*
X54424648Y-130126961D01*
X54424648Y-130126961D02*
X54424648Y-129746009D01*
X54424648Y-129746009D02*
X54377029Y-129650771D01*
X54377029Y-129650771D02*
X54281791Y-129603152D01*
X54281791Y-129603152D02*
X54091315Y-129603152D01*
X54091315Y-129603152D02*
X53996077Y-129650771D01*
X53996077Y-129650771D02*
X53948458Y-129746009D01*
X53948458Y-129746009D02*
X53948458Y-129841247D01*
X53948458Y-129841247D02*
X54424648Y-129936485D01*
X53615124Y-129603152D02*
X53377029Y-130269819D01*
X53377029Y-130269819D02*
X53138934Y-129603152D01*
D11*
X97873360Y-132221657D02*
X97873360Y-129221657D01*
X96587646Y-132221657D02*
X96587646Y-130650228D01*
X96587646Y-130650228D02*
X96730503Y-130364514D01*
X96730503Y-130364514D02*
X97016217Y-130221657D01*
X97016217Y-130221657D02*
X97444788Y-130221657D01*
X97444788Y-130221657D02*
X97730503Y-130364514D01*
X97730503Y-130364514D02*
X97873360Y-130507371D01*
X95159074Y-132221657D02*
X95159074Y-130221657D01*
X95159074Y-130507371D02*
X95016217Y-130364514D01*
X95016217Y-130364514D02*
X94730502Y-130221657D01*
X94730502Y-130221657D02*
X94301931Y-130221657D01*
X94301931Y-130221657D02*
X94016217Y-130364514D01*
X94016217Y-130364514D02*
X93873360Y-130650228D01*
X93873360Y-130650228D02*
X93873360Y-132221657D01*
X93873360Y-130650228D02*
X93730502Y-130364514D01*
X93730502Y-130364514D02*
X93444788Y-130221657D01*
X93444788Y-130221657D02*
X93016217Y-130221657D01*
X93016217Y-130221657D02*
X92730502Y-130364514D01*
X92730502Y-130364514D02*
X92587645Y-130650228D01*
X92587645Y-130650228D02*
X92587645Y-132221657D01*
X91159074Y-130221657D02*
X91159074Y-133221657D01*
X91159074Y-130364514D02*
X90873360Y-130221657D01*
X90873360Y-130221657D02*
X90301931Y-130221657D01*
X90301931Y-130221657D02*
X90016217Y-130364514D01*
X90016217Y-130364514D02*
X89873360Y-130507371D01*
X89873360Y-130507371D02*
X89730502Y-130793085D01*
X89730502Y-130793085D02*
X89730502Y-131650228D01*
X89730502Y-131650228D02*
X89873360Y-131935942D01*
X89873360Y-131935942D02*
X90016217Y-132078800D01*
X90016217Y-132078800D02*
X90301931Y-132221657D01*
X90301931Y-132221657D02*
X90873360Y-132221657D01*
X90873360Y-132221657D02*
X91159074Y-132078800D01*
X88444788Y-132221657D02*
X88444788Y-130221657D01*
X88444788Y-130793085D02*
X88301931Y-130507371D01*
X88301931Y-130507371D02*
X88159074Y-130364514D01*
X88159074Y-130364514D02*
X87873359Y-130221657D01*
X87873359Y-130221657D02*
X87587645Y-130221657D01*
X86159073Y-132221657D02*
X86444788Y-132078800D01*
X86444788Y-132078800D02*
X86587645Y-131935942D01*
X86587645Y-131935942D02*
X86730502Y-131650228D01*
X86730502Y-131650228D02*
X86730502Y-130793085D01*
X86730502Y-130793085D02*
X86587645Y-130507371D01*
X86587645Y-130507371D02*
X86444788Y-130364514D01*
X86444788Y-130364514D02*
X86159073Y-130221657D01*
X86159073Y-130221657D02*
X85730502Y-130221657D01*
X85730502Y-130221657D02*
X85444788Y-130364514D01*
X85444788Y-130364514D02*
X85301931Y-130507371D01*
X85301931Y-130507371D02*
X85159073Y-130793085D01*
X85159073Y-130793085D02*
X85159073Y-131650228D01*
X85159073Y-131650228D02*
X85301931Y-131935942D01*
X85301931Y-131935942D02*
X85444788Y-132078800D01*
X85444788Y-132078800D02*
X85730502Y-132221657D01*
X85730502Y-132221657D02*
X86159073Y-132221657D01*
X84301930Y-130221657D02*
X83159073Y-130221657D01*
X83873359Y-129221657D02*
X83873359Y-131793085D01*
X83873359Y-131793085D02*
X83730502Y-132078800D01*
X83730502Y-132078800D02*
X83444787Y-132221657D01*
X83444787Y-132221657D02*
X83159073Y-132221657D01*
X81730501Y-132221657D02*
X82016216Y-132078800D01*
X82016216Y-132078800D02*
X82159073Y-131935942D01*
X82159073Y-131935942D02*
X82301930Y-131650228D01*
X82301930Y-131650228D02*
X82301930Y-130793085D01*
X82301930Y-130793085D02*
X82159073Y-130507371D01*
X82159073Y-130507371D02*
X82016216Y-130364514D01*
X82016216Y-130364514D02*
X81730501Y-130221657D01*
X81730501Y-130221657D02*
X81301930Y-130221657D01*
X81301930Y-130221657D02*
X81016216Y-130364514D01*
X81016216Y-130364514D02*
X80873359Y-130507371D01*
X80873359Y-130507371D02*
X80730501Y-130793085D01*
X80730501Y-130793085D02*
X80730501Y-131650228D01*
X80730501Y-131650228D02*
X80873359Y-131935942D01*
X80873359Y-131935942D02*
X81016216Y-132078800D01*
X81016216Y-132078800D02*
X81301930Y-132221657D01*
X81301930Y-132221657D02*
X81730501Y-132221657D01*
X79730501Y-129221657D02*
X77873358Y-129221657D01*
X77873358Y-129221657D02*
X78873358Y-130364514D01*
X78873358Y-130364514D02*
X78444787Y-130364514D01*
X78444787Y-130364514D02*
X78159073Y-130507371D01*
X78159073Y-130507371D02*
X78016215Y-130650228D01*
X78016215Y-130650228D02*
X77873358Y-130935942D01*
X77873358Y-130935942D02*
X77873358Y-131650228D01*
X77873358Y-131650228D02*
X78016215Y-131935942D01*
X78016215Y-131935942D02*
X78159073Y-132078800D01*
X78159073Y-132078800D02*
X78444787Y-132221657D01*
X78444787Y-132221657D02*
X79301930Y-132221657D01*
X79301930Y-132221657D02*
X79587644Y-132078800D01*
X79587644Y-132078800D02*
X79730501Y-131935942D01*
X75301930Y-130221657D02*
X75301930Y-132221657D01*
X76016215Y-129078800D02*
X76730501Y-131221657D01*
X76730501Y-131221657D02*
X74873358Y-131221657D01*
D10*
X120364819Y-32089618D02*
X119888628Y-31756285D01*
X120364819Y-31518190D02*
X119364819Y-31518190D01*
X119364819Y-31518190D02*
X119364819Y-31899142D01*
X119364819Y-31899142D02*
X119412438Y-31994380D01*
X119412438Y-31994380D02*
X119460057Y-32041999D01*
X119460057Y-32041999D02*
X119555295Y-32089618D01*
X119555295Y-32089618D02*
X119698152Y-32089618D01*
X119698152Y-32089618D02*
X119793390Y-32041999D01*
X119793390Y-32041999D02*
X119841009Y-31994380D01*
X119841009Y-31994380D02*
X119888628Y-31899142D01*
X119888628Y-31899142D02*
X119888628Y-31518190D01*
X119841009Y-32518190D02*
X119841009Y-32851523D01*
X120364819Y-32994380D02*
X120364819Y-32518190D01*
X120364819Y-32518190D02*
X119364819Y-32518190D01*
X119364819Y-32518190D02*
X119364819Y-32994380D01*
X120317200Y-33375333D02*
X120364819Y-33518190D01*
X120364819Y-33518190D02*
X120364819Y-33756285D01*
X120364819Y-33756285D02*
X120317200Y-33851523D01*
X120317200Y-33851523D02*
X120269580Y-33899142D01*
X120269580Y-33899142D02*
X120174342Y-33946761D01*
X120174342Y-33946761D02*
X120079104Y-33946761D01*
X120079104Y-33946761D02*
X119983866Y-33899142D01*
X119983866Y-33899142D02*
X119936247Y-33851523D01*
X119936247Y-33851523D02*
X119888628Y-33756285D01*
X119888628Y-33756285D02*
X119841009Y-33565809D01*
X119841009Y-33565809D02*
X119793390Y-33470571D01*
X119793390Y-33470571D02*
X119745771Y-33422952D01*
X119745771Y-33422952D02*
X119650533Y-33375333D01*
X119650533Y-33375333D02*
X119555295Y-33375333D01*
X119555295Y-33375333D02*
X119460057Y-33422952D01*
X119460057Y-33422952D02*
X119412438Y-33470571D01*
X119412438Y-33470571D02*
X119364819Y-33565809D01*
X119364819Y-33565809D02*
X119364819Y-33803904D01*
X119364819Y-33803904D02*
X119412438Y-33946761D01*
X119841009Y-34375333D02*
X119841009Y-34708666D01*
X120364819Y-34851523D02*
X120364819Y-34375333D01*
X120364819Y-34375333D02*
X119364819Y-34375333D01*
X119364819Y-34375333D02*
X119364819Y-34851523D01*
X119364819Y-35137238D02*
X119364819Y-35708666D01*
X120364819Y-35422952D02*
X119364819Y-35422952D01*
X130881319Y-31702595D02*
X130881319Y-32274023D01*
X131881319Y-31988309D02*
X130881319Y-31988309D01*
X131881319Y-33178785D02*
X131405128Y-32845452D01*
X131881319Y-32607357D02*
X130881319Y-32607357D01*
X130881319Y-32607357D02*
X130881319Y-32988309D01*
X130881319Y-32988309D02*
X130928938Y-33083547D01*
X130928938Y-33083547D02*
X130976557Y-33131166D01*
X130976557Y-33131166D02*
X131071795Y-33178785D01*
X131071795Y-33178785D02*
X131214652Y-33178785D01*
X131214652Y-33178785D02*
X131309890Y-33131166D01*
X131309890Y-33131166D02*
X131357509Y-33083547D01*
X131357509Y-33083547D02*
X131405128Y-32988309D01*
X131405128Y-32988309D02*
X131405128Y-32607357D01*
X131881319Y-34178785D02*
X131405128Y-33845452D01*
X131881319Y-33607357D02*
X130881319Y-33607357D01*
X130881319Y-33607357D02*
X130881319Y-33988309D01*
X130881319Y-33988309D02*
X130928938Y-34083547D01*
X130928938Y-34083547D02*
X130976557Y-34131166D01*
X130976557Y-34131166D02*
X131071795Y-34178785D01*
X131071795Y-34178785D02*
X131214652Y-34178785D01*
X131214652Y-34178785D02*
X131309890Y-34131166D01*
X131309890Y-34131166D02*
X131357509Y-34083547D01*
X131357509Y-34083547D02*
X131405128Y-33988309D01*
X131405128Y-33988309D02*
X131405128Y-33607357D01*
X131833700Y-34559738D02*
X131881319Y-34702595D01*
X131881319Y-34702595D02*
X131881319Y-34940690D01*
X131881319Y-34940690D02*
X131833700Y-35035928D01*
X131833700Y-35035928D02*
X131786080Y-35083547D01*
X131786080Y-35083547D02*
X131690842Y-35131166D01*
X131690842Y-35131166D02*
X131595604Y-35131166D01*
X131595604Y-35131166D02*
X131500366Y-35083547D01*
X131500366Y-35083547D02*
X131452747Y-35035928D01*
X131452747Y-35035928D02*
X131405128Y-34940690D01*
X131405128Y-34940690D02*
X131357509Y-34750214D01*
X131357509Y-34750214D02*
X131309890Y-34654976D01*
X131309890Y-34654976D02*
X131262271Y-34607357D01*
X131262271Y-34607357D02*
X131167033Y-34559738D01*
X131167033Y-34559738D02*
X131071795Y-34559738D01*
X131071795Y-34559738D02*
X130976557Y-34607357D01*
X130976557Y-34607357D02*
X130928938Y-34654976D01*
X130928938Y-34654976D02*
X130881319Y-34750214D01*
X130881319Y-34750214D02*
X130881319Y-34988309D01*
X130881319Y-34988309D02*
X130928938Y-35131166D01*
D12*
X14532428Y-14883964D02*
X14770523Y-14883964D01*
X14770523Y-14883964D02*
X14770523Y-14133964D01*
X14365761Y-14491107D02*
X14199094Y-14491107D01*
X14127666Y-14883964D02*
X14365761Y-14883964D01*
X14365761Y-14883964D02*
X14365761Y-14133964D01*
X14365761Y-14133964D02*
X14127666Y-14133964D01*
X13913380Y-14883964D02*
X13913380Y-14133964D01*
X13913380Y-14133964D02*
X13794332Y-14133964D01*
X13794332Y-14133964D02*
X13722904Y-14169678D01*
X13722904Y-14169678D02*
X13675285Y-14241107D01*
X13675285Y-14241107D02*
X13651475Y-14312535D01*
X13651475Y-14312535D02*
X13627666Y-14455392D01*
X13627666Y-14455392D02*
X13627666Y-14562535D01*
X13627666Y-14562535D02*
X13651475Y-14705392D01*
X13651475Y-14705392D02*
X13675285Y-14776821D01*
X13675285Y-14776821D02*
X13722904Y-14848250D01*
X13722904Y-14848250D02*
X13794332Y-14883964D01*
X13794332Y-14883964D02*
X13913380Y-14883964D01*
X29807619Y-30057035D02*
X29831428Y-30092750D01*
X29831428Y-30092750D02*
X29902857Y-30128464D01*
X29902857Y-30128464D02*
X29950476Y-30128464D01*
X29950476Y-30128464D02*
X30021904Y-30092750D01*
X30021904Y-30092750D02*
X30069523Y-30021321D01*
X30069523Y-30021321D02*
X30093333Y-29949892D01*
X30093333Y-29949892D02*
X30117142Y-29807035D01*
X30117142Y-29807035D02*
X30117142Y-29699892D01*
X30117142Y-29699892D02*
X30093333Y-29557035D01*
X30093333Y-29557035D02*
X30069523Y-29485607D01*
X30069523Y-29485607D02*
X30021904Y-29414178D01*
X30021904Y-29414178D02*
X29950476Y-29378464D01*
X29950476Y-29378464D02*
X29902857Y-29378464D01*
X29902857Y-29378464D02*
X29831428Y-29414178D01*
X29831428Y-29414178D02*
X29807619Y-29449892D01*
X29498095Y-29378464D02*
X29402857Y-29378464D01*
X29402857Y-29378464D02*
X29355238Y-29414178D01*
X29355238Y-29414178D02*
X29307619Y-29485607D01*
X29307619Y-29485607D02*
X29283809Y-29628464D01*
X29283809Y-29628464D02*
X29283809Y-29878464D01*
X29283809Y-29878464D02*
X29307619Y-30021321D01*
X29307619Y-30021321D02*
X29355238Y-30092750D01*
X29355238Y-30092750D02*
X29402857Y-30128464D01*
X29402857Y-30128464D02*
X29498095Y-30128464D01*
X29498095Y-30128464D02*
X29545714Y-30092750D01*
X29545714Y-30092750D02*
X29593333Y-30021321D01*
X29593333Y-30021321D02*
X29617142Y-29878464D01*
X29617142Y-29878464D02*
X29617142Y-29628464D01*
X29617142Y-29628464D02*
X29593333Y-29485607D01*
X29593333Y-29485607D02*
X29545714Y-29414178D01*
X29545714Y-29414178D02*
X29498095Y-29378464D01*
X28831428Y-30128464D02*
X29069523Y-30128464D01*
X29069523Y-30128464D02*
X29069523Y-29378464D01*
X28688570Y-29449892D02*
X28664761Y-29414178D01*
X28664761Y-29414178D02*
X28617142Y-29378464D01*
X28617142Y-29378464D02*
X28498094Y-29378464D01*
X28498094Y-29378464D02*
X28450475Y-29414178D01*
X28450475Y-29414178D02*
X28426666Y-29449892D01*
X28426666Y-29449892D02*
X28402856Y-29521321D01*
X28402856Y-29521321D02*
X28402856Y-29592750D01*
X28402856Y-29592750D02*
X28426666Y-29699892D01*
X28426666Y-29699892D02*
X28712380Y-30128464D01*
X28712380Y-30128464D02*
X28402856Y-30128464D01*
X14590952Y-37778464D02*
X14757618Y-37421321D01*
X14876666Y-37778464D02*
X14876666Y-37028464D01*
X14876666Y-37028464D02*
X14686190Y-37028464D01*
X14686190Y-37028464D02*
X14638571Y-37064178D01*
X14638571Y-37064178D02*
X14614761Y-37099892D01*
X14614761Y-37099892D02*
X14590952Y-37171321D01*
X14590952Y-37171321D02*
X14590952Y-37278464D01*
X14590952Y-37278464D02*
X14614761Y-37349892D01*
X14614761Y-37349892D02*
X14638571Y-37385607D01*
X14638571Y-37385607D02*
X14686190Y-37421321D01*
X14686190Y-37421321D02*
X14876666Y-37421321D01*
X14281428Y-37028464D02*
X14186190Y-37028464D01*
X14186190Y-37028464D02*
X14138571Y-37064178D01*
X14138571Y-37064178D02*
X14090952Y-37135607D01*
X14090952Y-37135607D02*
X14067142Y-37278464D01*
X14067142Y-37278464D02*
X14067142Y-37528464D01*
X14067142Y-37528464D02*
X14090952Y-37671321D01*
X14090952Y-37671321D02*
X14138571Y-37742750D01*
X14138571Y-37742750D02*
X14186190Y-37778464D01*
X14186190Y-37778464D02*
X14281428Y-37778464D01*
X14281428Y-37778464D02*
X14329047Y-37742750D01*
X14329047Y-37742750D02*
X14376666Y-37671321D01*
X14376666Y-37671321D02*
X14400475Y-37528464D01*
X14400475Y-37528464D02*
X14400475Y-37278464D01*
X14400475Y-37278464D02*
X14376666Y-37135607D01*
X14376666Y-37135607D02*
X14329047Y-37064178D01*
X14329047Y-37064178D02*
X14281428Y-37028464D01*
X13900475Y-37028464D02*
X13781427Y-37778464D01*
X13781427Y-37778464D02*
X13686189Y-37242750D01*
X13686189Y-37242750D02*
X13590951Y-37778464D01*
X13590951Y-37778464D02*
X13471904Y-37028464D01*
X13329046Y-37028464D02*
X13019522Y-37028464D01*
X13019522Y-37028464D02*
X13186189Y-37314178D01*
X13186189Y-37314178D02*
X13114760Y-37314178D01*
X13114760Y-37314178D02*
X13067141Y-37349892D01*
X13067141Y-37349892D02*
X13043332Y-37385607D01*
X13043332Y-37385607D02*
X13019522Y-37457035D01*
X13019522Y-37457035D02*
X13019522Y-37635607D01*
X13019522Y-37635607D02*
X13043332Y-37707035D01*
X13043332Y-37707035D02*
X13067141Y-37742750D01*
X13067141Y-37742750D02*
X13114760Y-37778464D01*
X13114760Y-37778464D02*
X13257617Y-37778464D01*
X13257617Y-37778464D02*
X13305236Y-37742750D01*
X13305236Y-37742750D02*
X13329046Y-37707035D01*
X14591952Y-19249678D02*
X14639571Y-19213964D01*
X14639571Y-19213964D02*
X14711000Y-19213964D01*
X14711000Y-19213964D02*
X14782428Y-19249678D01*
X14782428Y-19249678D02*
X14830047Y-19321107D01*
X14830047Y-19321107D02*
X14853857Y-19392535D01*
X14853857Y-19392535D02*
X14877666Y-19535392D01*
X14877666Y-19535392D02*
X14877666Y-19642535D01*
X14877666Y-19642535D02*
X14853857Y-19785392D01*
X14853857Y-19785392D02*
X14830047Y-19856821D01*
X14830047Y-19856821D02*
X14782428Y-19928250D01*
X14782428Y-19928250D02*
X14711000Y-19963964D01*
X14711000Y-19963964D02*
X14663381Y-19963964D01*
X14663381Y-19963964D02*
X14591952Y-19928250D01*
X14591952Y-19928250D02*
X14568143Y-19892535D01*
X14568143Y-19892535D02*
X14568143Y-19642535D01*
X14568143Y-19642535D02*
X14663381Y-19642535D01*
X14353857Y-19963964D02*
X14353857Y-19213964D01*
X14353857Y-19213964D02*
X14068143Y-19963964D01*
X14068143Y-19963964D02*
X14068143Y-19213964D01*
X13830047Y-19963964D02*
X13830047Y-19213964D01*
X13830047Y-19213964D02*
X13710999Y-19213964D01*
X13710999Y-19213964D02*
X13639571Y-19249678D01*
X13639571Y-19249678D02*
X13591952Y-19321107D01*
X13591952Y-19321107D02*
X13568142Y-19392535D01*
X13568142Y-19392535D02*
X13544333Y-19535392D01*
X13544333Y-19535392D02*
X13544333Y-19642535D01*
X13544333Y-19642535D02*
X13568142Y-19785392D01*
X13568142Y-19785392D02*
X13591952Y-19856821D01*
X13591952Y-19856821D02*
X13639571Y-19928250D01*
X13639571Y-19928250D02*
X13710999Y-19963964D01*
X13710999Y-19963964D02*
X13830047Y-19963964D01*
X29807619Y-25007035D02*
X29831428Y-25042750D01*
X29831428Y-25042750D02*
X29902857Y-25078464D01*
X29902857Y-25078464D02*
X29950476Y-25078464D01*
X29950476Y-25078464D02*
X30021904Y-25042750D01*
X30021904Y-25042750D02*
X30069523Y-24971321D01*
X30069523Y-24971321D02*
X30093333Y-24899892D01*
X30093333Y-24899892D02*
X30117142Y-24757035D01*
X30117142Y-24757035D02*
X30117142Y-24649892D01*
X30117142Y-24649892D02*
X30093333Y-24507035D01*
X30093333Y-24507035D02*
X30069523Y-24435607D01*
X30069523Y-24435607D02*
X30021904Y-24364178D01*
X30021904Y-24364178D02*
X29950476Y-24328464D01*
X29950476Y-24328464D02*
X29902857Y-24328464D01*
X29902857Y-24328464D02*
X29831428Y-24364178D01*
X29831428Y-24364178D02*
X29807619Y-24399892D01*
X29498095Y-24328464D02*
X29402857Y-24328464D01*
X29402857Y-24328464D02*
X29355238Y-24364178D01*
X29355238Y-24364178D02*
X29307619Y-24435607D01*
X29307619Y-24435607D02*
X29283809Y-24578464D01*
X29283809Y-24578464D02*
X29283809Y-24828464D01*
X29283809Y-24828464D02*
X29307619Y-24971321D01*
X29307619Y-24971321D02*
X29355238Y-25042750D01*
X29355238Y-25042750D02*
X29402857Y-25078464D01*
X29402857Y-25078464D02*
X29498095Y-25078464D01*
X29498095Y-25078464D02*
X29545714Y-25042750D01*
X29545714Y-25042750D02*
X29593333Y-24971321D01*
X29593333Y-24971321D02*
X29617142Y-24828464D01*
X29617142Y-24828464D02*
X29617142Y-24578464D01*
X29617142Y-24578464D02*
X29593333Y-24435607D01*
X29593333Y-24435607D02*
X29545714Y-24364178D01*
X29545714Y-24364178D02*
X29498095Y-24328464D01*
X28831428Y-25078464D02*
X29069523Y-25078464D01*
X29069523Y-25078464D02*
X29069523Y-24328464D01*
X28569523Y-24328464D02*
X28521904Y-24328464D01*
X28521904Y-24328464D02*
X28474285Y-24364178D01*
X28474285Y-24364178D02*
X28450475Y-24399892D01*
X28450475Y-24399892D02*
X28426666Y-24471321D01*
X28426666Y-24471321D02*
X28402856Y-24614178D01*
X28402856Y-24614178D02*
X28402856Y-24792750D01*
X28402856Y-24792750D02*
X28426666Y-24935607D01*
X28426666Y-24935607D02*
X28450475Y-25007035D01*
X28450475Y-25007035D02*
X28474285Y-25042750D01*
X28474285Y-25042750D02*
X28521904Y-25078464D01*
X28521904Y-25078464D02*
X28569523Y-25078464D01*
X28569523Y-25078464D02*
X28617142Y-25042750D01*
X28617142Y-25042750D02*
X28640951Y-25007035D01*
X28640951Y-25007035D02*
X28664761Y-24935607D01*
X28664761Y-24935607D02*
X28688570Y-24792750D01*
X28688570Y-24792750D02*
X28688570Y-24614178D01*
X28688570Y-24614178D02*
X28664761Y-24471321D01*
X28664761Y-24471321D02*
X28640951Y-24399892D01*
X28640951Y-24399892D02*
X28617142Y-24364178D01*
X28617142Y-24364178D02*
X28569523Y-24328464D01*
X29907380Y-42367607D02*
X29835952Y-42403321D01*
X29835952Y-42403321D02*
X29812142Y-42439035D01*
X29812142Y-42439035D02*
X29788333Y-42510464D01*
X29788333Y-42510464D02*
X29788333Y-42617607D01*
X29788333Y-42617607D02*
X29812142Y-42689035D01*
X29812142Y-42689035D02*
X29835952Y-42724750D01*
X29835952Y-42724750D02*
X29883571Y-42760464D01*
X29883571Y-42760464D02*
X30074047Y-42760464D01*
X30074047Y-42760464D02*
X30074047Y-42010464D01*
X30074047Y-42010464D02*
X29907380Y-42010464D01*
X29907380Y-42010464D02*
X29859761Y-42046178D01*
X29859761Y-42046178D02*
X29835952Y-42081892D01*
X29835952Y-42081892D02*
X29812142Y-42153321D01*
X29812142Y-42153321D02*
X29812142Y-42224750D01*
X29812142Y-42224750D02*
X29835952Y-42296178D01*
X29835952Y-42296178D02*
X29859761Y-42331892D01*
X29859761Y-42331892D02*
X29907380Y-42367607D01*
X29907380Y-42367607D02*
X30074047Y-42367607D01*
X29359761Y-42010464D02*
X29454999Y-42010464D01*
X29454999Y-42010464D02*
X29502618Y-42046178D01*
X29502618Y-42046178D02*
X29526428Y-42081892D01*
X29526428Y-42081892D02*
X29574047Y-42189035D01*
X29574047Y-42189035D02*
X29597856Y-42331892D01*
X29597856Y-42331892D02*
X29597856Y-42617607D01*
X29597856Y-42617607D02*
X29574047Y-42689035D01*
X29574047Y-42689035D02*
X29550237Y-42724750D01*
X29550237Y-42724750D02*
X29502618Y-42760464D01*
X29502618Y-42760464D02*
X29407380Y-42760464D01*
X29407380Y-42760464D02*
X29359761Y-42724750D01*
X29359761Y-42724750D02*
X29335952Y-42689035D01*
X29335952Y-42689035D02*
X29312142Y-42617607D01*
X29312142Y-42617607D02*
X29312142Y-42439035D01*
X29312142Y-42439035D02*
X29335952Y-42367607D01*
X29335952Y-42367607D02*
X29359761Y-42331892D01*
X29359761Y-42331892D02*
X29407380Y-42296178D01*
X29407380Y-42296178D02*
X29502618Y-42296178D01*
X29502618Y-42296178D02*
X29550237Y-42331892D01*
X29550237Y-42331892D02*
X29574047Y-42367607D01*
X29574047Y-42367607D02*
X29597856Y-42439035D01*
X29807619Y-32557035D02*
X29831428Y-32592750D01*
X29831428Y-32592750D02*
X29902857Y-32628464D01*
X29902857Y-32628464D02*
X29950476Y-32628464D01*
X29950476Y-32628464D02*
X30021904Y-32592750D01*
X30021904Y-32592750D02*
X30069523Y-32521321D01*
X30069523Y-32521321D02*
X30093333Y-32449892D01*
X30093333Y-32449892D02*
X30117142Y-32307035D01*
X30117142Y-32307035D02*
X30117142Y-32199892D01*
X30117142Y-32199892D02*
X30093333Y-32057035D01*
X30093333Y-32057035D02*
X30069523Y-31985607D01*
X30069523Y-31985607D02*
X30021904Y-31914178D01*
X30021904Y-31914178D02*
X29950476Y-31878464D01*
X29950476Y-31878464D02*
X29902857Y-31878464D01*
X29902857Y-31878464D02*
X29831428Y-31914178D01*
X29831428Y-31914178D02*
X29807619Y-31949892D01*
X29498095Y-31878464D02*
X29402857Y-31878464D01*
X29402857Y-31878464D02*
X29355238Y-31914178D01*
X29355238Y-31914178D02*
X29307619Y-31985607D01*
X29307619Y-31985607D02*
X29283809Y-32128464D01*
X29283809Y-32128464D02*
X29283809Y-32378464D01*
X29283809Y-32378464D02*
X29307619Y-32521321D01*
X29307619Y-32521321D02*
X29355238Y-32592750D01*
X29355238Y-32592750D02*
X29402857Y-32628464D01*
X29402857Y-32628464D02*
X29498095Y-32628464D01*
X29498095Y-32628464D02*
X29545714Y-32592750D01*
X29545714Y-32592750D02*
X29593333Y-32521321D01*
X29593333Y-32521321D02*
X29617142Y-32378464D01*
X29617142Y-32378464D02*
X29617142Y-32128464D01*
X29617142Y-32128464D02*
X29593333Y-31985607D01*
X29593333Y-31985607D02*
X29545714Y-31914178D01*
X29545714Y-31914178D02*
X29498095Y-31878464D01*
X28831428Y-32628464D02*
X29069523Y-32628464D01*
X29069523Y-32628464D02*
X29069523Y-31878464D01*
X28712380Y-31878464D02*
X28402856Y-31878464D01*
X28402856Y-31878464D02*
X28569523Y-32164178D01*
X28569523Y-32164178D02*
X28498094Y-32164178D01*
X28498094Y-32164178D02*
X28450475Y-32199892D01*
X28450475Y-32199892D02*
X28426666Y-32235607D01*
X28426666Y-32235607D02*
X28402856Y-32307035D01*
X28402856Y-32307035D02*
X28402856Y-32485607D01*
X28402856Y-32485607D02*
X28426666Y-32557035D01*
X28426666Y-32557035D02*
X28450475Y-32592750D01*
X28450475Y-32592750D02*
X28498094Y-32628464D01*
X28498094Y-32628464D02*
X28640951Y-32628464D01*
X28640951Y-32628464D02*
X28688570Y-32592750D01*
X28688570Y-32592750D02*
X28712380Y-32557035D01*
X29757619Y-35069035D02*
X29781428Y-35104750D01*
X29781428Y-35104750D02*
X29852857Y-35140464D01*
X29852857Y-35140464D02*
X29900476Y-35140464D01*
X29900476Y-35140464D02*
X29971904Y-35104750D01*
X29971904Y-35104750D02*
X30019523Y-35033321D01*
X30019523Y-35033321D02*
X30043333Y-34961892D01*
X30043333Y-34961892D02*
X30067142Y-34819035D01*
X30067142Y-34819035D02*
X30067142Y-34711892D01*
X30067142Y-34711892D02*
X30043333Y-34569035D01*
X30043333Y-34569035D02*
X30019523Y-34497607D01*
X30019523Y-34497607D02*
X29971904Y-34426178D01*
X29971904Y-34426178D02*
X29900476Y-34390464D01*
X29900476Y-34390464D02*
X29852857Y-34390464D01*
X29852857Y-34390464D02*
X29781428Y-34426178D01*
X29781428Y-34426178D02*
X29757619Y-34461892D01*
X29448095Y-34390464D02*
X29352857Y-34390464D01*
X29352857Y-34390464D02*
X29305238Y-34426178D01*
X29305238Y-34426178D02*
X29257619Y-34497607D01*
X29257619Y-34497607D02*
X29233809Y-34640464D01*
X29233809Y-34640464D02*
X29233809Y-34890464D01*
X29233809Y-34890464D02*
X29257619Y-35033321D01*
X29257619Y-35033321D02*
X29305238Y-35104750D01*
X29305238Y-35104750D02*
X29352857Y-35140464D01*
X29352857Y-35140464D02*
X29448095Y-35140464D01*
X29448095Y-35140464D02*
X29495714Y-35104750D01*
X29495714Y-35104750D02*
X29543333Y-35033321D01*
X29543333Y-35033321D02*
X29567142Y-34890464D01*
X29567142Y-34890464D02*
X29567142Y-34640464D01*
X29567142Y-34640464D02*
X29543333Y-34497607D01*
X29543333Y-34497607D02*
X29495714Y-34426178D01*
X29495714Y-34426178D02*
X29448095Y-34390464D01*
X28781428Y-35140464D02*
X29019523Y-35140464D01*
X29019523Y-35140464D02*
X29019523Y-34390464D01*
X28400475Y-34640464D02*
X28400475Y-35140464D01*
X28519523Y-34354750D02*
X28638570Y-34890464D01*
X28638570Y-34890464D02*
X28329047Y-34890464D01*
X14818141Y-25008250D02*
X14746713Y-25043964D01*
X14746713Y-25043964D02*
X14627665Y-25043964D01*
X14627665Y-25043964D02*
X14580046Y-25008250D01*
X14580046Y-25008250D02*
X14556237Y-24972535D01*
X14556237Y-24972535D02*
X14532427Y-24901107D01*
X14532427Y-24901107D02*
X14532427Y-24829678D01*
X14532427Y-24829678D02*
X14556237Y-24758250D01*
X14556237Y-24758250D02*
X14580046Y-24722535D01*
X14580046Y-24722535D02*
X14627665Y-24686821D01*
X14627665Y-24686821D02*
X14722903Y-24651107D01*
X14722903Y-24651107D02*
X14770522Y-24615392D01*
X14770522Y-24615392D02*
X14794332Y-24579678D01*
X14794332Y-24579678D02*
X14818141Y-24508250D01*
X14818141Y-24508250D02*
X14818141Y-24436821D01*
X14818141Y-24436821D02*
X14794332Y-24365392D01*
X14794332Y-24365392D02*
X14770522Y-24329678D01*
X14770522Y-24329678D02*
X14722903Y-24293964D01*
X14722903Y-24293964D02*
X14603856Y-24293964D01*
X14603856Y-24293964D02*
X14532427Y-24329678D01*
X14318142Y-25043964D02*
X14318142Y-24293964D01*
X14318142Y-24293964D02*
X14199094Y-24293964D01*
X14199094Y-24293964D02*
X14127666Y-24329678D01*
X14127666Y-24329678D02*
X14080047Y-24401107D01*
X14080047Y-24401107D02*
X14056237Y-24472535D01*
X14056237Y-24472535D02*
X14032428Y-24615392D01*
X14032428Y-24615392D02*
X14032428Y-24722535D01*
X14032428Y-24722535D02*
X14056237Y-24865392D01*
X14056237Y-24865392D02*
X14080047Y-24936821D01*
X14080047Y-24936821D02*
X14127666Y-25008250D01*
X14127666Y-25008250D02*
X14199094Y-25043964D01*
X14199094Y-25043964D02*
X14318142Y-25043964D01*
X13841951Y-24829678D02*
X13603856Y-24829678D01*
X13889570Y-25043964D02*
X13722904Y-24293964D01*
X13722904Y-24293964D02*
X13556237Y-25043964D01*
X14413380Y-39891107D02*
X14341952Y-39926821D01*
X14341952Y-39926821D02*
X14318142Y-39962535D01*
X14318142Y-39962535D02*
X14294333Y-40033964D01*
X14294333Y-40033964D02*
X14294333Y-40141107D01*
X14294333Y-40141107D02*
X14318142Y-40212535D01*
X14318142Y-40212535D02*
X14341952Y-40248250D01*
X14341952Y-40248250D02*
X14389571Y-40283964D01*
X14389571Y-40283964D02*
X14580047Y-40283964D01*
X14580047Y-40283964D02*
X14580047Y-39533964D01*
X14580047Y-39533964D02*
X14413380Y-39533964D01*
X14413380Y-39533964D02*
X14365761Y-39569678D01*
X14365761Y-39569678D02*
X14341952Y-39605392D01*
X14341952Y-39605392D02*
X14318142Y-39676821D01*
X14318142Y-39676821D02*
X14318142Y-39748250D01*
X14318142Y-39748250D02*
X14341952Y-39819678D01*
X14341952Y-39819678D02*
X14365761Y-39855392D01*
X14365761Y-39855392D02*
X14413380Y-39891107D01*
X14413380Y-39891107D02*
X14580047Y-39891107D01*
X13865761Y-39783964D02*
X13865761Y-40283964D01*
X13984809Y-39498250D02*
X14103856Y-40033964D01*
X14103856Y-40033964D02*
X13794333Y-40033964D01*
X29768452Y-16646178D02*
X29816071Y-16610464D01*
X29816071Y-16610464D02*
X29887500Y-16610464D01*
X29887500Y-16610464D02*
X29958928Y-16646178D01*
X29958928Y-16646178D02*
X30006547Y-16717607D01*
X30006547Y-16717607D02*
X30030357Y-16789035D01*
X30030357Y-16789035D02*
X30054166Y-16931892D01*
X30054166Y-16931892D02*
X30054166Y-17039035D01*
X30054166Y-17039035D02*
X30030357Y-17181892D01*
X30030357Y-17181892D02*
X30006547Y-17253321D01*
X30006547Y-17253321D02*
X29958928Y-17324750D01*
X29958928Y-17324750D02*
X29887500Y-17360464D01*
X29887500Y-17360464D02*
X29839881Y-17360464D01*
X29839881Y-17360464D02*
X29768452Y-17324750D01*
X29768452Y-17324750D02*
X29744643Y-17289035D01*
X29744643Y-17289035D02*
X29744643Y-17039035D01*
X29744643Y-17039035D02*
X29839881Y-17039035D01*
X29530357Y-17360464D02*
X29530357Y-16610464D01*
X29530357Y-16610464D02*
X29244643Y-17360464D01*
X29244643Y-17360464D02*
X29244643Y-16610464D01*
X29006547Y-17360464D02*
X29006547Y-16610464D01*
X29006547Y-16610464D02*
X28887499Y-16610464D01*
X28887499Y-16610464D02*
X28816071Y-16646178D01*
X28816071Y-16646178D02*
X28768452Y-16717607D01*
X28768452Y-16717607D02*
X28744642Y-16789035D01*
X28744642Y-16789035D02*
X28720833Y-16931892D01*
X28720833Y-16931892D02*
X28720833Y-17039035D01*
X28720833Y-17039035D02*
X28744642Y-17181892D01*
X28744642Y-17181892D02*
X28768452Y-17253321D01*
X28768452Y-17253321D02*
X28816071Y-17324750D01*
X28816071Y-17324750D02*
X28887499Y-17360464D01*
X28887499Y-17360464D02*
X29006547Y-17360464D01*
X29724809Y-19963964D02*
X29891475Y-19606821D01*
X30010523Y-19963964D02*
X30010523Y-19213964D01*
X30010523Y-19213964D02*
X29820047Y-19213964D01*
X29820047Y-19213964D02*
X29772428Y-19249678D01*
X29772428Y-19249678D02*
X29748618Y-19285392D01*
X29748618Y-19285392D02*
X29724809Y-19356821D01*
X29724809Y-19356821D02*
X29724809Y-19463964D01*
X29724809Y-19463964D02*
X29748618Y-19535392D01*
X29748618Y-19535392D02*
X29772428Y-19571107D01*
X29772428Y-19571107D02*
X29820047Y-19606821D01*
X29820047Y-19606821D02*
X30010523Y-19606821D01*
X29534332Y-19928250D02*
X29462904Y-19963964D01*
X29462904Y-19963964D02*
X29343856Y-19963964D01*
X29343856Y-19963964D02*
X29296237Y-19928250D01*
X29296237Y-19928250D02*
X29272428Y-19892535D01*
X29272428Y-19892535D02*
X29248618Y-19821107D01*
X29248618Y-19821107D02*
X29248618Y-19749678D01*
X29248618Y-19749678D02*
X29272428Y-19678250D01*
X29272428Y-19678250D02*
X29296237Y-19642535D01*
X29296237Y-19642535D02*
X29343856Y-19606821D01*
X29343856Y-19606821D02*
X29439094Y-19571107D01*
X29439094Y-19571107D02*
X29486713Y-19535392D01*
X29486713Y-19535392D02*
X29510523Y-19499678D01*
X29510523Y-19499678D02*
X29534332Y-19428250D01*
X29534332Y-19428250D02*
X29534332Y-19356821D01*
X29534332Y-19356821D02*
X29510523Y-19285392D01*
X29510523Y-19285392D02*
X29486713Y-19249678D01*
X29486713Y-19249678D02*
X29439094Y-19213964D01*
X29439094Y-19213964D02*
X29320047Y-19213964D01*
X29320047Y-19213964D02*
X29248618Y-19249678D01*
X29105761Y-19213964D02*
X28820047Y-19213964D01*
X28962904Y-19963964D02*
X28962904Y-19213964D01*
X29796238Y-14883964D02*
X29962904Y-14526821D01*
X30081952Y-14883964D02*
X30081952Y-14133964D01*
X30081952Y-14133964D02*
X29891476Y-14133964D01*
X29891476Y-14133964D02*
X29843857Y-14169678D01*
X29843857Y-14169678D02*
X29820047Y-14205392D01*
X29820047Y-14205392D02*
X29796238Y-14276821D01*
X29796238Y-14276821D02*
X29796238Y-14383964D01*
X29796238Y-14383964D02*
X29820047Y-14455392D01*
X29820047Y-14455392D02*
X29843857Y-14491107D01*
X29843857Y-14491107D02*
X29891476Y-14526821D01*
X29891476Y-14526821D02*
X30081952Y-14526821D01*
X29605761Y-14669678D02*
X29367666Y-14669678D01*
X29653380Y-14883964D02*
X29486714Y-14133964D01*
X29486714Y-14133964D02*
X29320047Y-14883964D01*
X29201000Y-14133964D02*
X29081952Y-14883964D01*
X29081952Y-14883964D02*
X28986714Y-14348250D01*
X28986714Y-14348250D02*
X28891476Y-14883964D01*
X28891476Y-14883964D02*
X28772429Y-14133964D01*
X14809999Y-17528464D02*
X14809999Y-16778464D01*
X14809999Y-16778464D02*
X14690951Y-16778464D01*
X14690951Y-16778464D02*
X14619523Y-16814178D01*
X14619523Y-16814178D02*
X14571904Y-16885607D01*
X14571904Y-16885607D02*
X14548094Y-16957035D01*
X14548094Y-16957035D02*
X14524285Y-17099892D01*
X14524285Y-17099892D02*
X14524285Y-17207035D01*
X14524285Y-17207035D02*
X14548094Y-17349892D01*
X14548094Y-17349892D02*
X14571904Y-17421321D01*
X14571904Y-17421321D02*
X14619523Y-17492750D01*
X14619523Y-17492750D02*
X14690951Y-17528464D01*
X14690951Y-17528464D02*
X14809999Y-17528464D01*
X14333808Y-17314178D02*
X14095713Y-17314178D01*
X14381427Y-17528464D02*
X14214761Y-16778464D01*
X14214761Y-16778464D02*
X14048094Y-17528464D01*
X13952856Y-16778464D02*
X13667142Y-16778464D01*
X13809999Y-17528464D02*
X13809999Y-16778464D01*
X13524285Y-17314178D02*
X13286190Y-17314178D01*
X13571904Y-17528464D02*
X13405238Y-16778464D01*
X13405238Y-16778464D02*
X13238571Y-17528464D01*
X29807619Y-37707035D02*
X29831428Y-37742750D01*
X29831428Y-37742750D02*
X29902857Y-37778464D01*
X29902857Y-37778464D02*
X29950476Y-37778464D01*
X29950476Y-37778464D02*
X30021904Y-37742750D01*
X30021904Y-37742750D02*
X30069523Y-37671321D01*
X30069523Y-37671321D02*
X30093333Y-37599892D01*
X30093333Y-37599892D02*
X30117142Y-37457035D01*
X30117142Y-37457035D02*
X30117142Y-37349892D01*
X30117142Y-37349892D02*
X30093333Y-37207035D01*
X30093333Y-37207035D02*
X30069523Y-37135607D01*
X30069523Y-37135607D02*
X30021904Y-37064178D01*
X30021904Y-37064178D02*
X29950476Y-37028464D01*
X29950476Y-37028464D02*
X29902857Y-37028464D01*
X29902857Y-37028464D02*
X29831428Y-37064178D01*
X29831428Y-37064178D02*
X29807619Y-37099892D01*
X29498095Y-37028464D02*
X29402857Y-37028464D01*
X29402857Y-37028464D02*
X29355238Y-37064178D01*
X29355238Y-37064178D02*
X29307619Y-37135607D01*
X29307619Y-37135607D02*
X29283809Y-37278464D01*
X29283809Y-37278464D02*
X29283809Y-37528464D01*
X29283809Y-37528464D02*
X29307619Y-37671321D01*
X29307619Y-37671321D02*
X29355238Y-37742750D01*
X29355238Y-37742750D02*
X29402857Y-37778464D01*
X29402857Y-37778464D02*
X29498095Y-37778464D01*
X29498095Y-37778464D02*
X29545714Y-37742750D01*
X29545714Y-37742750D02*
X29593333Y-37671321D01*
X29593333Y-37671321D02*
X29617142Y-37528464D01*
X29617142Y-37528464D02*
X29617142Y-37278464D01*
X29617142Y-37278464D02*
X29593333Y-37135607D01*
X29593333Y-37135607D02*
X29545714Y-37064178D01*
X29545714Y-37064178D02*
X29498095Y-37028464D01*
X28831428Y-37778464D02*
X29069523Y-37778464D01*
X29069523Y-37778464D02*
X29069523Y-37028464D01*
X28426666Y-37028464D02*
X28664761Y-37028464D01*
X28664761Y-37028464D02*
X28688570Y-37385607D01*
X28688570Y-37385607D02*
X28664761Y-37349892D01*
X28664761Y-37349892D02*
X28617142Y-37314178D01*
X28617142Y-37314178D02*
X28498094Y-37314178D01*
X28498094Y-37314178D02*
X28450475Y-37349892D01*
X28450475Y-37349892D02*
X28426666Y-37385607D01*
X28426666Y-37385607D02*
X28402856Y-37457035D01*
X28402856Y-37457035D02*
X28402856Y-37635607D01*
X28402856Y-37635607D02*
X28426666Y-37707035D01*
X28426666Y-37707035D02*
X28450475Y-37742750D01*
X28450475Y-37742750D02*
X28498094Y-37778464D01*
X28498094Y-37778464D02*
X28617142Y-37778464D01*
X28617142Y-37778464D02*
X28664761Y-37742750D01*
X28664761Y-37742750D02*
X28688570Y-37707035D01*
X14806237Y-27548250D02*
X14734809Y-27583964D01*
X14734809Y-27583964D02*
X14615761Y-27583964D01*
X14615761Y-27583964D02*
X14568142Y-27548250D01*
X14568142Y-27548250D02*
X14544333Y-27512535D01*
X14544333Y-27512535D02*
X14520523Y-27441107D01*
X14520523Y-27441107D02*
X14520523Y-27369678D01*
X14520523Y-27369678D02*
X14544333Y-27298250D01*
X14544333Y-27298250D02*
X14568142Y-27262535D01*
X14568142Y-27262535D02*
X14615761Y-27226821D01*
X14615761Y-27226821D02*
X14710999Y-27191107D01*
X14710999Y-27191107D02*
X14758618Y-27155392D01*
X14758618Y-27155392D02*
X14782428Y-27119678D01*
X14782428Y-27119678D02*
X14806237Y-27048250D01*
X14806237Y-27048250D02*
X14806237Y-26976821D01*
X14806237Y-26976821D02*
X14782428Y-26905392D01*
X14782428Y-26905392D02*
X14758618Y-26869678D01*
X14758618Y-26869678D02*
X14710999Y-26833964D01*
X14710999Y-26833964D02*
X14591952Y-26833964D01*
X14591952Y-26833964D02*
X14520523Y-26869678D01*
X14020524Y-27512535D02*
X14044333Y-27548250D01*
X14044333Y-27548250D02*
X14115762Y-27583964D01*
X14115762Y-27583964D02*
X14163381Y-27583964D01*
X14163381Y-27583964D02*
X14234809Y-27548250D01*
X14234809Y-27548250D02*
X14282428Y-27476821D01*
X14282428Y-27476821D02*
X14306238Y-27405392D01*
X14306238Y-27405392D02*
X14330047Y-27262535D01*
X14330047Y-27262535D02*
X14330047Y-27155392D01*
X14330047Y-27155392D02*
X14306238Y-27012535D01*
X14306238Y-27012535D02*
X14282428Y-26941107D01*
X14282428Y-26941107D02*
X14234809Y-26869678D01*
X14234809Y-26869678D02*
X14163381Y-26833964D01*
X14163381Y-26833964D02*
X14115762Y-26833964D01*
X14115762Y-26833964D02*
X14044333Y-26869678D01*
X14044333Y-26869678D02*
X14020524Y-26905392D01*
X13568143Y-27583964D02*
X13806238Y-27583964D01*
X13806238Y-27583964D02*
X13806238Y-26833964D01*
X14413380Y-42431107D02*
X14341952Y-42466821D01*
X14341952Y-42466821D02*
X14318142Y-42502535D01*
X14318142Y-42502535D02*
X14294333Y-42573964D01*
X14294333Y-42573964D02*
X14294333Y-42681107D01*
X14294333Y-42681107D02*
X14318142Y-42752535D01*
X14318142Y-42752535D02*
X14341952Y-42788250D01*
X14341952Y-42788250D02*
X14389571Y-42823964D01*
X14389571Y-42823964D02*
X14580047Y-42823964D01*
X14580047Y-42823964D02*
X14580047Y-42073964D01*
X14580047Y-42073964D02*
X14413380Y-42073964D01*
X14413380Y-42073964D02*
X14365761Y-42109678D01*
X14365761Y-42109678D02*
X14341952Y-42145392D01*
X14341952Y-42145392D02*
X14318142Y-42216821D01*
X14318142Y-42216821D02*
X14318142Y-42288250D01*
X14318142Y-42288250D02*
X14341952Y-42359678D01*
X14341952Y-42359678D02*
X14365761Y-42395392D01*
X14365761Y-42395392D02*
X14413380Y-42431107D01*
X14413380Y-42431107D02*
X14580047Y-42431107D01*
X13841952Y-42073964D02*
X14080047Y-42073964D01*
X14080047Y-42073964D02*
X14103856Y-42431107D01*
X14103856Y-42431107D02*
X14080047Y-42395392D01*
X14080047Y-42395392D02*
X14032428Y-42359678D01*
X14032428Y-42359678D02*
X13913380Y-42359678D01*
X13913380Y-42359678D02*
X13865761Y-42395392D01*
X13865761Y-42395392D02*
X13841952Y-42431107D01*
X13841952Y-42431107D02*
X13818142Y-42502535D01*
X13818142Y-42502535D02*
X13818142Y-42681107D01*
X13818142Y-42681107D02*
X13841952Y-42752535D01*
X13841952Y-42752535D02*
X13865761Y-42788250D01*
X13865761Y-42788250D02*
X13913380Y-42823964D01*
X13913380Y-42823964D02*
X14032428Y-42823964D01*
X14032428Y-42823964D02*
X14080047Y-42788250D01*
X14080047Y-42788250D02*
X14103856Y-42752535D01*
X14590952Y-30060464D02*
X14757618Y-29703321D01*
X14876666Y-30060464D02*
X14876666Y-29310464D01*
X14876666Y-29310464D02*
X14686190Y-29310464D01*
X14686190Y-29310464D02*
X14638571Y-29346178D01*
X14638571Y-29346178D02*
X14614761Y-29381892D01*
X14614761Y-29381892D02*
X14590952Y-29453321D01*
X14590952Y-29453321D02*
X14590952Y-29560464D01*
X14590952Y-29560464D02*
X14614761Y-29631892D01*
X14614761Y-29631892D02*
X14638571Y-29667607D01*
X14638571Y-29667607D02*
X14686190Y-29703321D01*
X14686190Y-29703321D02*
X14876666Y-29703321D01*
X14281428Y-29310464D02*
X14186190Y-29310464D01*
X14186190Y-29310464D02*
X14138571Y-29346178D01*
X14138571Y-29346178D02*
X14090952Y-29417607D01*
X14090952Y-29417607D02*
X14067142Y-29560464D01*
X14067142Y-29560464D02*
X14067142Y-29810464D01*
X14067142Y-29810464D02*
X14090952Y-29953321D01*
X14090952Y-29953321D02*
X14138571Y-30024750D01*
X14138571Y-30024750D02*
X14186190Y-30060464D01*
X14186190Y-30060464D02*
X14281428Y-30060464D01*
X14281428Y-30060464D02*
X14329047Y-30024750D01*
X14329047Y-30024750D02*
X14376666Y-29953321D01*
X14376666Y-29953321D02*
X14400475Y-29810464D01*
X14400475Y-29810464D02*
X14400475Y-29560464D01*
X14400475Y-29560464D02*
X14376666Y-29417607D01*
X14376666Y-29417607D02*
X14329047Y-29346178D01*
X14329047Y-29346178D02*
X14281428Y-29310464D01*
X13900475Y-29310464D02*
X13781427Y-30060464D01*
X13781427Y-30060464D02*
X13686189Y-29524750D01*
X13686189Y-29524750D02*
X13590951Y-30060464D01*
X13590951Y-30060464D02*
X13471904Y-29310464D01*
X13186189Y-29310464D02*
X13138570Y-29310464D01*
X13138570Y-29310464D02*
X13090951Y-29346178D01*
X13090951Y-29346178D02*
X13067141Y-29381892D01*
X13067141Y-29381892D02*
X13043332Y-29453321D01*
X13043332Y-29453321D02*
X13019522Y-29596178D01*
X13019522Y-29596178D02*
X13019522Y-29774750D01*
X13019522Y-29774750D02*
X13043332Y-29917607D01*
X13043332Y-29917607D02*
X13067141Y-29989035D01*
X13067141Y-29989035D02*
X13090951Y-30024750D01*
X13090951Y-30024750D02*
X13138570Y-30060464D01*
X13138570Y-30060464D02*
X13186189Y-30060464D01*
X13186189Y-30060464D02*
X13233808Y-30024750D01*
X13233808Y-30024750D02*
X13257617Y-29989035D01*
X13257617Y-29989035D02*
X13281427Y-29917607D01*
X13281427Y-29917607D02*
X13305236Y-29774750D01*
X13305236Y-29774750D02*
X13305236Y-29596178D01*
X13305236Y-29596178D02*
X13281427Y-29453321D01*
X13281427Y-29453321D02*
X13257617Y-29381892D01*
X13257617Y-29381892D02*
X13233808Y-29346178D01*
X13233808Y-29346178D02*
X13186189Y-29310464D01*
X29807619Y-27512535D02*
X29831428Y-27548250D01*
X29831428Y-27548250D02*
X29902857Y-27583964D01*
X29902857Y-27583964D02*
X29950476Y-27583964D01*
X29950476Y-27583964D02*
X30021904Y-27548250D01*
X30021904Y-27548250D02*
X30069523Y-27476821D01*
X30069523Y-27476821D02*
X30093333Y-27405392D01*
X30093333Y-27405392D02*
X30117142Y-27262535D01*
X30117142Y-27262535D02*
X30117142Y-27155392D01*
X30117142Y-27155392D02*
X30093333Y-27012535D01*
X30093333Y-27012535D02*
X30069523Y-26941107D01*
X30069523Y-26941107D02*
X30021904Y-26869678D01*
X30021904Y-26869678D02*
X29950476Y-26833964D01*
X29950476Y-26833964D02*
X29902857Y-26833964D01*
X29902857Y-26833964D02*
X29831428Y-26869678D01*
X29831428Y-26869678D02*
X29807619Y-26905392D01*
X29498095Y-26833964D02*
X29402857Y-26833964D01*
X29402857Y-26833964D02*
X29355238Y-26869678D01*
X29355238Y-26869678D02*
X29307619Y-26941107D01*
X29307619Y-26941107D02*
X29283809Y-27083964D01*
X29283809Y-27083964D02*
X29283809Y-27333964D01*
X29283809Y-27333964D02*
X29307619Y-27476821D01*
X29307619Y-27476821D02*
X29355238Y-27548250D01*
X29355238Y-27548250D02*
X29402857Y-27583964D01*
X29402857Y-27583964D02*
X29498095Y-27583964D01*
X29498095Y-27583964D02*
X29545714Y-27548250D01*
X29545714Y-27548250D02*
X29593333Y-27476821D01*
X29593333Y-27476821D02*
X29617142Y-27333964D01*
X29617142Y-27333964D02*
X29617142Y-27083964D01*
X29617142Y-27083964D02*
X29593333Y-26941107D01*
X29593333Y-26941107D02*
X29545714Y-26869678D01*
X29545714Y-26869678D02*
X29498095Y-26833964D01*
X28831428Y-27583964D02*
X29069523Y-27583964D01*
X29069523Y-27583964D02*
X29069523Y-26833964D01*
X28402856Y-27583964D02*
X28688570Y-27583964D01*
X28545713Y-27583964D02*
X28545713Y-26833964D01*
X28545713Y-26833964D02*
X28593332Y-26941107D01*
X28593332Y-26941107D02*
X28640951Y-27012535D01*
X28640951Y-27012535D02*
X28688570Y-27048250D01*
X14591952Y-21789678D02*
X14639571Y-21753964D01*
X14639571Y-21753964D02*
X14711000Y-21753964D01*
X14711000Y-21753964D02*
X14782428Y-21789678D01*
X14782428Y-21789678D02*
X14830047Y-21861107D01*
X14830047Y-21861107D02*
X14853857Y-21932535D01*
X14853857Y-21932535D02*
X14877666Y-22075392D01*
X14877666Y-22075392D02*
X14877666Y-22182535D01*
X14877666Y-22182535D02*
X14853857Y-22325392D01*
X14853857Y-22325392D02*
X14830047Y-22396821D01*
X14830047Y-22396821D02*
X14782428Y-22468250D01*
X14782428Y-22468250D02*
X14711000Y-22503964D01*
X14711000Y-22503964D02*
X14663381Y-22503964D01*
X14663381Y-22503964D02*
X14591952Y-22468250D01*
X14591952Y-22468250D02*
X14568143Y-22432535D01*
X14568143Y-22432535D02*
X14568143Y-22182535D01*
X14568143Y-22182535D02*
X14663381Y-22182535D01*
X14353857Y-22503964D02*
X14353857Y-21753964D01*
X14353857Y-21753964D02*
X14068143Y-22503964D01*
X14068143Y-22503964D02*
X14068143Y-21753964D01*
X13830047Y-22503964D02*
X13830047Y-21753964D01*
X13830047Y-21753964D02*
X13710999Y-21753964D01*
X13710999Y-21753964D02*
X13639571Y-21789678D01*
X13639571Y-21789678D02*
X13591952Y-21861107D01*
X13591952Y-21861107D02*
X13568142Y-21932535D01*
X13568142Y-21932535D02*
X13544333Y-22075392D01*
X13544333Y-22075392D02*
X13544333Y-22182535D01*
X13544333Y-22182535D02*
X13568142Y-22325392D01*
X13568142Y-22325392D02*
X13591952Y-22396821D01*
X13591952Y-22396821D02*
X13639571Y-22468250D01*
X13639571Y-22468250D02*
X13710999Y-22503964D01*
X13710999Y-22503964D02*
X13830047Y-22503964D01*
X29970880Y-39764107D02*
X29899452Y-39799821D01*
X29899452Y-39799821D02*
X29875642Y-39835535D01*
X29875642Y-39835535D02*
X29851833Y-39906964D01*
X29851833Y-39906964D02*
X29851833Y-40014107D01*
X29851833Y-40014107D02*
X29875642Y-40085535D01*
X29875642Y-40085535D02*
X29899452Y-40121250D01*
X29899452Y-40121250D02*
X29947071Y-40156964D01*
X29947071Y-40156964D02*
X30137547Y-40156964D01*
X30137547Y-40156964D02*
X30137547Y-39406964D01*
X30137547Y-39406964D02*
X29970880Y-39406964D01*
X29970880Y-39406964D02*
X29923261Y-39442678D01*
X29923261Y-39442678D02*
X29899452Y-39478392D01*
X29899452Y-39478392D02*
X29875642Y-39549821D01*
X29875642Y-39549821D02*
X29875642Y-39621250D01*
X29875642Y-39621250D02*
X29899452Y-39692678D01*
X29899452Y-39692678D02*
X29923261Y-39728392D01*
X29923261Y-39728392D02*
X29970880Y-39764107D01*
X29970880Y-39764107D02*
X30137547Y-39764107D01*
X29661356Y-39478392D02*
X29637547Y-39442678D01*
X29637547Y-39442678D02*
X29589928Y-39406964D01*
X29589928Y-39406964D02*
X29470880Y-39406964D01*
X29470880Y-39406964D02*
X29423261Y-39442678D01*
X29423261Y-39442678D02*
X29399452Y-39478392D01*
X29399452Y-39478392D02*
X29375642Y-39549821D01*
X29375642Y-39549821D02*
X29375642Y-39621250D01*
X29375642Y-39621250D02*
X29399452Y-39728392D01*
X29399452Y-39728392D02*
X29685166Y-40156964D01*
X29685166Y-40156964D02*
X29375642Y-40156964D01*
X14590952Y-35267464D02*
X14757618Y-34910321D01*
X14876666Y-35267464D02*
X14876666Y-34517464D01*
X14876666Y-34517464D02*
X14686190Y-34517464D01*
X14686190Y-34517464D02*
X14638571Y-34553178D01*
X14638571Y-34553178D02*
X14614761Y-34588892D01*
X14614761Y-34588892D02*
X14590952Y-34660321D01*
X14590952Y-34660321D02*
X14590952Y-34767464D01*
X14590952Y-34767464D02*
X14614761Y-34838892D01*
X14614761Y-34838892D02*
X14638571Y-34874607D01*
X14638571Y-34874607D02*
X14686190Y-34910321D01*
X14686190Y-34910321D02*
X14876666Y-34910321D01*
X14281428Y-34517464D02*
X14186190Y-34517464D01*
X14186190Y-34517464D02*
X14138571Y-34553178D01*
X14138571Y-34553178D02*
X14090952Y-34624607D01*
X14090952Y-34624607D02*
X14067142Y-34767464D01*
X14067142Y-34767464D02*
X14067142Y-35017464D01*
X14067142Y-35017464D02*
X14090952Y-35160321D01*
X14090952Y-35160321D02*
X14138571Y-35231750D01*
X14138571Y-35231750D02*
X14186190Y-35267464D01*
X14186190Y-35267464D02*
X14281428Y-35267464D01*
X14281428Y-35267464D02*
X14329047Y-35231750D01*
X14329047Y-35231750D02*
X14376666Y-35160321D01*
X14376666Y-35160321D02*
X14400475Y-35017464D01*
X14400475Y-35017464D02*
X14400475Y-34767464D01*
X14400475Y-34767464D02*
X14376666Y-34624607D01*
X14376666Y-34624607D02*
X14329047Y-34553178D01*
X14329047Y-34553178D02*
X14281428Y-34517464D01*
X13900475Y-34517464D02*
X13781427Y-35267464D01*
X13781427Y-35267464D02*
X13686189Y-34731750D01*
X13686189Y-34731750D02*
X13590951Y-35267464D01*
X13590951Y-35267464D02*
X13471904Y-34517464D01*
X13305236Y-34588892D02*
X13281427Y-34553178D01*
X13281427Y-34553178D02*
X13233808Y-34517464D01*
X13233808Y-34517464D02*
X13114760Y-34517464D01*
X13114760Y-34517464D02*
X13067141Y-34553178D01*
X13067141Y-34553178D02*
X13043332Y-34588892D01*
X13043332Y-34588892D02*
X13019522Y-34660321D01*
X13019522Y-34660321D02*
X13019522Y-34731750D01*
X13019522Y-34731750D02*
X13043332Y-34838892D01*
X13043332Y-34838892D02*
X13329046Y-35267464D01*
X13329046Y-35267464D02*
X13019522Y-35267464D01*
X30054165Y-21753964D02*
X29887499Y-22503964D01*
X29887499Y-22503964D02*
X29720832Y-21753964D01*
X29268452Y-22432535D02*
X29292261Y-22468250D01*
X29292261Y-22468250D02*
X29363690Y-22503964D01*
X29363690Y-22503964D02*
X29411309Y-22503964D01*
X29411309Y-22503964D02*
X29482737Y-22468250D01*
X29482737Y-22468250D02*
X29530356Y-22396821D01*
X29530356Y-22396821D02*
X29554166Y-22325392D01*
X29554166Y-22325392D02*
X29577975Y-22182535D01*
X29577975Y-22182535D02*
X29577975Y-22075392D01*
X29577975Y-22075392D02*
X29554166Y-21932535D01*
X29554166Y-21932535D02*
X29530356Y-21861107D01*
X29530356Y-21861107D02*
X29482737Y-21789678D01*
X29482737Y-21789678D02*
X29411309Y-21753964D01*
X29411309Y-21753964D02*
X29363690Y-21753964D01*
X29363690Y-21753964D02*
X29292261Y-21789678D01*
X29292261Y-21789678D02*
X29268452Y-21825392D01*
X28768452Y-22432535D02*
X28792261Y-22468250D01*
X28792261Y-22468250D02*
X28863690Y-22503964D01*
X28863690Y-22503964D02*
X28911309Y-22503964D01*
X28911309Y-22503964D02*
X28982737Y-22468250D01*
X28982737Y-22468250D02*
X29030356Y-22396821D01*
X29030356Y-22396821D02*
X29054166Y-22325392D01*
X29054166Y-22325392D02*
X29077975Y-22182535D01*
X29077975Y-22182535D02*
X29077975Y-22075392D01*
X29077975Y-22075392D02*
X29054166Y-21932535D01*
X29054166Y-21932535D02*
X29030356Y-21861107D01*
X29030356Y-21861107D02*
X28982737Y-21789678D01*
X28982737Y-21789678D02*
X28911309Y-21753964D01*
X28911309Y-21753964D02*
X28863690Y-21753964D01*
X28863690Y-21753964D02*
X28792261Y-21789678D01*
X28792261Y-21789678D02*
X28768452Y-21825392D01*
X14590952Y-32663964D02*
X14757618Y-32306821D01*
X14876666Y-32663964D02*
X14876666Y-31913964D01*
X14876666Y-31913964D02*
X14686190Y-31913964D01*
X14686190Y-31913964D02*
X14638571Y-31949678D01*
X14638571Y-31949678D02*
X14614761Y-31985392D01*
X14614761Y-31985392D02*
X14590952Y-32056821D01*
X14590952Y-32056821D02*
X14590952Y-32163964D01*
X14590952Y-32163964D02*
X14614761Y-32235392D01*
X14614761Y-32235392D02*
X14638571Y-32271107D01*
X14638571Y-32271107D02*
X14686190Y-32306821D01*
X14686190Y-32306821D02*
X14876666Y-32306821D01*
X14281428Y-31913964D02*
X14186190Y-31913964D01*
X14186190Y-31913964D02*
X14138571Y-31949678D01*
X14138571Y-31949678D02*
X14090952Y-32021107D01*
X14090952Y-32021107D02*
X14067142Y-32163964D01*
X14067142Y-32163964D02*
X14067142Y-32413964D01*
X14067142Y-32413964D02*
X14090952Y-32556821D01*
X14090952Y-32556821D02*
X14138571Y-32628250D01*
X14138571Y-32628250D02*
X14186190Y-32663964D01*
X14186190Y-32663964D02*
X14281428Y-32663964D01*
X14281428Y-32663964D02*
X14329047Y-32628250D01*
X14329047Y-32628250D02*
X14376666Y-32556821D01*
X14376666Y-32556821D02*
X14400475Y-32413964D01*
X14400475Y-32413964D02*
X14400475Y-32163964D01*
X14400475Y-32163964D02*
X14376666Y-32021107D01*
X14376666Y-32021107D02*
X14329047Y-31949678D01*
X14329047Y-31949678D02*
X14281428Y-31913964D01*
X13900475Y-31913964D02*
X13781427Y-32663964D01*
X13781427Y-32663964D02*
X13686189Y-32128250D01*
X13686189Y-32128250D02*
X13590951Y-32663964D01*
X13590951Y-32663964D02*
X13471904Y-31913964D01*
X13019522Y-32663964D02*
X13305236Y-32663964D01*
X13162379Y-32663964D02*
X13162379Y-31913964D01*
X13162379Y-31913964D02*
X13209998Y-32021107D01*
X13209998Y-32021107D02*
X13257617Y-32092535D01*
X13257617Y-32092535D02*
X13305236Y-32128250D01*
D10*
%TO.C,SW20*%
X121660000Y-30415000D02*
X121660000Y-36415000D01*
X121410000Y-30415000D02*
X121660000Y-30415000D01*
X118160000Y-30415000D02*
X118410000Y-30415000D01*
X121660000Y-36415000D02*
X121410000Y-36415000D01*
X118410000Y-36415000D02*
X118160000Y-36415000D01*
X118160000Y-36415000D02*
X118160000Y-30415000D01*
%TO.C,D2*%
X80730000Y-87360000D02*
X79230000Y-87360000D01*
X79230000Y-87360000D02*
X79230000Y-92760000D01*
X80480000Y-89560000D02*
X79480000Y-89560000D01*
X79980000Y-89660000D02*
X80480000Y-90560000D01*
X80480000Y-90560000D02*
X79480000Y-90560000D01*
X79480000Y-90560000D02*
X79980000Y-89660000D01*
X80730000Y-92760000D02*
X80730000Y-87360000D01*
X79230000Y-92760000D02*
X80730000Y-92760000D01*
%TO.C,SW8*%
X68044132Y-44635576D02*
X68044132Y-45635576D01*
X68044132Y-45635576D02*
X68244132Y-45635576D01*
X68044132Y-48235576D02*
X68044132Y-47875576D01*
X68044132Y-48235576D02*
X71324132Y-48235576D01*
D13*
X68144132Y-45535575D02*
X68144132Y-44635576D01*
D10*
X68244132Y-47875576D02*
X68044132Y-47875576D01*
D14*
X68244132Y-48035576D02*
X70944132Y-48035576D01*
D10*
X68274132Y-45635576D02*
X68274132Y-47875576D01*
D15*
X68644132Y-47735576D02*
X68644132Y-45935577D01*
D16*
X69774132Y-44235576D02*
X69774132Y-46475576D01*
D10*
X73544132Y-46335576D02*
X78544132Y-46335576D01*
D17*
X76544132Y-44535576D02*
X69844132Y-44535576D01*
D18*
X77844132Y-43335576D02*
X77844132Y-45835576D01*
D14*
X78244132Y-46035576D02*
X76844132Y-46035576D01*
D10*
X78324132Y-45335576D02*
X78324132Y-43085576D01*
D19*
X78344132Y-42935576D02*
X76944132Y-42935576D01*
D10*
X78344132Y-43085576D02*
X78544132Y-43085576D01*
D19*
X78344132Y-45435576D02*
X78344132Y-46135576D01*
D10*
X78544132Y-42735576D02*
X70144131Y-42735576D01*
X78544132Y-43085576D02*
X78544132Y-42735576D01*
X78544132Y-45335576D02*
X78344132Y-45335576D01*
X78544132Y-46335576D02*
X78544132Y-45335576D01*
X70144131Y-42735575D02*
G75*
G03*
X68044132Y-44635577I-100000J-1999999D01*
G01*
D18*
X73144132Y-45935576D02*
G75*
G03*
X70927814Y-47814105I-65001J-2169999D01*
G01*
D10*
X73544132Y-46335576D02*
G75*
G03*
X71327814Y-48214105I-65001J-2169999D01*
G01*
%TO.C,SW12*%
X43790649Y-71088588D02*
X43860405Y-72086152D01*
X43860405Y-72086152D02*
X44059918Y-72072201D01*
X44041772Y-74679819D02*
X44016660Y-74320696D01*
X44041772Y-74679819D02*
X47313782Y-74451018D01*
D13*
X43953186Y-71979419D02*
X43890405Y-71081613D01*
D10*
X44216172Y-74306744D02*
X44016660Y-74320696D01*
D14*
X44227333Y-74466355D02*
X46920756Y-74278012D01*
D10*
X44089845Y-72070108D02*
X44246099Y-74304652D01*
D15*
X44605432Y-74139183D02*
X44479871Y-72343569D01*
D16*
X45488532Y-70568884D02*
X45644786Y-72803427D01*
D10*
X49395837Y-72400786D02*
X54383657Y-72052004D01*
D17*
X52262967Y-70395902D02*
X45579288Y-70863270D01*
D18*
X53476093Y-69108141D02*
X53650484Y-71602052D01*
D14*
X54063461Y-71773662D02*
X52666871Y-71871321D01*
D10*
X54094437Y-71069786D02*
X53937485Y-68825267D01*
D19*
X53946972Y-68674238D02*
X52550383Y-68771897D01*
D10*
X53957436Y-68823872D02*
X54156949Y-68809921D01*
D19*
X54121364Y-71168148D02*
X54170193Y-71866443D01*
D10*
X54132534Y-68460773D02*
X45752995Y-69046728D01*
X54156949Y-68809921D02*
X54132534Y-68460773D01*
X54313901Y-71054440D02*
X54114388Y-71068391D01*
X54383657Y-72052004D02*
X54313901Y-71054440D01*
X45752995Y-69046729D02*
G75*
G03*
X43790650Y-71088589I39756J-2002101D01*
G01*
D18*
X48968909Y-72029664D02*
G75*
G03*
X46889030Y-74058219I86529J-2169247D01*
G01*
D10*
X49395837Y-72400787D02*
G75*
G03*
X47315958Y-74429342I86529J-2169247D01*
G01*
%TO.C,D15*%
X88660000Y-107520000D02*
X87160000Y-107520000D01*
X87160000Y-107520000D02*
X87160000Y-112920000D01*
X88410000Y-109720000D02*
X87410000Y-109720000D01*
X87910000Y-109820000D02*
X88410000Y-110720000D01*
X88410000Y-110720000D02*
X87410000Y-110720000D01*
X87410000Y-110720000D02*
X87910000Y-109820000D01*
X88660000Y-112920000D02*
X88660000Y-107520000D01*
X87160000Y-112920000D02*
X88660000Y-112920000D01*
%TO.C,SW10*%
X113940896Y-62961580D02*
X113819026Y-63954126D01*
X113819026Y-63954126D02*
X114017536Y-63978500D01*
X113502166Y-66534746D02*
X113546039Y-66177429D01*
X113502166Y-66534746D02*
X116757717Y-66934478D01*
D13*
X113930468Y-63867057D02*
X114040150Y-62973767D01*
D10*
X113744548Y-66201803D02*
X113546039Y-66177429D01*
D14*
X113725049Y-66360611D02*
X116404924Y-66689658D01*
D10*
X114047312Y-63982156D02*
X113774325Y-66205459D01*
D15*
X114158628Y-66111595D02*
X114377993Y-64325013D01*
D16*
X115706748Y-62775395D02*
X115433761Y-64998699D01*
D10*
X119192722Y-65319190D02*
X124155452Y-65928537D01*
D17*
X122389725Y-63898215D02*
X115739666Y-63081690D01*
D18*
X123826278Y-62865590D02*
X123521605Y-65346955D01*
D14*
X123894249Y-65594212D02*
X122504685Y-65423595D01*
D10*
X124058962Y-64909179D02*
X124333168Y-62675950D01*
D19*
X124371299Y-62529506D02*
X122981734Y-62358889D01*
D10*
X124353018Y-62678388D02*
X124551528Y-62702762D01*
D19*
X124066626Y-65010871D02*
X123981317Y-65705653D01*
D10*
X124594182Y-62355370D02*
X116256793Y-61331668D01*
X124551528Y-62702762D02*
X124594182Y-62355370D01*
X124277322Y-64935990D02*
X124078812Y-64911617D01*
X124155452Y-65928537D02*
X124277322Y-64935990D01*
X116256793Y-61331668D02*
G75*
G03*
X113940895Y-62961581I-342995J-1972902D01*
G01*
D18*
X118844451Y-64873425D02*
G75*
G03*
X116415719Y-66467849I-328973J-2145901D01*
G01*
D10*
X119192722Y-65319191D02*
G75*
G03*
X116763990Y-66913615I-328973J-2145901D01*
G01*
%TO.C,D14*%
X86010000Y-107520000D02*
X84510000Y-107520000D01*
X84510000Y-107520000D02*
X84510000Y-112920000D01*
X85760000Y-109720000D02*
X84760000Y-109720000D01*
X85260000Y-109820000D02*
X85760000Y-110720000D01*
X85760000Y-110720000D02*
X84760000Y-110720000D01*
X84760000Y-110720000D02*
X85260000Y-109820000D01*
X86010000Y-112920000D02*
X86010000Y-107520000D01*
X84510000Y-112920000D02*
X86010000Y-112920000D01*
%TO.C,SW7*%
X42420649Y-51178588D02*
X42490405Y-52176152D01*
X42490405Y-52176152D02*
X42689918Y-52162201D01*
X42671772Y-54769819D02*
X42646660Y-54410696D01*
X42671772Y-54769819D02*
X45943782Y-54541018D01*
D13*
X42583186Y-52069419D02*
X42520405Y-51171613D01*
D10*
X42846172Y-54396744D02*
X42646660Y-54410696D01*
D14*
X42857333Y-54556355D02*
X45550756Y-54368012D01*
D10*
X42719845Y-52160108D02*
X42876099Y-54394652D01*
D15*
X43235432Y-54229183D02*
X43109871Y-52433569D01*
D16*
X44118532Y-50658884D02*
X44274786Y-52893427D01*
D10*
X48025837Y-52490786D02*
X53013657Y-52142004D01*
D17*
X50892967Y-50485902D02*
X44209288Y-50953270D01*
D18*
X52106093Y-49198141D02*
X52280484Y-51692052D01*
D14*
X52693461Y-51863662D02*
X51296871Y-51961321D01*
D10*
X52724437Y-51159786D02*
X52567485Y-48915267D01*
D19*
X52576972Y-48764238D02*
X51180383Y-48861897D01*
D10*
X52587436Y-48913872D02*
X52786949Y-48899921D01*
D19*
X52751364Y-51258148D02*
X52800193Y-51956443D01*
D10*
X52762534Y-48550773D02*
X44382995Y-49136728D01*
X52786949Y-48899921D02*
X52762534Y-48550773D01*
X52943901Y-51144440D02*
X52744388Y-51158391D01*
X53013657Y-52142004D02*
X52943901Y-51144440D01*
X44382995Y-49136729D02*
G75*
G03*
X42420650Y-51178589I39756J-2002101D01*
G01*
D18*
X47598909Y-52119664D02*
G75*
G03*
X45519030Y-54148219I86529J-2169247D01*
G01*
D10*
X48025837Y-52490787D02*
G75*
G03*
X45945958Y-54519342I86529J-2169247D01*
G01*
%TO.C,D9*%
X86040000Y-97445000D02*
X84540000Y-97445000D01*
X84540000Y-97445000D02*
X84540000Y-102845000D01*
X85790000Y-99645000D02*
X84790000Y-99645000D01*
X85290000Y-99745000D02*
X85790000Y-100645000D01*
X85790000Y-100645000D02*
X84790000Y-100645000D01*
X84790000Y-100645000D02*
X85290000Y-99745000D01*
X86040000Y-102845000D02*
X86040000Y-97445000D01*
X84540000Y-102845000D02*
X86040000Y-102845000D01*
%TO.C,D17*%
X84820000Y-117890000D02*
X83320000Y-117890000D01*
X83320000Y-117890000D02*
X83320000Y-123290000D01*
X84570000Y-120090000D02*
X83570000Y-120090000D01*
X84070000Y-120190000D02*
X84570000Y-121090000D01*
X84570000Y-121090000D02*
X83570000Y-121090000D01*
X83570000Y-121090000D02*
X84070000Y-120190000D01*
X84820000Y-123290000D02*
X84820000Y-117890000D01*
X83320000Y-123290000D02*
X84820000Y-123290000D01*
%TO.C,SW16*%
X32068720Y-124372757D02*
X32327539Y-125338683D01*
X32327539Y-125338683D02*
X32520724Y-125286919D01*
X33000469Y-127850090D02*
X32907294Y-127502357D01*
X33000469Y-127850090D02*
X36168705Y-127001163D01*
D13*
X32398250Y-125216207D02*
X32165313Y-124346875D01*
D10*
X33100479Y-127450593D02*
X32907294Y-127502357D01*
D14*
X33141890Y-127605141D02*
X35749890Y-126906330D01*
D10*
X32549702Y-125279154D02*
X33129457Y-127442828D01*
D15*
X33450615Y-127211836D02*
X32984741Y-125473170D01*
D16*
X33636244Y-123538630D02*
X34215999Y-125702304D01*
D10*
X37821305Y-124591326D02*
X42650934Y-123297231D01*
D17*
X40253208Y-122076203D02*
X33781505Y-123810290D01*
D18*
X41198328Y-120580627D02*
X41845376Y-122995441D01*
D14*
X42283510Y-123085099D02*
X40931214Y-123447446D01*
D10*
X42179611Y-122388245D02*
X41597268Y-120214912D01*
D19*
X41577764Y-120064847D02*
X40225468Y-120427194D01*
D10*
X41616587Y-120209736D02*
X41809772Y-120157972D01*
D19*
X42224811Y-122479661D02*
X42405985Y-123155810D01*
D10*
X41719185Y-119819898D02*
X33605407Y-121993978D01*
X41809772Y-120157972D02*
X41719185Y-119819898D01*
X42392115Y-122331305D02*
X42198929Y-122383069D01*
X42650934Y-123297231D02*
X42392115Y-122331305D01*
X33605407Y-121993977D02*
G75*
G03*
X32068720Y-124372758I421047J-1957734D01*
G01*
D18*
X37331407Y-124308484D02*
G75*
G03*
X35676807Y-126696628I498851J-2112881D01*
G01*
D10*
X37821305Y-124591327D02*
G75*
G03*
X36166705Y-126979471I498850J-2112881D01*
G01*
%TO.C,SW17*%
X106506081Y-123275951D02*
X106213709Y-124232255D01*
X106213709Y-124232255D02*
X106404970Y-124290730D01*
X105453543Y-126718648D02*
X105558797Y-126374378D01*
X105453543Y-126718648D02*
X108590222Y-127677627D01*
D13*
X106338577Y-124165861D02*
X106601711Y-123305188D01*
D10*
X105750058Y-126432852D02*
X105558797Y-126374378D01*
D14*
X105703278Y-126585861D02*
X108285301Y-127375265D01*
D10*
X106433659Y-124299501D02*
X105778747Y-126441623D01*
D15*
X106173512Y-126415918D02*
X106699780Y-124694571D01*
D16*
X108277437Y-123399232D02*
X107622524Y-125541354D01*
D10*
X111268725Y-126509713D02*
X116050249Y-127971572D01*
D17*
X114663909Y-125665480D02*
X108256667Y-123706589D01*
D18*
X116257951Y-124897997D02*
X115527022Y-127288759D01*
D14*
X115851069Y-127596969D02*
X114512242Y-127187648D01*
D10*
X116132234Y-126950945D02*
X116790070Y-124799259D01*
D19*
X116853052Y-124661661D02*
X115514225Y-124252341D01*
D10*
X116809196Y-124805107D02*
X117000457Y-124863581D01*
D19*
X116122123Y-127052423D02*
X115917462Y-127721836D01*
D10*
X117102787Y-124528874D02*
X109069826Y-122072952D01*
X117000457Y-124863581D02*
X117102787Y-124528874D01*
X116342621Y-127015267D02*
X116151360Y-126956792D01*
X116050249Y-127971572D02*
X116342621Y-127015267D01*
X109069826Y-122072953D02*
G75*
G03*
X106506081Y-123275952I-680373J-1883371D01*
G01*
D18*
X111003151Y-126010244D02*
G75*
G03*
X108334449Y-127158700I-696605J-2056177D01*
G01*
D10*
X111268725Y-126509714D02*
G75*
G03*
X108600022Y-127658171I-696607J-2056175D01*
G01*
%TO.C,D5*%
X88680000Y-87360000D02*
X87180000Y-87360000D01*
X87180000Y-87360000D02*
X87180000Y-92760000D01*
X88430000Y-89560000D02*
X87430000Y-89560000D01*
X87930000Y-89660000D02*
X88430000Y-90560000D01*
X88430000Y-90560000D02*
X87430000Y-90560000D01*
X87430000Y-90560000D02*
X87930000Y-89660000D01*
X88680000Y-92760000D02*
X88680000Y-87360000D01*
X87180000Y-92760000D02*
X88680000Y-92760000D01*
%TO.C,SW9*%
X93246215Y-53109242D02*
X93159060Y-54105437D01*
X93159060Y-54105437D02*
X93358298Y-54122868D01*
X92932455Y-56695543D02*
X92963831Y-56336913D01*
X92932455Y-56695543D02*
X96199973Y-56981414D01*
D13*
X93267395Y-54014532D02*
X93345835Y-53117958D01*
D10*
X93163070Y-56354344D02*
X92963831Y-56336913D01*
D14*
X93149125Y-56513735D02*
X95838850Y-56749056D01*
D10*
X93388184Y-54125483D02*
X93192955Y-56356959D01*
D15*
X93573749Y-56249739D02*
X93730630Y-54456590D01*
D16*
X95004494Y-52861544D02*
X94809266Y-55093020D01*
D10*
X98577121Y-55282130D02*
X103558095Y-55717908D01*
D17*
X101722586Y-53750446D02*
X95048081Y-53166503D01*
D18*
X103122226Y-52668315D02*
X102904336Y-55158802D01*
D14*
X103285383Y-55392903D02*
X101890711Y-55270885D01*
D10*
X103426088Y-54702539D02*
X103622188Y-52461101D01*
D19*
X103655185Y-52313415D02*
X102260513Y-52191397D01*
D10*
X103642112Y-52462844D02*
X103841351Y-52480276D01*
D19*
X103437296Y-54803902D02*
X103376287Y-55501238D01*
D10*
X103871856Y-52131607D02*
X95503819Y-51399499D01*
X103841351Y-52480276D02*
X103871856Y-52131607D01*
X103645251Y-54721714D02*
X103446012Y-54704282D01*
X103558095Y-55717908D02*
X103645251Y-54721714D01*
X95503819Y-51399499D02*
G75*
G03*
X93246215Y-53109243I-273931J-1983672D01*
G01*
D18*
X98213506Y-54848791D02*
G75*
G03*
X95841898Y-56527005I-253882J-2156075D01*
G01*
D10*
X98577121Y-55282130D02*
G75*
G03*
X96205513Y-56960345I-253879J-2156078D01*
G01*
%TO.C,SW6*%
X19001134Y-70945890D02*
X19131660Y-71937335D01*
X19131660Y-71937335D02*
X19329949Y-71911229D01*
X19471029Y-74515091D02*
X19424039Y-74158171D01*
X19471029Y-74515091D02*
X22722968Y-74086965D01*
D13*
X19217752Y-71825136D02*
X19100279Y-70932837D01*
D10*
X19622328Y-74132066D02*
X19424039Y-74158171D01*
D14*
X19643212Y-74290697D02*
X22320113Y-73938276D01*
D10*
X19359693Y-71907314D02*
X19652071Y-74128150D01*
D15*
X20000632Y-73941053D02*
X19765685Y-72156453D01*
D16*
X20664123Y-70323501D02*
X20956502Y-72544338D01*
D10*
X24675975Y-71913452D02*
X29633200Y-71260821D01*
D17*
X27415363Y-69737273D02*
X20772682Y-70611798D01*
D18*
X28547610Y-68377855D02*
X28873925Y-70856467D01*
D14*
X29296608Y-71002545D02*
X27908586Y-71185282D01*
D10*
X29284556Y-70298092D02*
X28990872Y-68067341D01*
D19*
X28991122Y-67916014D02*
X27603099Y-68098750D01*
D10*
X29010701Y-68064730D02*
X29208990Y-68038625D01*
D19*
X29317437Y-70394626D02*
X29408806Y-71088637D01*
D10*
X29163305Y-67691619D02*
X20835168Y-68788040D01*
X29208990Y-68038625D02*
X29163305Y-67691619D01*
X29502674Y-70269376D02*
X29304385Y-70295481D01*
X29633200Y-71260821D02*
X29502674Y-70269376D01*
X20835168Y-68788040D02*
G75*
G03*
X19001134Y-70945891I161905J-1995939D01*
G01*
D18*
X24227187Y-71569085D02*
G75*
G03*
X22275027Y-73720830I218797J-2159918D01*
G01*
D10*
X24675975Y-71913454D02*
G75*
G03*
X22723816Y-74065197I218797J-2159917D01*
G01*
%TO.C,D16*%
X82170000Y-117890000D02*
X80670000Y-117890000D01*
X80670000Y-117890000D02*
X80670000Y-123290000D01*
X81920000Y-120090000D02*
X80920000Y-120090000D01*
X81420000Y-120190000D02*
X81920000Y-121090000D01*
X81920000Y-121090000D02*
X80920000Y-121090000D01*
X80920000Y-121090000D02*
X81420000Y-120190000D01*
X82170000Y-123290000D02*
X82170000Y-117890000D01*
X80670000Y-123290000D02*
X82170000Y-123290000D01*
%TO.C,D6*%
X78090000Y-97445000D02*
X76590000Y-97445000D01*
X76590000Y-97445000D02*
X76590000Y-102845000D01*
X77840000Y-99645000D02*
X76840000Y-99645000D01*
X77340000Y-99745000D02*
X77840000Y-100645000D01*
X77840000Y-100645000D02*
X76840000Y-100645000D01*
X76840000Y-100645000D02*
X77340000Y-99745000D01*
X78090000Y-102845000D02*
X78090000Y-97445000D01*
X76590000Y-102845000D02*
X78090000Y-102845000D01*
%TO.C,SW2*%
X40980649Y-31158588D02*
X41050405Y-32156152D01*
X41050405Y-32156152D02*
X41249918Y-32142201D01*
X41231772Y-34749819D02*
X41206660Y-34390696D01*
X41231772Y-34749819D02*
X44503782Y-34521018D01*
D13*
X41143186Y-32049419D02*
X41080405Y-31151613D01*
D10*
X41406172Y-34376744D02*
X41206660Y-34390696D01*
D14*
X41417333Y-34536355D02*
X44110756Y-34348012D01*
D10*
X41279845Y-32140108D02*
X41436099Y-34374652D01*
D15*
X41795432Y-34209183D02*
X41669871Y-32413569D01*
D16*
X42678532Y-30638884D02*
X42834786Y-32873427D01*
D10*
X46585837Y-32470786D02*
X51573657Y-32122004D01*
D17*
X49452967Y-30465902D02*
X42769288Y-30933270D01*
D18*
X50666093Y-29178141D02*
X50840484Y-31672052D01*
D14*
X51253461Y-31843662D02*
X49856871Y-31941321D01*
D10*
X51284437Y-31139786D02*
X51127485Y-28895267D01*
D19*
X51136972Y-28744238D02*
X49740383Y-28841897D01*
D10*
X51147436Y-28893872D02*
X51346949Y-28879921D01*
D19*
X51311364Y-31238148D02*
X51360193Y-31936443D01*
D10*
X51322534Y-28530773D02*
X42942995Y-29116728D01*
X51346949Y-28879921D02*
X51322534Y-28530773D01*
X51503901Y-31124440D02*
X51304388Y-31138391D01*
X51573657Y-32122004D02*
X51503901Y-31124440D01*
X42942995Y-29116729D02*
G75*
G03*
X40980650Y-31158589I39756J-2002101D01*
G01*
D18*
X46158909Y-32099664D02*
G75*
G03*
X44079030Y-34128219I86529J-2169247D01*
G01*
D10*
X46585837Y-32470787D02*
G75*
G03*
X44505958Y-34499342I86529J-2169247D01*
G01*
%TO.C,J1*%
X137840000Y-29540000D02*
X137840000Y-35540000D01*
X125840000Y-29540000D02*
X137840000Y-29540000D01*
X137840000Y-35540000D02*
X125840000Y-35540000D01*
X125840000Y-35540000D02*
X125840000Y-29540000D01*
%TO.C,U1*%
X15100000Y-13210000D02*
X17640000Y-13210000D01*
X15100000Y-43690000D02*
X15100000Y-13210000D01*
X17640000Y-13210000D02*
X17640000Y-43690000D01*
X17640000Y-43690000D02*
X15100000Y-43690000D01*
X30340000Y-13210000D02*
X32880000Y-13210000D01*
X30340000Y-43690000D02*
X30340000Y-13210000D01*
X32880000Y-13210000D02*
X32880000Y-43690000D01*
X32880000Y-43690000D02*
X30340000Y-43690000D01*
%TO.C,SW14*%
X96614132Y-100845576D02*
X96614132Y-101845576D01*
X96614132Y-101845576D02*
X96814132Y-101845576D01*
X96614132Y-104445576D02*
X96614132Y-104085576D01*
X96614132Y-104445576D02*
X99894132Y-104445576D01*
D13*
X96714132Y-101745575D02*
X96714132Y-100845576D01*
D10*
X96814132Y-104085576D02*
X96614132Y-104085576D01*
D14*
X96814132Y-104245576D02*
X99514132Y-104245576D01*
D10*
X96844132Y-101845576D02*
X96844132Y-104085576D01*
D15*
X97214132Y-103945576D02*
X97214132Y-102145577D01*
D16*
X98344132Y-100445576D02*
X98344132Y-102685576D01*
D10*
X102114132Y-102545576D02*
X107114132Y-102545576D01*
D17*
X105114132Y-100745576D02*
X98414132Y-100745576D01*
D18*
X106414132Y-99545576D02*
X106414132Y-102045576D01*
D14*
X106814132Y-102245576D02*
X105414132Y-102245576D01*
D10*
X106894132Y-101545576D02*
X106894132Y-99295576D01*
D19*
X106914132Y-99145576D02*
X105514132Y-99145576D01*
D10*
X106914132Y-99295576D02*
X107114132Y-99295576D01*
D19*
X106914132Y-101645576D02*
X106914132Y-102345576D01*
D10*
X107114132Y-98945576D02*
X98714131Y-98945576D01*
X107114132Y-99295576D02*
X107114132Y-98945576D01*
X107114132Y-101545576D02*
X106914132Y-101545576D01*
X107114132Y-102545576D02*
X107114132Y-101545576D01*
X98714131Y-98945575D02*
G75*
G03*
X96614132Y-100845577I-100000J-1999999D01*
G01*
D18*
X101714132Y-102145576D02*
G75*
G03*
X99497814Y-104024105I-65001J-2169999D01*
G01*
D10*
X102114132Y-102545576D02*
G75*
G03*
X99897814Y-104424105I-65001J-2169999D01*
G01*
%TO.C,SW3*%
X68024132Y-24595576D02*
X68024132Y-25595576D01*
X68024132Y-25595576D02*
X68224132Y-25595576D01*
X68024132Y-28195576D02*
X68024132Y-27835576D01*
X68024132Y-28195576D02*
X71304132Y-28195576D01*
D13*
X68124132Y-25495575D02*
X68124132Y-24595576D01*
D10*
X68224132Y-27835576D02*
X68024132Y-27835576D01*
D14*
X68224132Y-27995576D02*
X70924132Y-27995576D01*
D10*
X68254132Y-25595576D02*
X68254132Y-27835576D01*
D15*
X68624132Y-27695576D02*
X68624132Y-25895577D01*
D16*
X69754132Y-24195576D02*
X69754132Y-26435576D01*
D10*
X73524132Y-26295576D02*
X78524132Y-26295576D01*
D17*
X76524132Y-24495576D02*
X69824132Y-24495576D01*
D18*
X77824132Y-23295576D02*
X77824132Y-25795576D01*
D14*
X78224132Y-25995576D02*
X76824132Y-25995576D01*
D10*
X78304132Y-25295576D02*
X78304132Y-23045576D01*
D19*
X78324132Y-22895576D02*
X76924132Y-22895576D01*
D10*
X78324132Y-23045576D02*
X78524132Y-23045576D01*
D19*
X78324132Y-25395576D02*
X78324132Y-26095576D01*
D10*
X78524132Y-22695576D02*
X70124131Y-22695576D01*
X78524132Y-23045576D02*
X78524132Y-22695576D01*
X78524132Y-25295576D02*
X78324132Y-25295576D01*
X78524132Y-26295576D02*
X78524132Y-25295576D01*
X70124131Y-22695575D02*
G75*
G03*
X68024132Y-24595577I-100000J-1999999D01*
G01*
D18*
X73124132Y-25895576D02*
G75*
G03*
X70907814Y-27774105I-65001J-2169999D01*
G01*
D10*
X73524132Y-26295576D02*
G75*
G03*
X71307814Y-28174105I-65001J-2169999D01*
G01*
%TO.C,SW4*%
X94966215Y-33219242D02*
X94879060Y-34215437D01*
X94879060Y-34215437D02*
X95078298Y-34232868D01*
X94652455Y-36805543D02*
X94683831Y-36446913D01*
X94652455Y-36805543D02*
X97919973Y-37091414D01*
D13*
X94987395Y-34124532D02*
X95065835Y-33227958D01*
D10*
X94883070Y-36464344D02*
X94683831Y-36446913D01*
D14*
X94869125Y-36623735D02*
X97558850Y-36859056D01*
D10*
X95108184Y-34235483D02*
X94912955Y-36466959D01*
D15*
X95293749Y-36359739D02*
X95450630Y-34566590D01*
D16*
X96724494Y-32971544D02*
X96529266Y-35203020D01*
D10*
X100297121Y-35392130D02*
X105278095Y-35827908D01*
D17*
X103442586Y-33860446D02*
X96768081Y-33276503D01*
D18*
X104842226Y-32778315D02*
X104624336Y-35268802D01*
D14*
X105005383Y-35502903D02*
X103610711Y-35380885D01*
D10*
X105146088Y-34812539D02*
X105342188Y-32571101D01*
D19*
X105375185Y-32423415D02*
X103980513Y-32301397D01*
D10*
X105362112Y-32572844D02*
X105561351Y-32590276D01*
D19*
X105157296Y-34913902D02*
X105096287Y-35611238D01*
D10*
X105591856Y-32241607D02*
X97223819Y-31509499D01*
X105561351Y-32590276D02*
X105591856Y-32241607D01*
X105365251Y-34831714D02*
X105166012Y-34814282D01*
X105278095Y-35827908D02*
X105365251Y-34831714D01*
X97223819Y-31509499D02*
G75*
G03*
X94966215Y-33219243I-273931J-1983672D01*
G01*
D18*
X99933506Y-34958791D02*
G75*
G03*
X97561898Y-36637005I-253882J-2156075D01*
G01*
D10*
X100297121Y-35392130D02*
G75*
G03*
X97925513Y-37070345I-253879J-2156078D01*
G01*
%TO.C,SW11*%
X21591134Y-90745890D02*
X21721660Y-91737335D01*
X21721660Y-91737335D02*
X21919949Y-91711229D01*
X22061029Y-94315091D02*
X22014039Y-93958171D01*
X22061029Y-94315091D02*
X25312968Y-93886965D01*
D13*
X21807752Y-91625136D02*
X21690279Y-90732837D01*
D10*
X22212328Y-93932066D02*
X22014039Y-93958171D01*
D14*
X22233212Y-94090697D02*
X24910113Y-93738276D01*
D10*
X21949693Y-91707314D02*
X22242071Y-93928150D01*
D15*
X22590632Y-93741053D02*
X22355685Y-91956453D01*
D16*
X23254123Y-90123501D02*
X23546502Y-92344338D01*
D10*
X27265975Y-91713452D02*
X32223200Y-91060821D01*
D17*
X30005363Y-89537273D02*
X23362682Y-90411798D01*
D18*
X31137610Y-88177855D02*
X31463925Y-90656467D01*
D14*
X31886608Y-90802545D02*
X30498586Y-90985282D01*
D10*
X31874556Y-90098092D02*
X31580872Y-87867341D01*
D19*
X31581122Y-87716014D02*
X30193099Y-87898750D01*
D10*
X31600701Y-87864730D02*
X31798990Y-87838625D01*
D19*
X31907437Y-90194626D02*
X31998806Y-90888637D01*
D10*
X31753305Y-87491619D02*
X23425168Y-88588040D01*
X31798990Y-87838625D02*
X31753305Y-87491619D01*
X32092674Y-90069376D02*
X31894385Y-90095481D01*
X32223200Y-91060821D02*
X32092674Y-90069376D01*
X23425168Y-88588040D02*
G75*
G03*
X21591134Y-90745891I161905J-1995939D01*
G01*
D18*
X26817187Y-91369085D02*
G75*
G03*
X24865027Y-93520830I218797J-2159918D01*
G01*
D10*
X27265975Y-91713454D02*
G75*
G03*
X25313816Y-93865197I218797J-2159917D01*
G01*
%TO.C,D4*%
X86030000Y-87360000D02*
X84530000Y-87360000D01*
X84530000Y-87360000D02*
X84530000Y-92760000D01*
X85780000Y-89560000D02*
X84780000Y-89560000D01*
X85280000Y-89660000D02*
X85780000Y-90560000D01*
X85780000Y-90560000D02*
X84780000Y-90560000D01*
X84780000Y-90560000D02*
X85280000Y-89660000D01*
X86030000Y-92760000D02*
X86030000Y-87360000D01*
X84530000Y-92760000D02*
X86030000Y-92760000D01*
%TO.C,SW13*%
X68054132Y-64645576D02*
X68054132Y-65645576D01*
X68054132Y-65645576D02*
X68254132Y-65645576D01*
X68054132Y-68245576D02*
X68054132Y-67885576D01*
X68054132Y-68245576D02*
X71334132Y-68245576D01*
D13*
X68154132Y-65545575D02*
X68154132Y-64645576D01*
D10*
X68254132Y-67885576D02*
X68054132Y-67885576D01*
D14*
X68254132Y-68045576D02*
X70954132Y-68045576D01*
D10*
X68284132Y-65645576D02*
X68284132Y-67885576D01*
D15*
X68654132Y-67745576D02*
X68654132Y-65945577D01*
D16*
X69784132Y-64245576D02*
X69784132Y-66485576D01*
D10*
X73554132Y-66345576D02*
X78554132Y-66345576D01*
D17*
X76554132Y-64545576D02*
X69854132Y-64545576D01*
D18*
X77854132Y-63345576D02*
X77854132Y-65845576D01*
D14*
X78254132Y-66045576D02*
X76854132Y-66045576D01*
D10*
X78334132Y-65345576D02*
X78334132Y-63095576D01*
D19*
X78354132Y-62945576D02*
X76954132Y-62945576D01*
D10*
X78354132Y-63095576D02*
X78554132Y-63095576D01*
D19*
X78354132Y-65445576D02*
X78354132Y-66145576D01*
D10*
X78554132Y-62745576D02*
X70154131Y-62745576D01*
X78554132Y-63095576D02*
X78554132Y-62745576D01*
X78554132Y-65345576D02*
X78354132Y-65345576D01*
X78554132Y-66345576D02*
X78554132Y-65345576D01*
X70154131Y-62745575D02*
G75*
G03*
X68054132Y-64645577I-100000J-1999999D01*
G01*
D18*
X73154132Y-65945576D02*
G75*
G03*
X70937814Y-67824105I-65001J-2169999D01*
G01*
D10*
X73554132Y-66345576D02*
G75*
G03*
X71337814Y-68224105I-65001J-2169999D01*
G01*
%TO.C,D12*%
X80710000Y-107520000D02*
X79210000Y-107520000D01*
X79210000Y-107520000D02*
X79210000Y-112920000D01*
X80460000Y-109720000D02*
X79460000Y-109720000D01*
X79960000Y-109820000D02*
X80460000Y-110720000D01*
X80460000Y-110720000D02*
X79460000Y-110720000D01*
X79460000Y-110720000D02*
X79960000Y-109820000D01*
X80710000Y-112920000D02*
X80710000Y-107520000D01*
X79210000Y-112920000D02*
X80710000Y-112920000D01*
%TO.C,SW5*%
X116310896Y-43111580D02*
X116189026Y-44104126D01*
X116189026Y-44104126D02*
X116387536Y-44128500D01*
X115872166Y-46684746D02*
X115916039Y-46327429D01*
X115872166Y-46684746D02*
X119127717Y-47084478D01*
D13*
X116300468Y-44017057D02*
X116410150Y-43123767D01*
D10*
X116114548Y-46351803D02*
X115916039Y-46327429D01*
D14*
X116095049Y-46510611D02*
X118774924Y-46839658D01*
D10*
X116417312Y-44132156D02*
X116144325Y-46355459D01*
D15*
X116528628Y-46261595D02*
X116747993Y-44475013D01*
D16*
X118076748Y-42925395D02*
X117803761Y-45148699D01*
D10*
X121562722Y-45469190D02*
X126525452Y-46078537D01*
D17*
X124759725Y-44048215D02*
X118109666Y-43231690D01*
D18*
X126196278Y-43015590D02*
X125891605Y-45496955D01*
D14*
X126264249Y-45744212D02*
X124874685Y-45573595D01*
D10*
X126428962Y-45059179D02*
X126703168Y-42825950D01*
D19*
X126741299Y-42679506D02*
X125351734Y-42508889D01*
D10*
X126723018Y-42828388D02*
X126921528Y-42852762D01*
D19*
X126436626Y-45160871D02*
X126351317Y-45855653D01*
D10*
X126964182Y-42505370D02*
X118626793Y-41481668D01*
X126921528Y-42852762D02*
X126964182Y-42505370D01*
X126647322Y-45085990D02*
X126448812Y-45061617D01*
X126525452Y-46078537D02*
X126647322Y-45085990D01*
X118626793Y-41481668D02*
G75*
G03*
X116310895Y-43111581I-342995J-1972902D01*
G01*
D18*
X121214451Y-45023425D02*
G75*
G03*
X118785719Y-46617849I-328973J-2145901D01*
G01*
D10*
X121562722Y-45469191D02*
G75*
G03*
X119133990Y-47063615I-328973J-2145901D01*
G01*
%TO.C,D7*%
X80740000Y-97445000D02*
X79240000Y-97445000D01*
X79240000Y-97445000D02*
X79240000Y-102845000D01*
X80490000Y-99645000D02*
X79490000Y-99645000D01*
X79990000Y-99745000D02*
X80490000Y-100645000D01*
X80490000Y-100645000D02*
X79490000Y-100645000D01*
X79490000Y-100645000D02*
X79990000Y-99745000D01*
X80740000Y-102845000D02*
X80740000Y-97445000D01*
X79240000Y-102845000D02*
X80740000Y-102845000D01*
%TO.C,SW1*%
X16371134Y-51135890D02*
X16501660Y-52127335D01*
X16501660Y-52127335D02*
X16699949Y-52101229D01*
X16841029Y-54705091D02*
X16794039Y-54348171D01*
X16841029Y-54705091D02*
X20092968Y-54276965D01*
D13*
X16587752Y-52015136D02*
X16470279Y-51122837D01*
D10*
X16992328Y-54322066D02*
X16794039Y-54348171D01*
D14*
X17013212Y-54480697D02*
X19690113Y-54128276D01*
D10*
X16729693Y-52097314D02*
X17022071Y-54318150D01*
D15*
X17370632Y-54131053D02*
X17135685Y-52346453D01*
D16*
X18034123Y-50513501D02*
X18326502Y-52734338D01*
D10*
X22045975Y-52103452D02*
X27003200Y-51450821D01*
D17*
X24785363Y-49927273D02*
X18142682Y-50801798D01*
D18*
X25917610Y-48567855D02*
X26243925Y-51046467D01*
D14*
X26666608Y-51192545D02*
X25278586Y-51375282D01*
D10*
X26654556Y-50488092D02*
X26360872Y-48257341D01*
D19*
X26361122Y-48106014D02*
X24973099Y-48288750D01*
D10*
X26380701Y-48254730D02*
X26578990Y-48228625D01*
D19*
X26687437Y-50584626D02*
X26778806Y-51278637D01*
D10*
X26533305Y-47881619D02*
X18205168Y-48978040D01*
X26578990Y-48228625D02*
X26533305Y-47881619D01*
X26872674Y-50459376D02*
X26674385Y-50485481D01*
X27003200Y-51450821D02*
X26872674Y-50459376D01*
X18205168Y-48978040D02*
G75*
G03*
X16371134Y-51135891I161905J-1995939D01*
G01*
D18*
X21597187Y-51759085D02*
G75*
G03*
X19645027Y-53910830I218797J-2159918D01*
G01*
D10*
X22045975Y-52103454D02*
G75*
G03*
X20093816Y-54255197I218797J-2159917D01*
G01*
%TO.C,D10*%
X88690000Y-97445000D02*
X87190000Y-97445000D01*
X87190000Y-97445000D02*
X87190000Y-102845000D01*
X88440000Y-99645000D02*
X87440000Y-99645000D01*
X87940000Y-99745000D02*
X88440000Y-100645000D01*
X88440000Y-100645000D02*
X87440000Y-100645000D01*
X87440000Y-100645000D02*
X87940000Y-99745000D01*
X88690000Y-102845000D02*
X88690000Y-97445000D01*
X87190000Y-102845000D02*
X88690000Y-102845000D01*
%TO.C,D1*%
X78080000Y-87360000D02*
X76580000Y-87360000D01*
X76580000Y-87360000D02*
X76580000Y-92760000D01*
X77830000Y-89560000D02*
X76830000Y-89560000D01*
X77330000Y-89660000D02*
X77830000Y-90560000D01*
X77830000Y-90560000D02*
X76830000Y-90560000D01*
X76830000Y-90560000D02*
X77330000Y-89660000D01*
X78080000Y-92760000D02*
X78080000Y-87360000D01*
X76580000Y-92760000D02*
X78080000Y-92760000D01*
%TO.C,D13*%
X83360000Y-107520000D02*
X81860000Y-107520000D01*
X81860000Y-107520000D02*
X81860000Y-112920000D01*
X83110000Y-109720000D02*
X82110000Y-109720000D01*
X82610000Y-109820000D02*
X83110000Y-110720000D01*
X83110000Y-110720000D02*
X82110000Y-110720000D01*
X82110000Y-110720000D02*
X82610000Y-109820000D01*
X83360000Y-112920000D02*
X83360000Y-107520000D01*
X81860000Y-112920000D02*
X83360000Y-112920000D01*
%TO.C,SW15*%
X121792013Y-102290477D02*
X121635578Y-103278166D01*
X121635578Y-103278166D02*
X121833116Y-103309453D01*
X121228849Y-105846155D02*
X121285165Y-105490588D01*
X121228849Y-105846155D02*
X124468466Y-106359261D01*
D13*
X121749991Y-103195039D02*
X121890782Y-102306121D01*
D10*
X121482703Y-105521875D02*
X121285165Y-105490588D01*
D14*
X121457673Y-105679905D02*
X124124432Y-106102278D01*
D10*
X121862747Y-103314146D02*
X121512333Y-105526568D01*
D15*
X121899679Y-105446172D02*
X122181261Y-103668334D01*
D16*
X123563287Y-102166034D02*
X123212874Y-104378456D01*
D10*
X126958360Y-104829937D02*
X131896802Y-105612110D01*
D17*
X130203007Y-103521402D02*
X123585495Y-102473291D01*
D18*
X131674723Y-102539540D02*
X131283637Y-105008761D01*
D14*
X131647426Y-105268873D02*
X130264662Y-105049864D01*
D10*
X131835945Y-104590006D02*
X132187922Y-102367707D01*
D19*
X132231141Y-102222682D02*
X130848378Y-102003674D01*
D10*
X132207676Y-102370836D02*
X132405214Y-102402122D01*
D19*
X131840055Y-104691903D02*
X131730551Y-105383285D01*
D10*
X132459966Y-102056431D02*
X124163383Y-100742382D01*
X132405214Y-102402122D02*
X132459966Y-102056431D01*
X132053236Y-104624421D02*
X131855699Y-104593134D01*
X131896802Y-105612110D02*
X132053236Y-104624421D01*
X124163383Y-100742382D02*
G75*
G03*
X121792014Y-102290478I-411638J-1959731D01*
G01*
D18*
X126625859Y-104372289D02*
G75*
G03*
X124142961Y-105880981I-403662J-2133116D01*
G01*
D10*
X126958360Y-104829938D02*
G75*
G03*
X124475462Y-106338630I-403663J-2133114D01*
G01*
%TO.C,D11*%
X78060000Y-107520000D02*
X76560000Y-107520000D01*
X76560000Y-107520000D02*
X76560000Y-112920000D01*
X77810000Y-109720000D02*
X76810000Y-109720000D01*
X77310000Y-109820000D02*
X77810000Y-110720000D01*
X77810000Y-110720000D02*
X76810000Y-110720000D01*
X76810000Y-110720000D02*
X77310000Y-109820000D01*
X78060000Y-112920000D02*
X78060000Y-107520000D01*
X76560000Y-112920000D02*
X78060000Y-112920000D01*
%TO.C,D3*%
X83380000Y-87360000D02*
X81880000Y-87360000D01*
X81880000Y-87360000D02*
X81880000Y-92760000D01*
X83130000Y-89560000D02*
X82130000Y-89560000D01*
X82630000Y-89660000D02*
X83130000Y-90560000D01*
X83130000Y-90560000D02*
X82130000Y-90560000D01*
X82130000Y-90560000D02*
X82630000Y-89660000D01*
X83380000Y-92760000D02*
X83380000Y-87360000D01*
X81880000Y-92760000D02*
X83380000Y-92760000D01*
%TO.C,D8*%
X83390000Y-97445000D02*
X81890000Y-97445000D01*
X81890000Y-97445000D02*
X81890000Y-102845000D01*
X83140000Y-99645000D02*
X82140000Y-99645000D01*
X82640000Y-99745000D02*
X83140000Y-100645000D01*
X83140000Y-100645000D02*
X82140000Y-100645000D01*
X82140000Y-100645000D02*
X82640000Y-99745000D01*
X83390000Y-102845000D02*
X83390000Y-97445000D01*
X81890000Y-102845000D02*
X83390000Y-102845000D01*
%TD*%
M02*
