%TF.GenerationSoftware,KiCad,Pcbnew,7.0.7*%
%TF.CreationDate,2024-05-22T00:05:12+09:00*%
%TF.ProjectId,hmproto34,686d7072-6f74-46f3-9334-2e6b69636164,rev?*%
%TF.SameCoordinates,Original*%
%TF.FileFunction,Paste,Bot*%
%TF.FilePolarity,Positive*%
%FSLAX46Y46*%
G04 Gerber Fmt 4.6, Leading zero omitted, Abs format (unit mm)*
G04 Created by KiCad (PCBNEW 7.0.7) date 2024-05-22 00:05:12*
%MOMM*%
%LPD*%
G01*
G04 APERTURE LIST*
G04 Aperture macros list*
%AMRotRect*
0 Rectangle, with rotation*
0 The origin of the aperture is its center*
0 $1 length*
0 $2 width*
0 $3 Rotation angle, in degrees counterclockwise*
0 Add horizontal line*
21,1,$1,$2,0,0,$3*%
G04 Aperture macros list end*
%ADD10R,0.950000X1.300000*%
%ADD11R,2.300000X2.000000*%
%ADD12RotRect,2.300000X2.000000X184.000000*%
%ADD13RotRect,2.300000X2.000000X173.000000*%
%ADD14RotRect,2.300000X2.000000X195.000000*%
%ADD15RotRect,2.300000X2.000000X163.000000*%
%ADD16RotRect,2.300000X2.000000X175.000000*%
%ADD17RotRect,2.300000X2.000000X187.500000*%
%ADD18RotRect,2.300000X2.000000X171.000000*%
G04 APERTURE END LIST*
D10*
%TO.C,D2*%
X79980000Y-88285000D03*
X79980000Y-91835000D03*
%TD*%
D11*
%TO.C,SW8*%
X66944132Y-46755576D03*
X79644132Y-44215576D03*
%TD*%
D12*
%TO.C,SW12*%
X42841212Y-73280156D03*
X55333094Y-69860436D03*
%TD*%
D10*
%TO.C,D15*%
X87910000Y-108445000D03*
X87910000Y-111995000D03*
%TD*%
D13*
%TO.C,SW10*%
X112590732Y-64931722D03*
X125505616Y-63958395D03*
%TD*%
D10*
%TO.C,D14*%
X85260000Y-108445000D03*
X85260000Y-111995000D03*
%TD*%
D12*
%TO.C,SW7*%
X41471212Y-53370156D03*
X53963094Y-49950436D03*
%TD*%
D10*
%TO.C,D9*%
X85290000Y-98370000D03*
X85290000Y-101920000D03*
%TD*%
%TO.C,D17*%
X84070000Y-118815000D03*
X84070000Y-122365000D03*
%TD*%
D14*
%TO.C,SW16*%
X31554898Y-126705221D03*
X43164756Y-120964767D03*
%TD*%
D15*
%TO.C,SW17*%
X104834318Y-124981708D03*
X117722012Y-126265814D03*
%TD*%
D10*
%TO.C,D5*%
X87930000Y-88285000D03*
X87930000Y-91835000D03*
%TD*%
D16*
%TO.C,SW9*%
X91965631Y-55125303D03*
X104838679Y-53701847D03*
%TD*%
D17*
%TO.C,SW6*%
X18187260Y-73191332D03*
X30447074Y-69015379D03*
%TD*%
D10*
%TO.C,D16*%
X81420000Y-118815000D03*
X81420000Y-122365000D03*
%TD*%
%TO.C,D6*%
X77340000Y-98370000D03*
X77340000Y-101920000D03*
%TD*%
D12*
%TO.C,SW2*%
X40031212Y-33350156D03*
X52523094Y-29930436D03*
%TD*%
D11*
%TO.C,SW14*%
X95514132Y-102965576D03*
X108214132Y-100425576D03*
%TD*%
%TO.C,SW3*%
X66924132Y-26715576D03*
X79624132Y-24175576D03*
%TD*%
D16*
%TO.C,SW4*%
X93685631Y-35235303D03*
X106558679Y-33811847D03*
%TD*%
D17*
%TO.C,SW11*%
X20777260Y-92991332D03*
X33037074Y-88815379D03*
%TD*%
D10*
%TO.C,D4*%
X85280000Y-88285000D03*
X85280000Y-91835000D03*
%TD*%
D11*
%TO.C,SW13*%
X66954132Y-66765576D03*
X79654132Y-64225576D03*
%TD*%
D10*
%TO.C,D12*%
X79960000Y-108445000D03*
X79960000Y-111995000D03*
%TD*%
D13*
%TO.C,SW5*%
X114960732Y-45081722D03*
X127875616Y-44108395D03*
%TD*%
D10*
%TO.C,D7*%
X79990000Y-98370000D03*
X79990000Y-101920000D03*
%TD*%
D17*
%TO.C,SW1*%
X15557260Y-53381332D03*
X27817074Y-49205379D03*
%TD*%
D10*
%TO.C,D10*%
X87940000Y-98370000D03*
X87940000Y-101920000D03*
%TD*%
%TO.C,D1*%
X77330000Y-88285000D03*
X77330000Y-91835000D03*
%TD*%
%TO.C,D13*%
X82610000Y-108445000D03*
X82610000Y-111995000D03*
%TD*%
D18*
%TO.C,SW15*%
X120373915Y-104212299D03*
X133314900Y-103690288D03*
%TD*%
D10*
%TO.C,D11*%
X77310000Y-108445000D03*
X77310000Y-111995000D03*
%TD*%
%TO.C,D3*%
X82630000Y-88285000D03*
X82630000Y-91835000D03*
%TD*%
%TO.C,D8*%
X82640000Y-98370000D03*
X82640000Y-101920000D03*
%TD*%
M02*
