M48
; DRILL file {KiCad 7.0.7} date Mon May 13 18:26:57 2024
; FORMAT={-:-/ absolute / metric / decimal}
; #@! TF.CreationDate,2024-05-13T18:26:57+09:00
; #@! TF.GenerationSoftware,Kicad,Pcbnew,7.0.7
; #@! TF.FileFunction,Plated,1,2,PTH
FMAT,2
METRIC
; #@! TA.AperFunction,Plated,PTH,ViaDrill
T1C0.400
; #@! TA.AperFunction,Plated,PTH,ComponentDrill
T2C0.813
; #@! TA.AperFunction,Plated,PTH,ComponentDrill
T3C1.000
; #@! TA.AperFunction,Plated,PTH,ComponentDrill
T4C1.300
%
G90
G05
T1
X15.557Y-53.381
X18.187Y-73.191
X20.777Y-92.991
X27.63Y-14.48
X27.63Y-17.02
X27.63Y-19.56
X27.63Y-22.1
X27.63Y-24.64
X27.63Y-27.18
X27.63Y-29.72
X27.63Y-32.26
X27.63Y-34.8
X27.63Y-37.34
X27.63Y-39.88
X27.63Y-42.42
X27.817Y-49.205
X30.447Y-69.015
X31.555Y-126.705
X33.037Y-88.815
X40.031Y-33.35
X41.33Y-81.23
X41.33Y-84.253
X41.33Y-87.277
X41.33Y-90.3
X41.471Y-53.37
X42.841Y-73.28
X43.165Y-120.965
X52.523Y-29.93
X53.963Y-49.95
X55.333Y-69.86
X66.924Y-26.716
X66.944Y-46.756
X66.954Y-66.766
X68.95Y-93.87
X68.95Y-103.955
X68.95Y-114.03
X79.624Y-24.176
X79.644Y-44.216
X79.654Y-64.226
X89.64Y-72.71
X91.966Y-55.125
X92.961Y-52.708
X95.202Y-32.818
X95.514Y-102.966
X96.367Y-40.841
X104.834Y-124.982
X104.839Y-53.702
X106.559Y-33.812
X107.632Y-36.455
X108.214Y-100.426
X112.591Y-64.932
X114.961Y-45.082
X117.722Y-126.266
X120.374Y-104.212
X125.506Y-63.958
X127.876Y-44.108
X133.315Y-103.69
T2
X16.37Y-14.48
X16.37Y-17.02
X16.37Y-19.56
X16.37Y-22.1
X16.37Y-24.64
X16.37Y-27.18
X16.37Y-29.72
X16.37Y-32.26
X16.37Y-34.8
X16.37Y-37.34
X16.37Y-39.88
X16.37Y-42.42
X17.696Y-13.21
X17.696Y-15.75
X17.696Y-18.29
X17.696Y-20.83
X17.696Y-23.37
X17.696Y-25.91
X17.696Y-28.45
X17.696Y-30.99
X17.696Y-33.53
X17.696Y-36.07
X17.696Y-38.61
X17.696Y-41.15
X31.61Y-14.48
X31.61Y-17.02
X31.61Y-19.56
X31.61Y-22.1
X31.61Y-24.64
X31.61Y-27.18
X31.61Y-29.72
X31.61Y-32.26
X31.61Y-34.8
X31.61Y-37.34
X31.61Y-39.88
X31.61Y-42.42
X32.916Y-13.21
X32.916Y-15.75
X32.916Y-18.29
X32.916Y-20.83
X32.916Y-23.37
X32.916Y-25.91
X32.916Y-28.45
X32.916Y-30.99
X32.916Y-33.53
X32.916Y-36.07
X32.916Y-38.61
X32.916Y-41.15
X77.31Y-106.41
X77.31Y-114.03
X77.33Y-86.25
X77.33Y-93.87
X77.34Y-96.335
X77.34Y-103.955
X79.96Y-106.41
X79.96Y-114.03
X79.98Y-86.25
X79.98Y-93.87
X79.99Y-96.335
X79.99Y-103.955
X81.42Y-116.78
X81.42Y-124.4
X82.61Y-106.41
X82.61Y-114.03
X82.63Y-86.25
X82.63Y-93.87
X82.64Y-96.335
X82.64Y-103.955
X84.07Y-116.78
X84.07Y-124.4
X85.26Y-106.41
X85.26Y-114.03
X85.28Y-86.25
X85.28Y-93.87
X85.29Y-96.335
X85.29Y-103.955
X87.91Y-106.41
X87.91Y-114.03
X87.93Y-86.25
X87.93Y-93.87
X87.94Y-96.335
X87.94Y-103.955
T4
X119.91Y-30.165
X119.91Y-36.665
T3
G00X126.29Y-32.19
M15
G01X125.79Y-32.19
M16
G05
G00X126.29Y-34.64
M15
G01X125.79Y-34.64
M16
G05
G00X127.79Y-30.44
M15
G01X127.29Y-30.44
M16
G05
G00X127.79Y-36.39
M15
G01X127.29Y-36.39
M16
G05
G00X131.79Y-30.44
M15
G01X131.29Y-30.44
M16
G05
G00X131.79Y-36.39
M15
G01X131.29Y-36.39
M16
G05
G00X134.79Y-30.44
M15
G01X134.29Y-30.44
M16
G05
G00X134.79Y-36.39
M15
G01X134.29Y-36.39
M16
G05
T0
M30
