%TF.GenerationSoftware,KiCad,Pcbnew,7.0.7*%
%TF.CreationDate,2024-05-22T00:05:12+09:00*%
%TF.ProjectId,hmproto34,686d7072-6f74-46f3-9334-2e6b69636164,rev?*%
%TF.SameCoordinates,Original*%
%TF.FileFunction,Legend,Top*%
%TF.FilePolarity,Positive*%
%FSLAX46Y46*%
G04 Gerber Fmt 4.6, Leading zero omitted, Abs format (unit mm)*
G04 Created by KiCad (PCBNEW 7.0.7) date 2024-05-22 00:05:12*
%MOMM*%
%LPD*%
G01*
G04 APERTURE LIST*
%ADD10C,0.150000*%
%ADD11C,0.600000*%
%ADD12C,0.125000*%
%ADD13C,0.400000*%
%ADD14C,0.500000*%
%ADD15C,1.000000*%
%ADD16C,3.500000*%
%ADD17C,3.000000*%
%ADD18C,0.800000*%
%ADD19C,0.300000*%
%ADD20C,2.000000*%
%ADD21R,1.397000X1.397000*%
%ADD22C,1.397000*%
%ADD23C,1.900000*%
%ADD24C,4.100000*%
%ADD25C,1.200000*%
%ADD26O,2.500000X1.700000*%
%ADD27C,1.524000*%
G04 APERTURE END LIST*
D10*
X78616779Y-129929819D02*
X78616779Y-128929819D01*
X78616779Y-128929819D02*
X78997731Y-128929819D01*
X78997731Y-128929819D02*
X79092969Y-128977438D01*
X79092969Y-128977438D02*
X79140588Y-129025057D01*
X79140588Y-129025057D02*
X79188207Y-129120295D01*
X79188207Y-129120295D02*
X79188207Y-129263152D01*
X79188207Y-129263152D02*
X79140588Y-129358390D01*
X79140588Y-129358390D02*
X79092969Y-129406009D01*
X79092969Y-129406009D02*
X78997731Y-129453628D01*
X78997731Y-129453628D02*
X78616779Y-129453628D01*
X80188207Y-129834580D02*
X80140588Y-129882200D01*
X80140588Y-129882200D02*
X79997731Y-129929819D01*
X79997731Y-129929819D02*
X79902493Y-129929819D01*
X79902493Y-129929819D02*
X79759636Y-129882200D01*
X79759636Y-129882200D02*
X79664398Y-129786961D01*
X79664398Y-129786961D02*
X79616779Y-129691723D01*
X79616779Y-129691723D02*
X79569160Y-129501247D01*
X79569160Y-129501247D02*
X79569160Y-129358390D01*
X79569160Y-129358390D02*
X79616779Y-129167914D01*
X79616779Y-129167914D02*
X79664398Y-129072676D01*
X79664398Y-129072676D02*
X79759636Y-128977438D01*
X79759636Y-128977438D02*
X79902493Y-128929819D01*
X79902493Y-128929819D02*
X79997731Y-128929819D01*
X79997731Y-128929819D02*
X80140588Y-128977438D01*
X80140588Y-128977438D02*
X80188207Y-129025057D01*
X80950112Y-129406009D02*
X81092969Y-129453628D01*
X81092969Y-129453628D02*
X81140588Y-129501247D01*
X81140588Y-129501247D02*
X81188207Y-129596485D01*
X81188207Y-129596485D02*
X81188207Y-129739342D01*
X81188207Y-129739342D02*
X81140588Y-129834580D01*
X81140588Y-129834580D02*
X81092969Y-129882200D01*
X81092969Y-129882200D02*
X80997731Y-129929819D01*
X80997731Y-129929819D02*
X80616779Y-129929819D01*
X80616779Y-129929819D02*
X80616779Y-128929819D01*
X80616779Y-128929819D02*
X80950112Y-128929819D01*
X80950112Y-128929819D02*
X81045350Y-128977438D01*
X81045350Y-128977438D02*
X81092969Y-129025057D01*
X81092969Y-129025057D02*
X81140588Y-129120295D01*
X81140588Y-129120295D02*
X81140588Y-129215533D01*
X81140588Y-129215533D02*
X81092969Y-129310771D01*
X81092969Y-129310771D02*
X81045350Y-129358390D01*
X81045350Y-129358390D02*
X80950112Y-129406009D01*
X80950112Y-129406009D02*
X80616779Y-129406009D01*
X82807255Y-129929819D02*
X82807255Y-128929819D01*
X82807255Y-129882200D02*
X82712017Y-129929819D01*
X82712017Y-129929819D02*
X82521541Y-129929819D01*
X82521541Y-129929819D02*
X82426303Y-129882200D01*
X82426303Y-129882200D02*
X82378684Y-129834580D01*
X82378684Y-129834580D02*
X82331065Y-129739342D01*
X82331065Y-129739342D02*
X82331065Y-129453628D01*
X82331065Y-129453628D02*
X82378684Y-129358390D01*
X82378684Y-129358390D02*
X82426303Y-129310771D01*
X82426303Y-129310771D02*
X82521541Y-129263152D01*
X82521541Y-129263152D02*
X82712017Y-129263152D01*
X82712017Y-129263152D02*
X82807255Y-129310771D01*
X83664398Y-129882200D02*
X83569160Y-129929819D01*
X83569160Y-129929819D02*
X83378684Y-129929819D01*
X83378684Y-129929819D02*
X83283446Y-129882200D01*
X83283446Y-129882200D02*
X83235827Y-129786961D01*
X83235827Y-129786961D02*
X83235827Y-129406009D01*
X83235827Y-129406009D02*
X83283446Y-129310771D01*
X83283446Y-129310771D02*
X83378684Y-129263152D01*
X83378684Y-129263152D02*
X83569160Y-129263152D01*
X83569160Y-129263152D02*
X83664398Y-129310771D01*
X83664398Y-129310771D02*
X83712017Y-129406009D01*
X83712017Y-129406009D02*
X83712017Y-129501247D01*
X83712017Y-129501247D02*
X83235827Y-129596485D01*
X84092970Y-129882200D02*
X84188208Y-129929819D01*
X84188208Y-129929819D02*
X84378684Y-129929819D01*
X84378684Y-129929819D02*
X84473922Y-129882200D01*
X84473922Y-129882200D02*
X84521541Y-129786961D01*
X84521541Y-129786961D02*
X84521541Y-129739342D01*
X84521541Y-129739342D02*
X84473922Y-129644104D01*
X84473922Y-129644104D02*
X84378684Y-129596485D01*
X84378684Y-129596485D02*
X84235827Y-129596485D01*
X84235827Y-129596485D02*
X84140589Y-129548866D01*
X84140589Y-129548866D02*
X84092970Y-129453628D01*
X84092970Y-129453628D02*
X84092970Y-129406009D01*
X84092970Y-129406009D02*
X84140589Y-129310771D01*
X84140589Y-129310771D02*
X84235827Y-129263152D01*
X84235827Y-129263152D02*
X84378684Y-129263152D01*
X84378684Y-129263152D02*
X84473922Y-129310771D01*
X84950113Y-129929819D02*
X84950113Y-129263152D01*
X84950113Y-128929819D02*
X84902494Y-128977438D01*
X84902494Y-128977438D02*
X84950113Y-129025057D01*
X84950113Y-129025057D02*
X84997732Y-128977438D01*
X84997732Y-128977438D02*
X84950113Y-128929819D01*
X84950113Y-128929819D02*
X84950113Y-129025057D01*
X85854874Y-129263152D02*
X85854874Y-130072676D01*
X85854874Y-130072676D02*
X85807255Y-130167914D01*
X85807255Y-130167914D02*
X85759636Y-130215533D01*
X85759636Y-130215533D02*
X85664398Y-130263152D01*
X85664398Y-130263152D02*
X85521541Y-130263152D01*
X85521541Y-130263152D02*
X85426303Y-130215533D01*
X85854874Y-129882200D02*
X85759636Y-129929819D01*
X85759636Y-129929819D02*
X85569160Y-129929819D01*
X85569160Y-129929819D02*
X85473922Y-129882200D01*
X85473922Y-129882200D02*
X85426303Y-129834580D01*
X85426303Y-129834580D02*
X85378684Y-129739342D01*
X85378684Y-129739342D02*
X85378684Y-129453628D01*
X85378684Y-129453628D02*
X85426303Y-129358390D01*
X85426303Y-129358390D02*
X85473922Y-129310771D01*
X85473922Y-129310771D02*
X85569160Y-129263152D01*
X85569160Y-129263152D02*
X85759636Y-129263152D01*
X85759636Y-129263152D02*
X85854874Y-129310771D01*
X86331065Y-129263152D02*
X86331065Y-129929819D01*
X86331065Y-129358390D02*
X86378684Y-129310771D01*
X86378684Y-129310771D02*
X86473922Y-129263152D01*
X86473922Y-129263152D02*
X86616779Y-129263152D01*
X86616779Y-129263152D02*
X86712017Y-129310771D01*
X86712017Y-129310771D02*
X86759636Y-129406009D01*
X86759636Y-129406009D02*
X86759636Y-129929819D01*
X87616779Y-129882200D02*
X87521541Y-129929819D01*
X87521541Y-129929819D02*
X87331065Y-129929819D01*
X87331065Y-129929819D02*
X87235827Y-129882200D01*
X87235827Y-129882200D02*
X87188208Y-129786961D01*
X87188208Y-129786961D02*
X87188208Y-129406009D01*
X87188208Y-129406009D02*
X87235827Y-129310771D01*
X87235827Y-129310771D02*
X87331065Y-129263152D01*
X87331065Y-129263152D02*
X87521541Y-129263152D01*
X87521541Y-129263152D02*
X87616779Y-129310771D01*
X87616779Y-129310771D02*
X87664398Y-129406009D01*
X87664398Y-129406009D02*
X87664398Y-129501247D01*
X87664398Y-129501247D02*
X87188208Y-129596485D01*
X88521541Y-129929819D02*
X88521541Y-128929819D01*
X88521541Y-129882200D02*
X88426303Y-129929819D01*
X88426303Y-129929819D02*
X88235827Y-129929819D01*
X88235827Y-129929819D02*
X88140589Y-129882200D01*
X88140589Y-129882200D02*
X88092970Y-129834580D01*
X88092970Y-129834580D02*
X88045351Y-129739342D01*
X88045351Y-129739342D02*
X88045351Y-129453628D01*
X88045351Y-129453628D02*
X88092970Y-129358390D01*
X88092970Y-129358390D02*
X88140589Y-129310771D01*
X88140589Y-129310771D02*
X88235827Y-129263152D01*
X88235827Y-129263152D02*
X88426303Y-129263152D01*
X88426303Y-129263152D02*
X88521541Y-129310771D01*
X89759637Y-129929819D02*
X89759637Y-128929819D01*
X89759637Y-129310771D02*
X89854875Y-129263152D01*
X89854875Y-129263152D02*
X90045351Y-129263152D01*
X90045351Y-129263152D02*
X90140589Y-129310771D01*
X90140589Y-129310771D02*
X90188208Y-129358390D01*
X90188208Y-129358390D02*
X90235827Y-129453628D01*
X90235827Y-129453628D02*
X90235827Y-129739342D01*
X90235827Y-129739342D02*
X90188208Y-129834580D01*
X90188208Y-129834580D02*
X90140589Y-129882200D01*
X90140589Y-129882200D02*
X90045351Y-129929819D01*
X90045351Y-129929819D02*
X89854875Y-129929819D01*
X89854875Y-129929819D02*
X89759637Y-129882200D01*
X90569161Y-129263152D02*
X90807256Y-129929819D01*
X91045351Y-129263152D02*
X90807256Y-129929819D01*
X90807256Y-129929819D02*
X90712018Y-130167914D01*
X90712018Y-130167914D02*
X90664399Y-130215533D01*
X90664399Y-130215533D02*
X90569161Y-130263152D01*
X92188209Y-129929819D02*
X92188209Y-128929819D01*
X92616780Y-129929819D02*
X92616780Y-129406009D01*
X92616780Y-129406009D02*
X92569161Y-129310771D01*
X92569161Y-129310771D02*
X92473923Y-129263152D01*
X92473923Y-129263152D02*
X92331066Y-129263152D01*
X92331066Y-129263152D02*
X92235828Y-129310771D01*
X92235828Y-129310771D02*
X92188209Y-129358390D01*
X93092971Y-129929819D02*
X93092971Y-129263152D01*
X93092971Y-129358390D02*
X93140590Y-129310771D01*
X93140590Y-129310771D02*
X93235828Y-129263152D01*
X93235828Y-129263152D02*
X93378685Y-129263152D01*
X93378685Y-129263152D02*
X93473923Y-129310771D01*
X93473923Y-129310771D02*
X93521542Y-129406009D01*
X93521542Y-129406009D02*
X93521542Y-129929819D01*
X93521542Y-129406009D02*
X93569161Y-129310771D01*
X93569161Y-129310771D02*
X93664399Y-129263152D01*
X93664399Y-129263152D02*
X93807256Y-129263152D01*
X93807256Y-129263152D02*
X93902495Y-129310771D01*
X93902495Y-129310771D02*
X93950114Y-129406009D01*
X93950114Y-129406009D02*
X93950114Y-129929819D01*
X94854875Y-129929819D02*
X94854875Y-129406009D01*
X94854875Y-129406009D02*
X94807256Y-129310771D01*
X94807256Y-129310771D02*
X94712018Y-129263152D01*
X94712018Y-129263152D02*
X94521542Y-129263152D01*
X94521542Y-129263152D02*
X94426304Y-129310771D01*
X94854875Y-129882200D02*
X94759637Y-129929819D01*
X94759637Y-129929819D02*
X94521542Y-129929819D01*
X94521542Y-129929819D02*
X94426304Y-129882200D01*
X94426304Y-129882200D02*
X94378685Y-129786961D01*
X94378685Y-129786961D02*
X94378685Y-129691723D01*
X94378685Y-129691723D02*
X94426304Y-129596485D01*
X94426304Y-129596485D02*
X94521542Y-129548866D01*
X94521542Y-129548866D02*
X94759637Y-129548866D01*
X94759637Y-129548866D02*
X94854875Y-129501247D01*
X95283447Y-129882200D02*
X95378685Y-129929819D01*
X95378685Y-129929819D02*
X95569161Y-129929819D01*
X95569161Y-129929819D02*
X95664399Y-129882200D01*
X95664399Y-129882200D02*
X95712018Y-129786961D01*
X95712018Y-129786961D02*
X95712018Y-129739342D01*
X95712018Y-129739342D02*
X95664399Y-129644104D01*
X95664399Y-129644104D02*
X95569161Y-129596485D01*
X95569161Y-129596485D02*
X95426304Y-129596485D01*
X95426304Y-129596485D02*
X95331066Y-129548866D01*
X95331066Y-129548866D02*
X95283447Y-129453628D01*
X95283447Y-129453628D02*
X95283447Y-129406009D01*
X95283447Y-129406009D02*
X95331066Y-129310771D01*
X95331066Y-129310771D02*
X95426304Y-129263152D01*
X95426304Y-129263152D02*
X95569161Y-129263152D01*
X95569161Y-129263152D02*
X95664399Y-129310771D01*
X96569161Y-129929819D02*
X96569161Y-128929819D01*
X96569161Y-129882200D02*
X96473923Y-129929819D01*
X96473923Y-129929819D02*
X96283447Y-129929819D01*
X96283447Y-129929819D02*
X96188209Y-129882200D01*
X96188209Y-129882200D02*
X96140590Y-129834580D01*
X96140590Y-129834580D02*
X96092971Y-129739342D01*
X96092971Y-129739342D02*
X96092971Y-129453628D01*
X96092971Y-129453628D02*
X96140590Y-129358390D01*
X96140590Y-129358390D02*
X96188209Y-129310771D01*
X96188209Y-129310771D02*
X96283447Y-129263152D01*
X96283447Y-129263152D02*
X96473923Y-129263152D01*
X96473923Y-129263152D02*
X96569161Y-129310771D01*
X97426304Y-129882200D02*
X97331066Y-129929819D01*
X97331066Y-129929819D02*
X97140590Y-129929819D01*
X97140590Y-129929819D02*
X97045352Y-129882200D01*
X97045352Y-129882200D02*
X96997733Y-129786961D01*
X96997733Y-129786961D02*
X96997733Y-129406009D01*
X96997733Y-129406009D02*
X97045352Y-129310771D01*
X97045352Y-129310771D02*
X97140590Y-129263152D01*
X97140590Y-129263152D02*
X97331066Y-129263152D01*
X97331066Y-129263152D02*
X97426304Y-129310771D01*
X97426304Y-129310771D02*
X97473923Y-129406009D01*
X97473923Y-129406009D02*
X97473923Y-129501247D01*
X97473923Y-129501247D02*
X96997733Y-129596485D01*
X97807257Y-129263152D02*
X98045352Y-129929819D01*
X98045352Y-129929819D02*
X98283447Y-129263152D01*
X94796779Y-131769819D02*
X94796779Y-131103152D01*
X94796779Y-131293628D02*
X94844398Y-131198390D01*
X94844398Y-131198390D02*
X94892017Y-131150771D01*
X94892017Y-131150771D02*
X94987255Y-131103152D01*
X94987255Y-131103152D02*
X95082493Y-131103152D01*
X95796779Y-131722200D02*
X95701541Y-131769819D01*
X95701541Y-131769819D02*
X95511065Y-131769819D01*
X95511065Y-131769819D02*
X95415827Y-131722200D01*
X95415827Y-131722200D02*
X95368208Y-131626961D01*
X95368208Y-131626961D02*
X95368208Y-131246009D01*
X95368208Y-131246009D02*
X95415827Y-131150771D01*
X95415827Y-131150771D02*
X95511065Y-131103152D01*
X95511065Y-131103152D02*
X95701541Y-131103152D01*
X95701541Y-131103152D02*
X95796779Y-131150771D01*
X95796779Y-131150771D02*
X95844398Y-131246009D01*
X95844398Y-131246009D02*
X95844398Y-131341247D01*
X95844398Y-131341247D02*
X95368208Y-131436485D01*
X96177732Y-131103152D02*
X96415827Y-131769819D01*
X96415827Y-131769819D02*
X96653922Y-131103152D01*
X98320589Y-131769819D02*
X97749161Y-131769819D01*
X98034875Y-131769819D02*
X98034875Y-130769819D01*
X98034875Y-130769819D02*
X97939637Y-130912676D01*
X97939637Y-130912676D02*
X97844399Y-131007914D01*
X97844399Y-131007914D02*
X97749161Y-131055533D01*
D11*
X53549021Y-131881657D02*
X53549021Y-128881657D01*
X54834736Y-131881657D02*
X54834736Y-130310228D01*
X54834736Y-130310228D02*
X54691878Y-130024514D01*
X54691878Y-130024514D02*
X54406164Y-129881657D01*
X54406164Y-129881657D02*
X53977593Y-129881657D01*
X53977593Y-129881657D02*
X53691878Y-130024514D01*
X53691878Y-130024514D02*
X53549021Y-130167371D01*
X56263307Y-131881657D02*
X56263307Y-129881657D01*
X56263307Y-130167371D02*
X56406164Y-130024514D01*
X56406164Y-130024514D02*
X56691879Y-129881657D01*
X56691879Y-129881657D02*
X57120450Y-129881657D01*
X57120450Y-129881657D02*
X57406164Y-130024514D01*
X57406164Y-130024514D02*
X57549022Y-130310228D01*
X57549022Y-130310228D02*
X57549022Y-131881657D01*
X57549022Y-130310228D02*
X57691879Y-130024514D01*
X57691879Y-130024514D02*
X57977593Y-129881657D01*
X57977593Y-129881657D02*
X58406164Y-129881657D01*
X58406164Y-129881657D02*
X58691879Y-130024514D01*
X58691879Y-130024514D02*
X58834736Y-130310228D01*
X58834736Y-130310228D02*
X58834736Y-131881657D01*
X60263307Y-129881657D02*
X60263307Y-132881657D01*
X60263307Y-130024514D02*
X60549022Y-129881657D01*
X60549022Y-129881657D02*
X61120450Y-129881657D01*
X61120450Y-129881657D02*
X61406164Y-130024514D01*
X61406164Y-130024514D02*
X61549022Y-130167371D01*
X61549022Y-130167371D02*
X61691879Y-130453085D01*
X61691879Y-130453085D02*
X61691879Y-131310228D01*
X61691879Y-131310228D02*
X61549022Y-131595942D01*
X61549022Y-131595942D02*
X61406164Y-131738800D01*
X61406164Y-131738800D02*
X61120450Y-131881657D01*
X61120450Y-131881657D02*
X60549022Y-131881657D01*
X60549022Y-131881657D02*
X60263307Y-131738800D01*
X62977593Y-131881657D02*
X62977593Y-129881657D01*
X62977593Y-130453085D02*
X63120450Y-130167371D01*
X63120450Y-130167371D02*
X63263308Y-130024514D01*
X63263308Y-130024514D02*
X63549022Y-129881657D01*
X63549022Y-129881657D02*
X63834736Y-129881657D01*
X65263308Y-131881657D02*
X64977593Y-131738800D01*
X64977593Y-131738800D02*
X64834736Y-131595942D01*
X64834736Y-131595942D02*
X64691879Y-131310228D01*
X64691879Y-131310228D02*
X64691879Y-130453085D01*
X64691879Y-130453085D02*
X64834736Y-130167371D01*
X64834736Y-130167371D02*
X64977593Y-130024514D01*
X64977593Y-130024514D02*
X65263308Y-129881657D01*
X65263308Y-129881657D02*
X65691879Y-129881657D01*
X65691879Y-129881657D02*
X65977593Y-130024514D01*
X65977593Y-130024514D02*
X66120451Y-130167371D01*
X66120451Y-130167371D02*
X66263308Y-130453085D01*
X66263308Y-130453085D02*
X66263308Y-131310228D01*
X66263308Y-131310228D02*
X66120451Y-131595942D01*
X66120451Y-131595942D02*
X65977593Y-131738800D01*
X65977593Y-131738800D02*
X65691879Y-131881657D01*
X65691879Y-131881657D02*
X65263308Y-131881657D01*
X67120451Y-129881657D02*
X68263308Y-129881657D01*
X67549022Y-128881657D02*
X67549022Y-131453085D01*
X67549022Y-131453085D02*
X67691879Y-131738800D01*
X67691879Y-131738800D02*
X67977594Y-131881657D01*
X67977594Y-131881657D02*
X68263308Y-131881657D01*
X69691880Y-131881657D02*
X69406165Y-131738800D01*
X69406165Y-131738800D02*
X69263308Y-131595942D01*
X69263308Y-131595942D02*
X69120451Y-131310228D01*
X69120451Y-131310228D02*
X69120451Y-130453085D01*
X69120451Y-130453085D02*
X69263308Y-130167371D01*
X69263308Y-130167371D02*
X69406165Y-130024514D01*
X69406165Y-130024514D02*
X69691880Y-129881657D01*
X69691880Y-129881657D02*
X70120451Y-129881657D01*
X70120451Y-129881657D02*
X70406165Y-130024514D01*
X70406165Y-130024514D02*
X70549023Y-130167371D01*
X70549023Y-130167371D02*
X70691880Y-130453085D01*
X70691880Y-130453085D02*
X70691880Y-131310228D01*
X70691880Y-131310228D02*
X70549023Y-131595942D01*
X70549023Y-131595942D02*
X70406165Y-131738800D01*
X70406165Y-131738800D02*
X70120451Y-131881657D01*
X70120451Y-131881657D02*
X69691880Y-131881657D01*
X71691880Y-128881657D02*
X73549023Y-128881657D01*
X73549023Y-128881657D02*
X72549023Y-130024514D01*
X72549023Y-130024514D02*
X72977594Y-130024514D01*
X72977594Y-130024514D02*
X73263309Y-130167371D01*
X73263309Y-130167371D02*
X73406166Y-130310228D01*
X73406166Y-130310228D02*
X73549023Y-130595942D01*
X73549023Y-130595942D02*
X73549023Y-131310228D01*
X73549023Y-131310228D02*
X73406166Y-131595942D01*
X73406166Y-131595942D02*
X73263309Y-131738800D01*
X73263309Y-131738800D02*
X72977594Y-131881657D01*
X72977594Y-131881657D02*
X72120451Y-131881657D01*
X72120451Y-131881657D02*
X71834737Y-131738800D01*
X71834737Y-131738800D02*
X71691880Y-131595942D01*
X76120452Y-129881657D02*
X76120452Y-131881657D01*
X75406166Y-128738800D02*
X74691880Y-130881657D01*
X74691880Y-130881657D02*
X76549023Y-130881657D01*
D10*
X120364819Y-34867381D02*
X119888628Y-35200714D01*
X120364819Y-35438809D02*
X119364819Y-35438809D01*
X119364819Y-35438809D02*
X119364819Y-35057857D01*
X119364819Y-35057857D02*
X119412438Y-34962619D01*
X119412438Y-34962619D02*
X119460057Y-34915000D01*
X119460057Y-34915000D02*
X119555295Y-34867381D01*
X119555295Y-34867381D02*
X119698152Y-34867381D01*
X119698152Y-34867381D02*
X119793390Y-34915000D01*
X119793390Y-34915000D02*
X119841009Y-34962619D01*
X119841009Y-34962619D02*
X119888628Y-35057857D01*
X119888628Y-35057857D02*
X119888628Y-35438809D01*
X119841009Y-34438809D02*
X119841009Y-34105476D01*
X120364819Y-33962619D02*
X120364819Y-34438809D01*
X120364819Y-34438809D02*
X119364819Y-34438809D01*
X119364819Y-34438809D02*
X119364819Y-33962619D01*
X120317200Y-33581666D02*
X120364819Y-33438809D01*
X120364819Y-33438809D02*
X120364819Y-33200714D01*
X120364819Y-33200714D02*
X120317200Y-33105476D01*
X120317200Y-33105476D02*
X120269580Y-33057857D01*
X120269580Y-33057857D02*
X120174342Y-33010238D01*
X120174342Y-33010238D02*
X120079104Y-33010238D01*
X120079104Y-33010238D02*
X119983866Y-33057857D01*
X119983866Y-33057857D02*
X119936247Y-33105476D01*
X119936247Y-33105476D02*
X119888628Y-33200714D01*
X119888628Y-33200714D02*
X119841009Y-33391190D01*
X119841009Y-33391190D02*
X119793390Y-33486428D01*
X119793390Y-33486428D02*
X119745771Y-33534047D01*
X119745771Y-33534047D02*
X119650533Y-33581666D01*
X119650533Y-33581666D02*
X119555295Y-33581666D01*
X119555295Y-33581666D02*
X119460057Y-33534047D01*
X119460057Y-33534047D02*
X119412438Y-33486428D01*
X119412438Y-33486428D02*
X119364819Y-33391190D01*
X119364819Y-33391190D02*
X119364819Y-33153095D01*
X119364819Y-33153095D02*
X119412438Y-33010238D01*
X119841009Y-32581666D02*
X119841009Y-32248333D01*
X120364819Y-32105476D02*
X120364819Y-32581666D01*
X120364819Y-32581666D02*
X119364819Y-32581666D01*
X119364819Y-32581666D02*
X119364819Y-32105476D01*
X119364819Y-31819761D02*
X119364819Y-31248333D01*
X120364819Y-31534047D02*
X119364819Y-31534047D01*
X130844819Y-35301904D02*
X130844819Y-34730476D01*
X131844819Y-35016190D02*
X130844819Y-35016190D01*
X131844819Y-33825714D02*
X131368628Y-34159047D01*
X131844819Y-34397142D02*
X130844819Y-34397142D01*
X130844819Y-34397142D02*
X130844819Y-34016190D01*
X130844819Y-34016190D02*
X130892438Y-33920952D01*
X130892438Y-33920952D02*
X130940057Y-33873333D01*
X130940057Y-33873333D02*
X131035295Y-33825714D01*
X131035295Y-33825714D02*
X131178152Y-33825714D01*
X131178152Y-33825714D02*
X131273390Y-33873333D01*
X131273390Y-33873333D02*
X131321009Y-33920952D01*
X131321009Y-33920952D02*
X131368628Y-34016190D01*
X131368628Y-34016190D02*
X131368628Y-34397142D01*
X131844819Y-32825714D02*
X131368628Y-33159047D01*
X131844819Y-33397142D02*
X130844819Y-33397142D01*
X130844819Y-33397142D02*
X130844819Y-33016190D01*
X130844819Y-33016190D02*
X130892438Y-32920952D01*
X130892438Y-32920952D02*
X130940057Y-32873333D01*
X130940057Y-32873333D02*
X131035295Y-32825714D01*
X131035295Y-32825714D02*
X131178152Y-32825714D01*
X131178152Y-32825714D02*
X131273390Y-32873333D01*
X131273390Y-32873333D02*
X131321009Y-32920952D01*
X131321009Y-32920952D02*
X131368628Y-33016190D01*
X131368628Y-33016190D02*
X131368628Y-33397142D01*
X131797200Y-32444761D02*
X131844819Y-32301904D01*
X131844819Y-32301904D02*
X131844819Y-32063809D01*
X131844819Y-32063809D02*
X131797200Y-31968571D01*
X131797200Y-31968571D02*
X131749580Y-31920952D01*
X131749580Y-31920952D02*
X131654342Y-31873333D01*
X131654342Y-31873333D02*
X131559104Y-31873333D01*
X131559104Y-31873333D02*
X131463866Y-31920952D01*
X131463866Y-31920952D02*
X131416247Y-31968571D01*
X131416247Y-31968571D02*
X131368628Y-32063809D01*
X131368628Y-32063809D02*
X131321009Y-32254285D01*
X131321009Y-32254285D02*
X131273390Y-32349523D01*
X131273390Y-32349523D02*
X131225771Y-32397142D01*
X131225771Y-32397142D02*
X131130533Y-32444761D01*
X131130533Y-32444761D02*
X131035295Y-32444761D01*
X131035295Y-32444761D02*
X130940057Y-32397142D01*
X130940057Y-32397142D02*
X130892438Y-32349523D01*
X130892438Y-32349523D02*
X130844819Y-32254285D01*
X130844819Y-32254285D02*
X130844819Y-32016190D01*
X130844819Y-32016190D02*
X130892438Y-31873333D01*
D12*
X29829047Y-36473964D02*
X29662381Y-36116821D01*
X29543333Y-36473964D02*
X29543333Y-35723964D01*
X29543333Y-35723964D02*
X29733809Y-35723964D01*
X29733809Y-35723964D02*
X29781428Y-35759678D01*
X29781428Y-35759678D02*
X29805238Y-35795392D01*
X29805238Y-35795392D02*
X29829047Y-35866821D01*
X29829047Y-35866821D02*
X29829047Y-35973964D01*
X29829047Y-35973964D02*
X29805238Y-36045392D01*
X29805238Y-36045392D02*
X29781428Y-36081107D01*
X29781428Y-36081107D02*
X29733809Y-36116821D01*
X29733809Y-36116821D02*
X29543333Y-36116821D01*
X30138571Y-35723964D02*
X30233809Y-35723964D01*
X30233809Y-35723964D02*
X30281428Y-35759678D01*
X30281428Y-35759678D02*
X30329047Y-35831107D01*
X30329047Y-35831107D02*
X30352857Y-35973964D01*
X30352857Y-35973964D02*
X30352857Y-36223964D01*
X30352857Y-36223964D02*
X30329047Y-36366821D01*
X30329047Y-36366821D02*
X30281428Y-36438250D01*
X30281428Y-36438250D02*
X30233809Y-36473964D01*
X30233809Y-36473964D02*
X30138571Y-36473964D01*
X30138571Y-36473964D02*
X30090952Y-36438250D01*
X30090952Y-36438250D02*
X30043333Y-36366821D01*
X30043333Y-36366821D02*
X30019524Y-36223964D01*
X30019524Y-36223964D02*
X30019524Y-35973964D01*
X30019524Y-35973964D02*
X30043333Y-35831107D01*
X30043333Y-35831107D02*
X30090952Y-35759678D01*
X30090952Y-35759678D02*
X30138571Y-35723964D01*
X30519524Y-35723964D02*
X30638572Y-36473964D01*
X30638572Y-36473964D02*
X30733810Y-35938250D01*
X30733810Y-35938250D02*
X30829048Y-36473964D01*
X30829048Y-36473964D02*
X30948096Y-35723964D01*
X31090953Y-35723964D02*
X31400477Y-35723964D01*
X31400477Y-35723964D02*
X31233810Y-36009678D01*
X31233810Y-36009678D02*
X31305239Y-36009678D01*
X31305239Y-36009678D02*
X31352858Y-36045392D01*
X31352858Y-36045392D02*
X31376667Y-36081107D01*
X31376667Y-36081107D02*
X31400477Y-36152535D01*
X31400477Y-36152535D02*
X31400477Y-36331107D01*
X31400477Y-36331107D02*
X31376667Y-36402535D01*
X31376667Y-36402535D02*
X31352858Y-36438250D01*
X31352858Y-36438250D02*
X31305239Y-36473964D01*
X31305239Y-36473964D02*
X31162382Y-36473964D01*
X31162382Y-36473964D02*
X31114763Y-36438250D01*
X31114763Y-36438250D02*
X31090953Y-36402535D01*
X14812380Y-28719035D02*
X14788571Y-28754750D01*
X14788571Y-28754750D02*
X14717142Y-28790464D01*
X14717142Y-28790464D02*
X14669523Y-28790464D01*
X14669523Y-28790464D02*
X14598095Y-28754750D01*
X14598095Y-28754750D02*
X14550476Y-28683321D01*
X14550476Y-28683321D02*
X14526666Y-28611892D01*
X14526666Y-28611892D02*
X14502857Y-28469035D01*
X14502857Y-28469035D02*
X14502857Y-28361892D01*
X14502857Y-28361892D02*
X14526666Y-28219035D01*
X14526666Y-28219035D02*
X14550476Y-28147607D01*
X14550476Y-28147607D02*
X14598095Y-28076178D01*
X14598095Y-28076178D02*
X14669523Y-28040464D01*
X14669523Y-28040464D02*
X14717142Y-28040464D01*
X14717142Y-28040464D02*
X14788571Y-28076178D01*
X14788571Y-28076178D02*
X14812380Y-28111892D01*
X15121904Y-28040464D02*
X15217142Y-28040464D01*
X15217142Y-28040464D02*
X15264761Y-28076178D01*
X15264761Y-28076178D02*
X15312380Y-28147607D01*
X15312380Y-28147607D02*
X15336190Y-28290464D01*
X15336190Y-28290464D02*
X15336190Y-28540464D01*
X15336190Y-28540464D02*
X15312380Y-28683321D01*
X15312380Y-28683321D02*
X15264761Y-28754750D01*
X15264761Y-28754750D02*
X15217142Y-28790464D01*
X15217142Y-28790464D02*
X15121904Y-28790464D01*
X15121904Y-28790464D02*
X15074285Y-28754750D01*
X15074285Y-28754750D02*
X15026666Y-28683321D01*
X15026666Y-28683321D02*
X15002857Y-28540464D01*
X15002857Y-28540464D02*
X15002857Y-28290464D01*
X15002857Y-28290464D02*
X15026666Y-28147607D01*
X15026666Y-28147607D02*
X15074285Y-28076178D01*
X15074285Y-28076178D02*
X15121904Y-28040464D01*
X15788571Y-28790464D02*
X15550476Y-28790464D01*
X15550476Y-28790464D02*
X15550476Y-28040464D01*
X15931429Y-28111892D02*
X15955238Y-28076178D01*
X15955238Y-28076178D02*
X16002857Y-28040464D01*
X16002857Y-28040464D02*
X16121905Y-28040464D01*
X16121905Y-28040464D02*
X16169524Y-28076178D01*
X16169524Y-28076178D02*
X16193333Y-28111892D01*
X16193333Y-28111892D02*
X16217143Y-28183321D01*
X16217143Y-28183321D02*
X16217143Y-28254750D01*
X16217143Y-28254750D02*
X16193333Y-28361892D01*
X16193333Y-28361892D02*
X15907619Y-28790464D01*
X15907619Y-28790464D02*
X16217143Y-28790464D01*
X30257619Y-41161107D02*
X30329047Y-41196821D01*
X30329047Y-41196821D02*
X30352857Y-41232535D01*
X30352857Y-41232535D02*
X30376666Y-41303964D01*
X30376666Y-41303964D02*
X30376666Y-41411107D01*
X30376666Y-41411107D02*
X30352857Y-41482535D01*
X30352857Y-41482535D02*
X30329047Y-41518250D01*
X30329047Y-41518250D02*
X30281428Y-41553964D01*
X30281428Y-41553964D02*
X30090952Y-41553964D01*
X30090952Y-41553964D02*
X30090952Y-40803964D01*
X30090952Y-40803964D02*
X30257619Y-40803964D01*
X30257619Y-40803964D02*
X30305238Y-40839678D01*
X30305238Y-40839678D02*
X30329047Y-40875392D01*
X30329047Y-40875392D02*
X30352857Y-40946821D01*
X30352857Y-40946821D02*
X30352857Y-41018250D01*
X30352857Y-41018250D02*
X30329047Y-41089678D01*
X30329047Y-41089678D02*
X30305238Y-41125392D01*
X30305238Y-41125392D02*
X30257619Y-41161107D01*
X30257619Y-41161107D02*
X30090952Y-41161107D01*
X30829047Y-40803964D02*
X30590952Y-40803964D01*
X30590952Y-40803964D02*
X30567143Y-41161107D01*
X30567143Y-41161107D02*
X30590952Y-41125392D01*
X30590952Y-41125392D02*
X30638571Y-41089678D01*
X30638571Y-41089678D02*
X30757619Y-41089678D01*
X30757619Y-41089678D02*
X30805238Y-41125392D01*
X30805238Y-41125392D02*
X30829047Y-41161107D01*
X30829047Y-41161107D02*
X30852857Y-41232535D01*
X30852857Y-41232535D02*
X30852857Y-41411107D01*
X30852857Y-41411107D02*
X30829047Y-41482535D01*
X30829047Y-41482535D02*
X30805238Y-41518250D01*
X30805238Y-41518250D02*
X30757619Y-41553964D01*
X30757619Y-41553964D02*
X30638571Y-41553964D01*
X30638571Y-41553964D02*
X30590952Y-41518250D01*
X30590952Y-41518250D02*
X30567143Y-41482535D01*
X30113858Y-23674750D02*
X30185286Y-23710464D01*
X30185286Y-23710464D02*
X30304334Y-23710464D01*
X30304334Y-23710464D02*
X30351953Y-23674750D01*
X30351953Y-23674750D02*
X30375762Y-23639035D01*
X30375762Y-23639035D02*
X30399572Y-23567607D01*
X30399572Y-23567607D02*
X30399572Y-23496178D01*
X30399572Y-23496178D02*
X30375762Y-23424750D01*
X30375762Y-23424750D02*
X30351953Y-23389035D01*
X30351953Y-23389035D02*
X30304334Y-23353321D01*
X30304334Y-23353321D02*
X30209096Y-23317607D01*
X30209096Y-23317607D02*
X30161477Y-23281892D01*
X30161477Y-23281892D02*
X30137667Y-23246178D01*
X30137667Y-23246178D02*
X30113858Y-23174750D01*
X30113858Y-23174750D02*
X30113858Y-23103321D01*
X30113858Y-23103321D02*
X30137667Y-23031892D01*
X30137667Y-23031892D02*
X30161477Y-22996178D01*
X30161477Y-22996178D02*
X30209096Y-22960464D01*
X30209096Y-22960464D02*
X30328143Y-22960464D01*
X30328143Y-22960464D02*
X30399572Y-22996178D01*
X30613857Y-23710464D02*
X30613857Y-22960464D01*
X30613857Y-22960464D02*
X30732905Y-22960464D01*
X30732905Y-22960464D02*
X30804333Y-22996178D01*
X30804333Y-22996178D02*
X30851952Y-23067607D01*
X30851952Y-23067607D02*
X30875762Y-23139035D01*
X30875762Y-23139035D02*
X30899571Y-23281892D01*
X30899571Y-23281892D02*
X30899571Y-23389035D01*
X30899571Y-23389035D02*
X30875762Y-23531892D01*
X30875762Y-23531892D02*
X30851952Y-23603321D01*
X30851952Y-23603321D02*
X30804333Y-23674750D01*
X30804333Y-23674750D02*
X30732905Y-23710464D01*
X30732905Y-23710464D02*
X30613857Y-23710464D01*
X31090048Y-23496178D02*
X31328143Y-23496178D01*
X31042429Y-23710464D02*
X31209095Y-22960464D01*
X31209095Y-22960464D02*
X31375762Y-23710464D01*
X14712380Y-31307035D02*
X14688571Y-31342750D01*
X14688571Y-31342750D02*
X14617142Y-31378464D01*
X14617142Y-31378464D02*
X14569523Y-31378464D01*
X14569523Y-31378464D02*
X14498095Y-31342750D01*
X14498095Y-31342750D02*
X14450476Y-31271321D01*
X14450476Y-31271321D02*
X14426666Y-31199892D01*
X14426666Y-31199892D02*
X14402857Y-31057035D01*
X14402857Y-31057035D02*
X14402857Y-30949892D01*
X14402857Y-30949892D02*
X14426666Y-30807035D01*
X14426666Y-30807035D02*
X14450476Y-30735607D01*
X14450476Y-30735607D02*
X14498095Y-30664178D01*
X14498095Y-30664178D02*
X14569523Y-30628464D01*
X14569523Y-30628464D02*
X14617142Y-30628464D01*
X14617142Y-30628464D02*
X14688571Y-30664178D01*
X14688571Y-30664178D02*
X14712380Y-30699892D01*
X15021904Y-30628464D02*
X15117142Y-30628464D01*
X15117142Y-30628464D02*
X15164761Y-30664178D01*
X15164761Y-30664178D02*
X15212380Y-30735607D01*
X15212380Y-30735607D02*
X15236190Y-30878464D01*
X15236190Y-30878464D02*
X15236190Y-31128464D01*
X15236190Y-31128464D02*
X15212380Y-31271321D01*
X15212380Y-31271321D02*
X15164761Y-31342750D01*
X15164761Y-31342750D02*
X15117142Y-31378464D01*
X15117142Y-31378464D02*
X15021904Y-31378464D01*
X15021904Y-31378464D02*
X14974285Y-31342750D01*
X14974285Y-31342750D02*
X14926666Y-31271321D01*
X14926666Y-31271321D02*
X14902857Y-31128464D01*
X14902857Y-31128464D02*
X14902857Y-30878464D01*
X14902857Y-30878464D02*
X14926666Y-30735607D01*
X14926666Y-30735607D02*
X14974285Y-30664178D01*
X14974285Y-30664178D02*
X15021904Y-30628464D01*
X15688571Y-31378464D02*
X15450476Y-31378464D01*
X15450476Y-31378464D02*
X15450476Y-30628464D01*
X15807619Y-30628464D02*
X16117143Y-30628464D01*
X16117143Y-30628464D02*
X15950476Y-30914178D01*
X15950476Y-30914178D02*
X16021905Y-30914178D01*
X16021905Y-30914178D02*
X16069524Y-30949892D01*
X16069524Y-30949892D02*
X16093333Y-30985607D01*
X16093333Y-30985607D02*
X16117143Y-31057035D01*
X16117143Y-31057035D02*
X16117143Y-31235607D01*
X16117143Y-31235607D02*
X16093333Y-31307035D01*
X16093333Y-31307035D02*
X16069524Y-31342750D01*
X16069524Y-31342750D02*
X16021905Y-31378464D01*
X16021905Y-31378464D02*
X15879048Y-31378464D01*
X15879048Y-31378464D02*
X15831429Y-31342750D01*
X15831429Y-31342750D02*
X15807619Y-31307035D01*
X29879047Y-31330464D02*
X29712381Y-30973321D01*
X29593333Y-31330464D02*
X29593333Y-30580464D01*
X29593333Y-30580464D02*
X29783809Y-30580464D01*
X29783809Y-30580464D02*
X29831428Y-30616178D01*
X29831428Y-30616178D02*
X29855238Y-30651892D01*
X29855238Y-30651892D02*
X29879047Y-30723321D01*
X29879047Y-30723321D02*
X29879047Y-30830464D01*
X29879047Y-30830464D02*
X29855238Y-30901892D01*
X29855238Y-30901892D02*
X29831428Y-30937607D01*
X29831428Y-30937607D02*
X29783809Y-30973321D01*
X29783809Y-30973321D02*
X29593333Y-30973321D01*
X30188571Y-30580464D02*
X30283809Y-30580464D01*
X30283809Y-30580464D02*
X30331428Y-30616178D01*
X30331428Y-30616178D02*
X30379047Y-30687607D01*
X30379047Y-30687607D02*
X30402857Y-30830464D01*
X30402857Y-30830464D02*
X30402857Y-31080464D01*
X30402857Y-31080464D02*
X30379047Y-31223321D01*
X30379047Y-31223321D02*
X30331428Y-31294750D01*
X30331428Y-31294750D02*
X30283809Y-31330464D01*
X30283809Y-31330464D02*
X30188571Y-31330464D01*
X30188571Y-31330464D02*
X30140952Y-31294750D01*
X30140952Y-31294750D02*
X30093333Y-31223321D01*
X30093333Y-31223321D02*
X30069524Y-31080464D01*
X30069524Y-31080464D02*
X30069524Y-30830464D01*
X30069524Y-30830464D02*
X30093333Y-30687607D01*
X30093333Y-30687607D02*
X30140952Y-30616178D01*
X30140952Y-30616178D02*
X30188571Y-30580464D01*
X30569524Y-30580464D02*
X30688572Y-31330464D01*
X30688572Y-31330464D02*
X30783810Y-30794750D01*
X30783810Y-30794750D02*
X30879048Y-31330464D01*
X30879048Y-31330464D02*
X30998096Y-30580464D01*
X31450477Y-31330464D02*
X31164763Y-31330464D01*
X31307620Y-31330464D02*
X31307620Y-30580464D01*
X31307620Y-30580464D02*
X31260001Y-30687607D01*
X31260001Y-30687607D02*
X31212382Y-30759035D01*
X31212382Y-30759035D02*
X31164763Y-30794750D01*
X14862380Y-26179035D02*
X14838571Y-26214750D01*
X14838571Y-26214750D02*
X14767142Y-26250464D01*
X14767142Y-26250464D02*
X14719523Y-26250464D01*
X14719523Y-26250464D02*
X14648095Y-26214750D01*
X14648095Y-26214750D02*
X14600476Y-26143321D01*
X14600476Y-26143321D02*
X14576666Y-26071892D01*
X14576666Y-26071892D02*
X14552857Y-25929035D01*
X14552857Y-25929035D02*
X14552857Y-25821892D01*
X14552857Y-25821892D02*
X14576666Y-25679035D01*
X14576666Y-25679035D02*
X14600476Y-25607607D01*
X14600476Y-25607607D02*
X14648095Y-25536178D01*
X14648095Y-25536178D02*
X14719523Y-25500464D01*
X14719523Y-25500464D02*
X14767142Y-25500464D01*
X14767142Y-25500464D02*
X14838571Y-25536178D01*
X14838571Y-25536178D02*
X14862380Y-25571892D01*
X15171904Y-25500464D02*
X15267142Y-25500464D01*
X15267142Y-25500464D02*
X15314761Y-25536178D01*
X15314761Y-25536178D02*
X15362380Y-25607607D01*
X15362380Y-25607607D02*
X15386190Y-25750464D01*
X15386190Y-25750464D02*
X15386190Y-26000464D01*
X15386190Y-26000464D02*
X15362380Y-26143321D01*
X15362380Y-26143321D02*
X15314761Y-26214750D01*
X15314761Y-26214750D02*
X15267142Y-26250464D01*
X15267142Y-26250464D02*
X15171904Y-26250464D01*
X15171904Y-26250464D02*
X15124285Y-26214750D01*
X15124285Y-26214750D02*
X15076666Y-26143321D01*
X15076666Y-26143321D02*
X15052857Y-26000464D01*
X15052857Y-26000464D02*
X15052857Y-25750464D01*
X15052857Y-25750464D02*
X15076666Y-25607607D01*
X15076666Y-25607607D02*
X15124285Y-25536178D01*
X15124285Y-25536178D02*
X15171904Y-25500464D01*
X15838571Y-26250464D02*
X15600476Y-26250464D01*
X15600476Y-26250464D02*
X15600476Y-25500464D01*
X16267143Y-26250464D02*
X15981429Y-26250464D01*
X16124286Y-26250464D02*
X16124286Y-25500464D01*
X16124286Y-25500464D02*
X16076667Y-25607607D01*
X16076667Y-25607607D02*
X16029048Y-25679035D01*
X16029048Y-25679035D02*
X15981429Y-25714750D01*
X14812380Y-23657035D02*
X14788571Y-23692750D01*
X14788571Y-23692750D02*
X14717142Y-23728464D01*
X14717142Y-23728464D02*
X14669523Y-23728464D01*
X14669523Y-23728464D02*
X14598095Y-23692750D01*
X14598095Y-23692750D02*
X14550476Y-23621321D01*
X14550476Y-23621321D02*
X14526666Y-23549892D01*
X14526666Y-23549892D02*
X14502857Y-23407035D01*
X14502857Y-23407035D02*
X14502857Y-23299892D01*
X14502857Y-23299892D02*
X14526666Y-23157035D01*
X14526666Y-23157035D02*
X14550476Y-23085607D01*
X14550476Y-23085607D02*
X14598095Y-23014178D01*
X14598095Y-23014178D02*
X14669523Y-22978464D01*
X14669523Y-22978464D02*
X14717142Y-22978464D01*
X14717142Y-22978464D02*
X14788571Y-23014178D01*
X14788571Y-23014178D02*
X14812380Y-23049892D01*
X15121904Y-22978464D02*
X15217142Y-22978464D01*
X15217142Y-22978464D02*
X15264761Y-23014178D01*
X15264761Y-23014178D02*
X15312380Y-23085607D01*
X15312380Y-23085607D02*
X15336190Y-23228464D01*
X15336190Y-23228464D02*
X15336190Y-23478464D01*
X15336190Y-23478464D02*
X15312380Y-23621321D01*
X15312380Y-23621321D02*
X15264761Y-23692750D01*
X15264761Y-23692750D02*
X15217142Y-23728464D01*
X15217142Y-23728464D02*
X15121904Y-23728464D01*
X15121904Y-23728464D02*
X15074285Y-23692750D01*
X15074285Y-23692750D02*
X15026666Y-23621321D01*
X15026666Y-23621321D02*
X15002857Y-23478464D01*
X15002857Y-23478464D02*
X15002857Y-23228464D01*
X15002857Y-23228464D02*
X15026666Y-23085607D01*
X15026666Y-23085607D02*
X15074285Y-23014178D01*
X15074285Y-23014178D02*
X15121904Y-22978464D01*
X15788571Y-23728464D02*
X15550476Y-23728464D01*
X15550476Y-23728464D02*
X15550476Y-22978464D01*
X16050476Y-22978464D02*
X16098095Y-22978464D01*
X16098095Y-22978464D02*
X16145714Y-23014178D01*
X16145714Y-23014178D02*
X16169524Y-23049892D01*
X16169524Y-23049892D02*
X16193333Y-23121321D01*
X16193333Y-23121321D02*
X16217143Y-23264178D01*
X16217143Y-23264178D02*
X16217143Y-23442750D01*
X16217143Y-23442750D02*
X16193333Y-23585607D01*
X16193333Y-23585607D02*
X16169524Y-23657035D01*
X16169524Y-23657035D02*
X16145714Y-23692750D01*
X16145714Y-23692750D02*
X16098095Y-23728464D01*
X16098095Y-23728464D02*
X16050476Y-23728464D01*
X16050476Y-23728464D02*
X16002857Y-23692750D01*
X16002857Y-23692750D02*
X15979048Y-23657035D01*
X15979048Y-23657035D02*
X15955238Y-23585607D01*
X15955238Y-23585607D02*
X15931429Y-23442750D01*
X15931429Y-23442750D02*
X15931429Y-23264178D01*
X15931429Y-23264178D02*
X15955238Y-23121321D01*
X15955238Y-23121321D02*
X15979048Y-23049892D01*
X15979048Y-23049892D02*
X16002857Y-23014178D01*
X16002857Y-23014178D02*
X16050476Y-22978464D01*
X29829047Y-33878464D02*
X29662381Y-33521321D01*
X29543333Y-33878464D02*
X29543333Y-33128464D01*
X29543333Y-33128464D02*
X29733809Y-33128464D01*
X29733809Y-33128464D02*
X29781428Y-33164178D01*
X29781428Y-33164178D02*
X29805238Y-33199892D01*
X29805238Y-33199892D02*
X29829047Y-33271321D01*
X29829047Y-33271321D02*
X29829047Y-33378464D01*
X29829047Y-33378464D02*
X29805238Y-33449892D01*
X29805238Y-33449892D02*
X29781428Y-33485607D01*
X29781428Y-33485607D02*
X29733809Y-33521321D01*
X29733809Y-33521321D02*
X29543333Y-33521321D01*
X30138571Y-33128464D02*
X30233809Y-33128464D01*
X30233809Y-33128464D02*
X30281428Y-33164178D01*
X30281428Y-33164178D02*
X30329047Y-33235607D01*
X30329047Y-33235607D02*
X30352857Y-33378464D01*
X30352857Y-33378464D02*
X30352857Y-33628464D01*
X30352857Y-33628464D02*
X30329047Y-33771321D01*
X30329047Y-33771321D02*
X30281428Y-33842750D01*
X30281428Y-33842750D02*
X30233809Y-33878464D01*
X30233809Y-33878464D02*
X30138571Y-33878464D01*
X30138571Y-33878464D02*
X30090952Y-33842750D01*
X30090952Y-33842750D02*
X30043333Y-33771321D01*
X30043333Y-33771321D02*
X30019524Y-33628464D01*
X30019524Y-33628464D02*
X30019524Y-33378464D01*
X30019524Y-33378464D02*
X30043333Y-33235607D01*
X30043333Y-33235607D02*
X30090952Y-33164178D01*
X30090952Y-33164178D02*
X30138571Y-33128464D01*
X30519524Y-33128464D02*
X30638572Y-33878464D01*
X30638572Y-33878464D02*
X30733810Y-33342750D01*
X30733810Y-33342750D02*
X30829048Y-33878464D01*
X30829048Y-33878464D02*
X30948096Y-33128464D01*
X31114763Y-33199892D02*
X31138572Y-33164178D01*
X31138572Y-33164178D02*
X31186191Y-33128464D01*
X31186191Y-33128464D02*
X31305239Y-33128464D01*
X31305239Y-33128464D02*
X31352858Y-33164178D01*
X31352858Y-33164178D02*
X31376667Y-33199892D01*
X31376667Y-33199892D02*
X31400477Y-33271321D01*
X31400477Y-33271321D02*
X31400477Y-33342750D01*
X31400477Y-33342750D02*
X31376667Y-33449892D01*
X31376667Y-33449892D02*
X31090953Y-33878464D01*
X31090953Y-33878464D02*
X31400477Y-33878464D01*
X30438571Y-13550464D02*
X30200476Y-13550464D01*
X30200476Y-13550464D02*
X30200476Y-12800464D01*
X30605238Y-13157607D02*
X30771905Y-13157607D01*
X30843333Y-13550464D02*
X30605238Y-13550464D01*
X30605238Y-13550464D02*
X30605238Y-12800464D01*
X30605238Y-12800464D02*
X30843333Y-12800464D01*
X31057619Y-13550464D02*
X31057619Y-12800464D01*
X31057619Y-12800464D02*
X31176667Y-12800464D01*
X31176667Y-12800464D02*
X31248095Y-12836178D01*
X31248095Y-12836178D02*
X31295714Y-12907607D01*
X31295714Y-12907607D02*
X31319524Y-12979035D01*
X31319524Y-12979035D02*
X31343333Y-13121892D01*
X31343333Y-13121892D02*
X31343333Y-13229035D01*
X31343333Y-13229035D02*
X31319524Y-13371892D01*
X31319524Y-13371892D02*
X31295714Y-13443321D01*
X31295714Y-13443321D02*
X31248095Y-13514750D01*
X31248095Y-13514750D02*
X31176667Y-13550464D01*
X31176667Y-13550464D02*
X31057619Y-13550464D01*
X15163547Y-15376178D02*
X15115928Y-15340464D01*
X15115928Y-15340464D02*
X15044499Y-15340464D01*
X15044499Y-15340464D02*
X14973071Y-15376178D01*
X14973071Y-15376178D02*
X14925452Y-15447607D01*
X14925452Y-15447607D02*
X14901642Y-15519035D01*
X14901642Y-15519035D02*
X14877833Y-15661892D01*
X14877833Y-15661892D02*
X14877833Y-15769035D01*
X14877833Y-15769035D02*
X14901642Y-15911892D01*
X14901642Y-15911892D02*
X14925452Y-15983321D01*
X14925452Y-15983321D02*
X14973071Y-16054750D01*
X14973071Y-16054750D02*
X15044499Y-16090464D01*
X15044499Y-16090464D02*
X15092118Y-16090464D01*
X15092118Y-16090464D02*
X15163547Y-16054750D01*
X15163547Y-16054750D02*
X15187356Y-16019035D01*
X15187356Y-16019035D02*
X15187356Y-15769035D01*
X15187356Y-15769035D02*
X15092118Y-15769035D01*
X15401642Y-16090464D02*
X15401642Y-15340464D01*
X15401642Y-15340464D02*
X15687356Y-16090464D01*
X15687356Y-16090464D02*
X15687356Y-15340464D01*
X15925452Y-16090464D02*
X15925452Y-15340464D01*
X15925452Y-15340464D02*
X16044500Y-15340464D01*
X16044500Y-15340464D02*
X16115928Y-15376178D01*
X16115928Y-15376178D02*
X16163547Y-15447607D01*
X16163547Y-15447607D02*
X16187357Y-15519035D01*
X16187357Y-15519035D02*
X16211166Y-15661892D01*
X16211166Y-15661892D02*
X16211166Y-15769035D01*
X16211166Y-15769035D02*
X16187357Y-15911892D01*
X16187357Y-15911892D02*
X16163547Y-15983321D01*
X16163547Y-15983321D02*
X16115928Y-16054750D01*
X16115928Y-16054750D02*
X16044500Y-16090464D01*
X16044500Y-16090464D02*
X15925452Y-16090464D01*
X30340047Y-20519678D02*
X30292428Y-20483964D01*
X30292428Y-20483964D02*
X30220999Y-20483964D01*
X30220999Y-20483964D02*
X30149571Y-20519678D01*
X30149571Y-20519678D02*
X30101952Y-20591107D01*
X30101952Y-20591107D02*
X30078142Y-20662535D01*
X30078142Y-20662535D02*
X30054333Y-20805392D01*
X30054333Y-20805392D02*
X30054333Y-20912535D01*
X30054333Y-20912535D02*
X30078142Y-21055392D01*
X30078142Y-21055392D02*
X30101952Y-21126821D01*
X30101952Y-21126821D02*
X30149571Y-21198250D01*
X30149571Y-21198250D02*
X30220999Y-21233964D01*
X30220999Y-21233964D02*
X30268618Y-21233964D01*
X30268618Y-21233964D02*
X30340047Y-21198250D01*
X30340047Y-21198250D02*
X30363856Y-21162535D01*
X30363856Y-21162535D02*
X30363856Y-20912535D01*
X30363856Y-20912535D02*
X30268618Y-20912535D01*
X30578142Y-21233964D02*
X30578142Y-20483964D01*
X30578142Y-20483964D02*
X30863856Y-21233964D01*
X30863856Y-21233964D02*
X30863856Y-20483964D01*
X31101952Y-21233964D02*
X31101952Y-20483964D01*
X31101952Y-20483964D02*
X31221000Y-20483964D01*
X31221000Y-20483964D02*
X31292428Y-20519678D01*
X31292428Y-20519678D02*
X31340047Y-20591107D01*
X31340047Y-20591107D02*
X31363857Y-20662535D01*
X31363857Y-20662535D02*
X31387666Y-20805392D01*
X31387666Y-20805392D02*
X31387666Y-20912535D01*
X31387666Y-20912535D02*
X31363857Y-21055392D01*
X31363857Y-21055392D02*
X31340047Y-21126821D01*
X31340047Y-21126821D02*
X31292428Y-21198250D01*
X31292428Y-21198250D02*
X31221000Y-21233964D01*
X31221000Y-21233964D02*
X31101952Y-21233964D01*
X15007619Y-41135607D02*
X15079047Y-41171321D01*
X15079047Y-41171321D02*
X15102857Y-41207035D01*
X15102857Y-41207035D02*
X15126666Y-41278464D01*
X15126666Y-41278464D02*
X15126666Y-41385607D01*
X15126666Y-41385607D02*
X15102857Y-41457035D01*
X15102857Y-41457035D02*
X15079047Y-41492750D01*
X15079047Y-41492750D02*
X15031428Y-41528464D01*
X15031428Y-41528464D02*
X14840952Y-41528464D01*
X14840952Y-41528464D02*
X14840952Y-40778464D01*
X14840952Y-40778464D02*
X15007619Y-40778464D01*
X15007619Y-40778464D02*
X15055238Y-40814178D01*
X15055238Y-40814178D02*
X15079047Y-40849892D01*
X15079047Y-40849892D02*
X15102857Y-40921321D01*
X15102857Y-40921321D02*
X15102857Y-40992750D01*
X15102857Y-40992750D02*
X15079047Y-41064178D01*
X15079047Y-41064178D02*
X15055238Y-41099892D01*
X15055238Y-41099892D02*
X15007619Y-41135607D01*
X15007619Y-41135607D02*
X14840952Y-41135607D01*
X15555238Y-40778464D02*
X15460000Y-40778464D01*
X15460000Y-40778464D02*
X15412381Y-40814178D01*
X15412381Y-40814178D02*
X15388571Y-40849892D01*
X15388571Y-40849892D02*
X15340952Y-40957035D01*
X15340952Y-40957035D02*
X15317143Y-41099892D01*
X15317143Y-41099892D02*
X15317143Y-41385607D01*
X15317143Y-41385607D02*
X15340952Y-41457035D01*
X15340952Y-41457035D02*
X15364762Y-41492750D01*
X15364762Y-41492750D02*
X15412381Y-41528464D01*
X15412381Y-41528464D02*
X15507619Y-41528464D01*
X15507619Y-41528464D02*
X15555238Y-41492750D01*
X15555238Y-41492750D02*
X15579047Y-41457035D01*
X15579047Y-41457035D02*
X15602857Y-41385607D01*
X15602857Y-41385607D02*
X15602857Y-41207035D01*
X15602857Y-41207035D02*
X15579047Y-41135607D01*
X15579047Y-41135607D02*
X15555238Y-41099892D01*
X15555238Y-41099892D02*
X15507619Y-41064178D01*
X15507619Y-41064178D02*
X15412381Y-41064178D01*
X15412381Y-41064178D02*
X15364762Y-41099892D01*
X15364762Y-41099892D02*
X15340952Y-41135607D01*
X15340952Y-41135607D02*
X15317143Y-41207035D01*
X29829047Y-28828464D02*
X29662381Y-28471321D01*
X29543333Y-28828464D02*
X29543333Y-28078464D01*
X29543333Y-28078464D02*
X29733809Y-28078464D01*
X29733809Y-28078464D02*
X29781428Y-28114178D01*
X29781428Y-28114178D02*
X29805238Y-28149892D01*
X29805238Y-28149892D02*
X29829047Y-28221321D01*
X29829047Y-28221321D02*
X29829047Y-28328464D01*
X29829047Y-28328464D02*
X29805238Y-28399892D01*
X29805238Y-28399892D02*
X29781428Y-28435607D01*
X29781428Y-28435607D02*
X29733809Y-28471321D01*
X29733809Y-28471321D02*
X29543333Y-28471321D01*
X30138571Y-28078464D02*
X30233809Y-28078464D01*
X30233809Y-28078464D02*
X30281428Y-28114178D01*
X30281428Y-28114178D02*
X30329047Y-28185607D01*
X30329047Y-28185607D02*
X30352857Y-28328464D01*
X30352857Y-28328464D02*
X30352857Y-28578464D01*
X30352857Y-28578464D02*
X30329047Y-28721321D01*
X30329047Y-28721321D02*
X30281428Y-28792750D01*
X30281428Y-28792750D02*
X30233809Y-28828464D01*
X30233809Y-28828464D02*
X30138571Y-28828464D01*
X30138571Y-28828464D02*
X30090952Y-28792750D01*
X30090952Y-28792750D02*
X30043333Y-28721321D01*
X30043333Y-28721321D02*
X30019524Y-28578464D01*
X30019524Y-28578464D02*
X30019524Y-28328464D01*
X30019524Y-28328464D02*
X30043333Y-28185607D01*
X30043333Y-28185607D02*
X30090952Y-28114178D01*
X30090952Y-28114178D02*
X30138571Y-28078464D01*
X30519524Y-28078464D02*
X30638572Y-28828464D01*
X30638572Y-28828464D02*
X30733810Y-28292750D01*
X30733810Y-28292750D02*
X30829048Y-28828464D01*
X30829048Y-28828464D02*
X30948096Y-28078464D01*
X31233810Y-28078464D02*
X31281429Y-28078464D01*
X31281429Y-28078464D02*
X31329048Y-28114178D01*
X31329048Y-28114178D02*
X31352858Y-28149892D01*
X31352858Y-28149892D02*
X31376667Y-28221321D01*
X31376667Y-28221321D02*
X31400477Y-28364178D01*
X31400477Y-28364178D02*
X31400477Y-28542750D01*
X31400477Y-28542750D02*
X31376667Y-28685607D01*
X31376667Y-28685607D02*
X31352858Y-28757035D01*
X31352858Y-28757035D02*
X31329048Y-28792750D01*
X31329048Y-28792750D02*
X31281429Y-28828464D01*
X31281429Y-28828464D02*
X31233810Y-28828464D01*
X31233810Y-28828464D02*
X31186191Y-28792750D01*
X31186191Y-28792750D02*
X31162382Y-28757035D01*
X31162382Y-28757035D02*
X31138572Y-28685607D01*
X31138572Y-28685607D02*
X31114763Y-28542750D01*
X31114763Y-28542750D02*
X31114763Y-28364178D01*
X31114763Y-28364178D02*
X31138572Y-28221321D01*
X31138572Y-28221321D02*
X31162382Y-28149892D01*
X31162382Y-28149892D02*
X31186191Y-28114178D01*
X31186191Y-28114178D02*
X31233810Y-28078464D01*
X30125762Y-26214750D02*
X30197190Y-26250464D01*
X30197190Y-26250464D02*
X30316238Y-26250464D01*
X30316238Y-26250464D02*
X30363857Y-26214750D01*
X30363857Y-26214750D02*
X30387666Y-26179035D01*
X30387666Y-26179035D02*
X30411476Y-26107607D01*
X30411476Y-26107607D02*
X30411476Y-26036178D01*
X30411476Y-26036178D02*
X30387666Y-25964750D01*
X30387666Y-25964750D02*
X30363857Y-25929035D01*
X30363857Y-25929035D02*
X30316238Y-25893321D01*
X30316238Y-25893321D02*
X30221000Y-25857607D01*
X30221000Y-25857607D02*
X30173381Y-25821892D01*
X30173381Y-25821892D02*
X30149571Y-25786178D01*
X30149571Y-25786178D02*
X30125762Y-25714750D01*
X30125762Y-25714750D02*
X30125762Y-25643321D01*
X30125762Y-25643321D02*
X30149571Y-25571892D01*
X30149571Y-25571892D02*
X30173381Y-25536178D01*
X30173381Y-25536178D02*
X30221000Y-25500464D01*
X30221000Y-25500464D02*
X30340047Y-25500464D01*
X30340047Y-25500464D02*
X30411476Y-25536178D01*
X30911475Y-26179035D02*
X30887666Y-26214750D01*
X30887666Y-26214750D02*
X30816237Y-26250464D01*
X30816237Y-26250464D02*
X30768618Y-26250464D01*
X30768618Y-26250464D02*
X30697190Y-26214750D01*
X30697190Y-26214750D02*
X30649571Y-26143321D01*
X30649571Y-26143321D02*
X30625761Y-26071892D01*
X30625761Y-26071892D02*
X30601952Y-25929035D01*
X30601952Y-25929035D02*
X30601952Y-25821892D01*
X30601952Y-25821892D02*
X30625761Y-25679035D01*
X30625761Y-25679035D02*
X30649571Y-25607607D01*
X30649571Y-25607607D02*
X30697190Y-25536178D01*
X30697190Y-25536178D02*
X30768618Y-25500464D01*
X30768618Y-25500464D02*
X30816237Y-25500464D01*
X30816237Y-25500464D02*
X30887666Y-25536178D01*
X30887666Y-25536178D02*
X30911475Y-25571892D01*
X31363856Y-26250464D02*
X31125761Y-26250464D01*
X31125761Y-26250464D02*
X31125761Y-25500464D01*
X15270690Y-18693964D02*
X15104024Y-18336821D01*
X14984976Y-18693964D02*
X14984976Y-17943964D01*
X14984976Y-17943964D02*
X15175452Y-17943964D01*
X15175452Y-17943964D02*
X15223071Y-17979678D01*
X15223071Y-17979678D02*
X15246881Y-18015392D01*
X15246881Y-18015392D02*
X15270690Y-18086821D01*
X15270690Y-18086821D02*
X15270690Y-18193964D01*
X15270690Y-18193964D02*
X15246881Y-18265392D01*
X15246881Y-18265392D02*
X15223071Y-18301107D01*
X15223071Y-18301107D02*
X15175452Y-18336821D01*
X15175452Y-18336821D02*
X14984976Y-18336821D01*
X15461167Y-18658250D02*
X15532595Y-18693964D01*
X15532595Y-18693964D02*
X15651643Y-18693964D01*
X15651643Y-18693964D02*
X15699262Y-18658250D01*
X15699262Y-18658250D02*
X15723071Y-18622535D01*
X15723071Y-18622535D02*
X15746881Y-18551107D01*
X15746881Y-18551107D02*
X15746881Y-18479678D01*
X15746881Y-18479678D02*
X15723071Y-18408250D01*
X15723071Y-18408250D02*
X15699262Y-18372535D01*
X15699262Y-18372535D02*
X15651643Y-18336821D01*
X15651643Y-18336821D02*
X15556405Y-18301107D01*
X15556405Y-18301107D02*
X15508786Y-18265392D01*
X15508786Y-18265392D02*
X15484976Y-18229678D01*
X15484976Y-18229678D02*
X15461167Y-18158250D01*
X15461167Y-18158250D02*
X15461167Y-18086821D01*
X15461167Y-18086821D02*
X15484976Y-18015392D01*
X15484976Y-18015392D02*
X15508786Y-17979678D01*
X15508786Y-17979678D02*
X15556405Y-17943964D01*
X15556405Y-17943964D02*
X15675452Y-17943964D01*
X15675452Y-17943964D02*
X15746881Y-17979678D01*
X15889738Y-17943964D02*
X16175452Y-17943964D01*
X16032595Y-18693964D02*
X16032595Y-17943964D01*
X29860000Y-16078464D02*
X29860000Y-15328464D01*
X29860000Y-15328464D02*
X29979048Y-15328464D01*
X29979048Y-15328464D02*
X30050476Y-15364178D01*
X30050476Y-15364178D02*
X30098095Y-15435607D01*
X30098095Y-15435607D02*
X30121905Y-15507035D01*
X30121905Y-15507035D02*
X30145714Y-15649892D01*
X30145714Y-15649892D02*
X30145714Y-15757035D01*
X30145714Y-15757035D02*
X30121905Y-15899892D01*
X30121905Y-15899892D02*
X30098095Y-15971321D01*
X30098095Y-15971321D02*
X30050476Y-16042750D01*
X30050476Y-16042750D02*
X29979048Y-16078464D01*
X29979048Y-16078464D02*
X29860000Y-16078464D01*
X30336191Y-15864178D02*
X30574286Y-15864178D01*
X30288572Y-16078464D02*
X30455238Y-15328464D01*
X30455238Y-15328464D02*
X30621905Y-16078464D01*
X30717143Y-15328464D02*
X31002857Y-15328464D01*
X30860000Y-16078464D02*
X30860000Y-15328464D01*
X31145714Y-15864178D02*
X31383809Y-15864178D01*
X31098095Y-16078464D02*
X31264761Y-15328464D01*
X31264761Y-15328464D02*
X31431428Y-16078464D01*
X30257619Y-38557607D02*
X30329047Y-38593321D01*
X30329047Y-38593321D02*
X30352857Y-38629035D01*
X30352857Y-38629035D02*
X30376666Y-38700464D01*
X30376666Y-38700464D02*
X30376666Y-38807607D01*
X30376666Y-38807607D02*
X30352857Y-38879035D01*
X30352857Y-38879035D02*
X30329047Y-38914750D01*
X30329047Y-38914750D02*
X30281428Y-38950464D01*
X30281428Y-38950464D02*
X30090952Y-38950464D01*
X30090952Y-38950464D02*
X30090952Y-38200464D01*
X30090952Y-38200464D02*
X30257619Y-38200464D01*
X30257619Y-38200464D02*
X30305238Y-38236178D01*
X30305238Y-38236178D02*
X30329047Y-38271892D01*
X30329047Y-38271892D02*
X30352857Y-38343321D01*
X30352857Y-38343321D02*
X30352857Y-38414750D01*
X30352857Y-38414750D02*
X30329047Y-38486178D01*
X30329047Y-38486178D02*
X30305238Y-38521892D01*
X30305238Y-38521892D02*
X30257619Y-38557607D01*
X30257619Y-38557607D02*
X30090952Y-38557607D01*
X30805238Y-38450464D02*
X30805238Y-38950464D01*
X30686190Y-38164750D02*
X30567143Y-38700464D01*
X30567143Y-38700464D02*
X30876666Y-38700464D01*
X14762380Y-36402535D02*
X14738571Y-36438250D01*
X14738571Y-36438250D02*
X14667142Y-36473964D01*
X14667142Y-36473964D02*
X14619523Y-36473964D01*
X14619523Y-36473964D02*
X14548095Y-36438250D01*
X14548095Y-36438250D02*
X14500476Y-36366821D01*
X14500476Y-36366821D02*
X14476666Y-36295392D01*
X14476666Y-36295392D02*
X14452857Y-36152535D01*
X14452857Y-36152535D02*
X14452857Y-36045392D01*
X14452857Y-36045392D02*
X14476666Y-35902535D01*
X14476666Y-35902535D02*
X14500476Y-35831107D01*
X14500476Y-35831107D02*
X14548095Y-35759678D01*
X14548095Y-35759678D02*
X14619523Y-35723964D01*
X14619523Y-35723964D02*
X14667142Y-35723964D01*
X14667142Y-35723964D02*
X14738571Y-35759678D01*
X14738571Y-35759678D02*
X14762380Y-35795392D01*
X15071904Y-35723964D02*
X15167142Y-35723964D01*
X15167142Y-35723964D02*
X15214761Y-35759678D01*
X15214761Y-35759678D02*
X15262380Y-35831107D01*
X15262380Y-35831107D02*
X15286190Y-35973964D01*
X15286190Y-35973964D02*
X15286190Y-36223964D01*
X15286190Y-36223964D02*
X15262380Y-36366821D01*
X15262380Y-36366821D02*
X15214761Y-36438250D01*
X15214761Y-36438250D02*
X15167142Y-36473964D01*
X15167142Y-36473964D02*
X15071904Y-36473964D01*
X15071904Y-36473964D02*
X15024285Y-36438250D01*
X15024285Y-36438250D02*
X14976666Y-36366821D01*
X14976666Y-36366821D02*
X14952857Y-36223964D01*
X14952857Y-36223964D02*
X14952857Y-35973964D01*
X14952857Y-35973964D02*
X14976666Y-35831107D01*
X14976666Y-35831107D02*
X15024285Y-35759678D01*
X15024285Y-35759678D02*
X15071904Y-35723964D01*
X15738571Y-36473964D02*
X15500476Y-36473964D01*
X15500476Y-36473964D02*
X15500476Y-35723964D01*
X16143333Y-35723964D02*
X15905238Y-35723964D01*
X15905238Y-35723964D02*
X15881429Y-36081107D01*
X15881429Y-36081107D02*
X15905238Y-36045392D01*
X15905238Y-36045392D02*
X15952857Y-36009678D01*
X15952857Y-36009678D02*
X16071905Y-36009678D01*
X16071905Y-36009678D02*
X16119524Y-36045392D01*
X16119524Y-36045392D02*
X16143333Y-36081107D01*
X16143333Y-36081107D02*
X16167143Y-36152535D01*
X16167143Y-36152535D02*
X16167143Y-36331107D01*
X16167143Y-36331107D02*
X16143333Y-36402535D01*
X16143333Y-36402535D02*
X16119524Y-36438250D01*
X16119524Y-36438250D02*
X16071905Y-36473964D01*
X16071905Y-36473964D02*
X15952857Y-36473964D01*
X15952857Y-36473964D02*
X15905238Y-36438250D01*
X15905238Y-36438250D02*
X15881429Y-36402535D01*
X30403547Y-17979678D02*
X30355928Y-17943964D01*
X30355928Y-17943964D02*
X30284499Y-17943964D01*
X30284499Y-17943964D02*
X30213071Y-17979678D01*
X30213071Y-17979678D02*
X30165452Y-18051107D01*
X30165452Y-18051107D02*
X30141642Y-18122535D01*
X30141642Y-18122535D02*
X30117833Y-18265392D01*
X30117833Y-18265392D02*
X30117833Y-18372535D01*
X30117833Y-18372535D02*
X30141642Y-18515392D01*
X30141642Y-18515392D02*
X30165452Y-18586821D01*
X30165452Y-18586821D02*
X30213071Y-18658250D01*
X30213071Y-18658250D02*
X30284499Y-18693964D01*
X30284499Y-18693964D02*
X30332118Y-18693964D01*
X30332118Y-18693964D02*
X30403547Y-18658250D01*
X30403547Y-18658250D02*
X30427356Y-18622535D01*
X30427356Y-18622535D02*
X30427356Y-18372535D01*
X30427356Y-18372535D02*
X30332118Y-18372535D01*
X30641642Y-18693964D02*
X30641642Y-17943964D01*
X30641642Y-17943964D02*
X30927356Y-18693964D01*
X30927356Y-18693964D02*
X30927356Y-17943964D01*
X31165452Y-18693964D02*
X31165452Y-17943964D01*
X31165452Y-17943964D02*
X31284500Y-17943964D01*
X31284500Y-17943964D02*
X31355928Y-17979678D01*
X31355928Y-17979678D02*
X31403547Y-18051107D01*
X31403547Y-18051107D02*
X31427357Y-18122535D01*
X31427357Y-18122535D02*
X31451166Y-18265392D01*
X31451166Y-18265392D02*
X31451166Y-18372535D01*
X31451166Y-18372535D02*
X31427357Y-18515392D01*
X31427357Y-18515392D02*
X31403547Y-18586821D01*
X31403547Y-18586821D02*
X31355928Y-18658250D01*
X31355928Y-18658250D02*
X31284500Y-18693964D01*
X31284500Y-18693964D02*
X31165452Y-18693964D01*
X14762380Y-33807035D02*
X14738571Y-33842750D01*
X14738571Y-33842750D02*
X14667142Y-33878464D01*
X14667142Y-33878464D02*
X14619523Y-33878464D01*
X14619523Y-33878464D02*
X14548095Y-33842750D01*
X14548095Y-33842750D02*
X14500476Y-33771321D01*
X14500476Y-33771321D02*
X14476666Y-33699892D01*
X14476666Y-33699892D02*
X14452857Y-33557035D01*
X14452857Y-33557035D02*
X14452857Y-33449892D01*
X14452857Y-33449892D02*
X14476666Y-33307035D01*
X14476666Y-33307035D02*
X14500476Y-33235607D01*
X14500476Y-33235607D02*
X14548095Y-33164178D01*
X14548095Y-33164178D02*
X14619523Y-33128464D01*
X14619523Y-33128464D02*
X14667142Y-33128464D01*
X14667142Y-33128464D02*
X14738571Y-33164178D01*
X14738571Y-33164178D02*
X14762380Y-33199892D01*
X15071904Y-33128464D02*
X15167142Y-33128464D01*
X15167142Y-33128464D02*
X15214761Y-33164178D01*
X15214761Y-33164178D02*
X15262380Y-33235607D01*
X15262380Y-33235607D02*
X15286190Y-33378464D01*
X15286190Y-33378464D02*
X15286190Y-33628464D01*
X15286190Y-33628464D02*
X15262380Y-33771321D01*
X15262380Y-33771321D02*
X15214761Y-33842750D01*
X15214761Y-33842750D02*
X15167142Y-33878464D01*
X15167142Y-33878464D02*
X15071904Y-33878464D01*
X15071904Y-33878464D02*
X15024285Y-33842750D01*
X15024285Y-33842750D02*
X14976666Y-33771321D01*
X14976666Y-33771321D02*
X14952857Y-33628464D01*
X14952857Y-33628464D02*
X14952857Y-33378464D01*
X14952857Y-33378464D02*
X14976666Y-33235607D01*
X14976666Y-33235607D02*
X15024285Y-33164178D01*
X15024285Y-33164178D02*
X15071904Y-33128464D01*
X15738571Y-33878464D02*
X15500476Y-33878464D01*
X15500476Y-33878464D02*
X15500476Y-33128464D01*
X16119524Y-33378464D02*
X16119524Y-33878464D01*
X16000476Y-33092750D02*
X15881429Y-33628464D01*
X15881429Y-33628464D02*
X16190952Y-33628464D01*
X15199261Y-13550464D02*
X15032595Y-13193321D01*
X14913547Y-13550464D02*
X14913547Y-12800464D01*
X14913547Y-12800464D02*
X15104023Y-12800464D01*
X15104023Y-12800464D02*
X15151642Y-12836178D01*
X15151642Y-12836178D02*
X15175452Y-12871892D01*
X15175452Y-12871892D02*
X15199261Y-12943321D01*
X15199261Y-12943321D02*
X15199261Y-13050464D01*
X15199261Y-13050464D02*
X15175452Y-13121892D01*
X15175452Y-13121892D02*
X15151642Y-13157607D01*
X15151642Y-13157607D02*
X15104023Y-13193321D01*
X15104023Y-13193321D02*
X14913547Y-13193321D01*
X15389738Y-13336178D02*
X15627833Y-13336178D01*
X15342119Y-13550464D02*
X15508785Y-12800464D01*
X15508785Y-12800464D02*
X15675452Y-13550464D01*
X15794499Y-12800464D02*
X15913547Y-13550464D01*
X15913547Y-13550464D02*
X16008785Y-13014750D01*
X16008785Y-13014750D02*
X16104023Y-13550464D01*
X16104023Y-13550464D02*
X16223071Y-12800464D01*
X15107619Y-38585607D02*
X15179047Y-38621321D01*
X15179047Y-38621321D02*
X15202857Y-38657035D01*
X15202857Y-38657035D02*
X15226666Y-38728464D01*
X15226666Y-38728464D02*
X15226666Y-38835607D01*
X15226666Y-38835607D02*
X15202857Y-38907035D01*
X15202857Y-38907035D02*
X15179047Y-38942750D01*
X15179047Y-38942750D02*
X15131428Y-38978464D01*
X15131428Y-38978464D02*
X14940952Y-38978464D01*
X14940952Y-38978464D02*
X14940952Y-38228464D01*
X14940952Y-38228464D02*
X15107619Y-38228464D01*
X15107619Y-38228464D02*
X15155238Y-38264178D01*
X15155238Y-38264178D02*
X15179047Y-38299892D01*
X15179047Y-38299892D02*
X15202857Y-38371321D01*
X15202857Y-38371321D02*
X15202857Y-38442750D01*
X15202857Y-38442750D02*
X15179047Y-38514178D01*
X15179047Y-38514178D02*
X15155238Y-38549892D01*
X15155238Y-38549892D02*
X15107619Y-38585607D01*
X15107619Y-38585607D02*
X14940952Y-38585607D01*
X15417143Y-38299892D02*
X15440952Y-38264178D01*
X15440952Y-38264178D02*
X15488571Y-38228464D01*
X15488571Y-38228464D02*
X15607619Y-38228464D01*
X15607619Y-38228464D02*
X15655238Y-38264178D01*
X15655238Y-38264178D02*
X15679047Y-38299892D01*
X15679047Y-38299892D02*
X15702857Y-38371321D01*
X15702857Y-38371321D02*
X15702857Y-38442750D01*
X15702857Y-38442750D02*
X15679047Y-38549892D01*
X15679047Y-38549892D02*
X15393333Y-38978464D01*
X15393333Y-38978464D02*
X15702857Y-38978464D01*
X14877834Y-20420464D02*
X15044500Y-21170464D01*
X15044500Y-21170464D02*
X15211167Y-20420464D01*
X15663547Y-21099035D02*
X15639738Y-21134750D01*
X15639738Y-21134750D02*
X15568309Y-21170464D01*
X15568309Y-21170464D02*
X15520690Y-21170464D01*
X15520690Y-21170464D02*
X15449262Y-21134750D01*
X15449262Y-21134750D02*
X15401643Y-21063321D01*
X15401643Y-21063321D02*
X15377833Y-20991892D01*
X15377833Y-20991892D02*
X15354024Y-20849035D01*
X15354024Y-20849035D02*
X15354024Y-20741892D01*
X15354024Y-20741892D02*
X15377833Y-20599035D01*
X15377833Y-20599035D02*
X15401643Y-20527607D01*
X15401643Y-20527607D02*
X15449262Y-20456178D01*
X15449262Y-20456178D02*
X15520690Y-20420464D01*
X15520690Y-20420464D02*
X15568309Y-20420464D01*
X15568309Y-20420464D02*
X15639738Y-20456178D01*
X15639738Y-20456178D02*
X15663547Y-20491892D01*
X16163547Y-21099035D02*
X16139738Y-21134750D01*
X16139738Y-21134750D02*
X16068309Y-21170464D01*
X16068309Y-21170464D02*
X16020690Y-21170464D01*
X16020690Y-21170464D02*
X15949262Y-21134750D01*
X15949262Y-21134750D02*
X15901643Y-21063321D01*
X15901643Y-21063321D02*
X15877833Y-20991892D01*
X15877833Y-20991892D02*
X15854024Y-20849035D01*
X15854024Y-20849035D02*
X15854024Y-20741892D01*
X15854024Y-20741892D02*
X15877833Y-20599035D01*
X15877833Y-20599035D02*
X15901643Y-20527607D01*
X15901643Y-20527607D02*
X15949262Y-20456178D01*
X15949262Y-20456178D02*
X16020690Y-20420464D01*
X16020690Y-20420464D02*
X16068309Y-20420464D01*
X16068309Y-20420464D02*
X16139738Y-20456178D01*
X16139738Y-20456178D02*
X16163547Y-20491892D01*
D10*
%TO.C,SW20*%
X121660000Y-30415000D02*
X121410000Y-30415000D01*
X121660000Y-30415000D02*
X121660000Y-36415000D01*
X118160000Y-30415000D02*
X118410000Y-30415000D01*
X118160000Y-30415000D02*
X118160000Y-36415000D01*
X121660000Y-36415000D02*
X121410000Y-36415000D01*
X118160000Y-36415000D02*
X118410000Y-36415000D01*
%TO.C,D2*%
X80730000Y-87360000D02*
X79230000Y-87360000D01*
X79230000Y-87360000D02*
X79230000Y-92760000D01*
X80480000Y-89560000D02*
X79480000Y-89560000D01*
X79980000Y-89660000D02*
X80480000Y-90560000D01*
X80480000Y-90560000D02*
X79480000Y-90560000D01*
X79480000Y-90560000D02*
X79980000Y-89660000D01*
X80730000Y-92760000D02*
X80730000Y-87360000D01*
X79230000Y-92760000D02*
X80730000Y-92760000D01*
%TO.C,SW8*%
X69344132Y-42735576D02*
X77744132Y-42735575D01*
X69344132Y-43085576D02*
X69344132Y-42735576D01*
X69344132Y-45335576D02*
X69544132Y-45335576D01*
X69344132Y-46335576D02*
X69344132Y-45335576D01*
D13*
X69544132Y-42935576D02*
X70944132Y-42935576D01*
D10*
X69544132Y-43085576D02*
X69344132Y-43085576D01*
D13*
X69544132Y-45435576D02*
X69544132Y-46135576D01*
D10*
X69564132Y-45335576D02*
X69564132Y-43085576D01*
D14*
X69644132Y-46035576D02*
X71044132Y-46035576D01*
D15*
X70044132Y-43335576D02*
X70044132Y-45835576D01*
D16*
X71344132Y-44535576D02*
X78044132Y-44535576D01*
D10*
X74344132Y-46335576D02*
X69344132Y-46335576D01*
D17*
X78114132Y-44235576D02*
X78114132Y-46475576D01*
D18*
X79244132Y-47735576D02*
X79244132Y-45935576D01*
D10*
X79614132Y-45635576D02*
X79614132Y-47875576D01*
X79644132Y-47875576D02*
X79844132Y-47875576D01*
D14*
X79644132Y-48035576D02*
X76944132Y-48035576D01*
D19*
X79744131Y-45535576D02*
X79744132Y-44635577D01*
D10*
X79844132Y-44635576D02*
X79844132Y-45635576D01*
X79844132Y-45635576D02*
X79644132Y-45635576D01*
X79844132Y-48235576D02*
X76564132Y-48235576D01*
X79844132Y-48235576D02*
X79844132Y-47875576D01*
X76560450Y-48214105D02*
G75*
G03*
X74344132Y-46335576I-2151318J-291471D01*
G01*
D15*
X76960450Y-47814105D02*
G75*
G03*
X74744132Y-45935576I-2151318J-291471D01*
G01*
D10*
X79844133Y-44635576D02*
G75*
G03*
X77744132Y-42735575I-2000001J-100000D01*
G01*
%TO.C,SW12*%
X44954945Y-69102533D02*
X53334483Y-68516578D01*
X44979359Y-69451680D02*
X44954945Y-69102533D01*
X45136311Y-71696200D02*
X45335824Y-71682248D01*
X45206068Y-72693764D02*
X45136311Y-71696200D01*
D13*
X45168409Y-69288095D02*
X46564998Y-69190435D01*
D10*
X45178872Y-69437729D02*
X44979359Y-69451680D01*
D13*
X45342800Y-71782005D02*
X45391629Y-72480300D01*
D10*
X45355776Y-71680853D02*
X45198823Y-69436334D01*
D14*
X45484410Y-72373567D02*
X46881000Y-72275908D01*
D15*
X45695093Y-69652242D02*
X45869485Y-72146152D01*
D16*
X47075634Y-70758635D02*
X53759314Y-70291267D01*
D10*
X50193888Y-72344981D02*
X45206068Y-72693764D01*
D17*
X53808216Y-69987115D02*
X53964471Y-72221658D01*
D18*
X55179611Y-73399764D02*
X55054049Y-71604149D01*
D10*
X55402221Y-71279070D02*
X55558476Y-73513613D01*
X55588403Y-73511521D02*
X55787915Y-73497569D01*
D14*
X55599564Y-73671131D02*
X52906141Y-73859473D01*
D19*
X55524928Y-71170245D02*
X55462148Y-70272438D01*
D10*
X55561904Y-70265462D02*
X55631661Y-71263026D01*
X55631661Y-71263026D02*
X55432148Y-71276977D01*
X55813028Y-73856692D02*
X52541018Y-74085494D01*
X55813028Y-73856692D02*
X55787915Y-73497569D01*
X52535846Y-74064332D02*
G75*
G03*
X50193888Y-72344981I-2125745J-440829D01*
G01*
D15*
X52906969Y-73637404D02*
G75*
G03*
X50565011Y-71918053I-2125745J-440829D01*
G01*
D10*
X55561904Y-70265462D02*
G75*
G03*
X53334483Y-68516579I-1988152J-239269D01*
G01*
%TO.C,D15*%
X88660000Y-107520000D02*
X87160000Y-107520000D01*
X87160000Y-107520000D02*
X87160000Y-112920000D01*
X88410000Y-109720000D02*
X87410000Y-109720000D01*
X87910000Y-109820000D02*
X88410000Y-110720000D01*
X88410000Y-110720000D02*
X87410000Y-110720000D01*
X87410000Y-110720000D02*
X87910000Y-109820000D01*
X88660000Y-112920000D02*
X88660000Y-107520000D01*
X87160000Y-112920000D02*
X88660000Y-112920000D01*
%TO.C,SW10*%
X115462757Y-61234172D02*
X123800145Y-62257874D01*
X115420103Y-61581564D02*
X115462757Y-61234172D01*
X115145897Y-63814792D02*
X115344406Y-63839166D01*
X115024028Y-64807339D02*
X115145897Y-63814792D01*
D13*
X115636893Y-61457056D02*
X117026457Y-61627673D01*
D10*
X115618612Y-61605937D02*
X115420103Y-61581564D01*
D13*
X115332219Y-63938421D02*
X115246911Y-64633203D01*
D10*
X115364257Y-63841604D02*
X115638463Y-61608375D01*
D14*
X115358352Y-64546136D02*
X116747917Y-64716753D01*
D15*
X116084418Y-61915009D02*
X115779745Y-64396374D01*
D16*
X117228485Y-63264494D02*
X123878544Y-64081019D01*
D10*
X119986758Y-65416685D02*
X115024028Y-64807339D01*
D17*
X123984583Y-63791786D02*
X123711596Y-66015089D01*
D18*
X124679618Y-67403410D02*
X124898982Y-65616827D01*
D10*
X125302785Y-65364154D02*
X125029798Y-67587458D01*
X125059574Y-67591114D02*
X125258084Y-67615488D01*
D14*
X125040075Y-67749921D02*
X122360201Y-67420874D01*
D19*
X125444002Y-65280743D02*
X125553685Y-64387452D01*
D10*
X125652940Y-64399638D02*
X125531071Y-65392184D01*
X125531071Y-65392184D02*
X125332562Y-65367810D01*
X125214211Y-67972804D02*
X121958659Y-67573073D01*
X125214211Y-67972804D02*
X125258084Y-67615488D01*
X121957622Y-67551313D02*
G75*
G03*
X119986758Y-65416686I-2170804J-27119D01*
G01*
D15*
X122403387Y-67203043D02*
G75*
G03*
X120432525Y-65068416I-2170803J-27118D01*
G01*
D10*
X125652941Y-64399638D02*
G75*
G03*
X123800145Y-62257874I-1997280J144484D01*
G01*
%TO.C,D14*%
X86010000Y-107520000D02*
X84510000Y-107520000D01*
X84510000Y-107520000D02*
X84510000Y-112920000D01*
X85760000Y-109720000D02*
X84760000Y-109720000D01*
X85260000Y-109820000D02*
X85760000Y-110720000D01*
X85760000Y-110720000D02*
X84760000Y-110720000D01*
X84760000Y-110720000D02*
X85260000Y-109820000D01*
X86010000Y-112920000D02*
X86010000Y-107520000D01*
X84510000Y-112920000D02*
X86010000Y-112920000D01*
%TO.C,SW7*%
X43584945Y-49192533D02*
X51964483Y-48606578D01*
X43609359Y-49541680D02*
X43584945Y-49192533D01*
X43766311Y-51786200D02*
X43965824Y-51772248D01*
X43836068Y-52783764D02*
X43766311Y-51786200D01*
D13*
X43798409Y-49378095D02*
X45194998Y-49280435D01*
D10*
X43808872Y-49527729D02*
X43609359Y-49541680D01*
D13*
X43972800Y-51872005D02*
X44021629Y-52570300D01*
D10*
X43985776Y-51770853D02*
X43828823Y-49526334D01*
D14*
X44114410Y-52463567D02*
X45511000Y-52365908D01*
D15*
X44325093Y-49742242D02*
X44499485Y-52236152D01*
D16*
X45705634Y-50848635D02*
X52389314Y-50381267D01*
D10*
X48823888Y-52434981D02*
X43836068Y-52783764D01*
D17*
X52438216Y-50077115D02*
X52594471Y-52311658D01*
D18*
X53809611Y-53489764D02*
X53684049Y-51694149D01*
D10*
X54032221Y-51369070D02*
X54188476Y-53603613D01*
X54218403Y-53601521D02*
X54417915Y-53587569D01*
D14*
X54229564Y-53761131D02*
X51536141Y-53949473D01*
D19*
X54154928Y-51260245D02*
X54092148Y-50362438D01*
D10*
X54191904Y-50355462D02*
X54261661Y-51353026D01*
X54261661Y-51353026D02*
X54062148Y-51366977D01*
X54443028Y-53946692D02*
X51171018Y-54175494D01*
X54443028Y-53946692D02*
X54417915Y-53587569D01*
X51165846Y-54154332D02*
G75*
G03*
X48823888Y-52434981I-2125745J-440829D01*
G01*
D15*
X51536969Y-53727404D02*
G75*
G03*
X49195011Y-52008053I-2125745J-440829D01*
G01*
D10*
X54191904Y-50355462D02*
G75*
G03*
X51964483Y-48606579I-1988152J-239269D01*
G01*
%TO.C,D9*%
X86040000Y-97445000D02*
X84540000Y-97445000D01*
X84540000Y-97445000D02*
X84540000Y-102845000D01*
X85790000Y-99645000D02*
X84790000Y-99645000D01*
X85290000Y-99745000D02*
X85790000Y-100645000D01*
X85790000Y-100645000D02*
X84790000Y-100645000D01*
X84790000Y-100645000D02*
X85290000Y-99745000D01*
X86040000Y-102845000D02*
X86040000Y-97445000D01*
X84540000Y-102845000D02*
X86040000Y-102845000D01*
%TO.C,D17*%
X84820000Y-117890000D02*
X83320000Y-117890000D01*
X83320000Y-117890000D02*
X83320000Y-123290000D01*
X84570000Y-120090000D02*
X83570000Y-120090000D01*
X84070000Y-120190000D02*
X84570000Y-121090000D01*
X84570000Y-121090000D02*
X83570000Y-121090000D01*
X83570000Y-121090000D02*
X84070000Y-120190000D01*
X84820000Y-123290000D02*
X84820000Y-117890000D01*
X83320000Y-123290000D02*
X84820000Y-123290000D01*
%TO.C,SW16*%
X32832668Y-122201033D02*
X40946444Y-120026952D01*
X32923254Y-122539107D02*
X32832668Y-122201033D01*
X33505597Y-124712440D02*
X33698782Y-124660676D01*
X33764416Y-125678366D02*
X33505597Y-124712440D01*
D13*
X33077616Y-122342455D02*
X34429913Y-121980108D01*
D10*
X33116439Y-122487343D02*
X32923254Y-122539107D01*
D13*
X33724664Y-124757269D02*
X33905837Y-125433417D01*
D10*
X33718101Y-124655500D02*
X33135758Y-122482167D01*
D14*
X33976548Y-125310943D02*
X35328844Y-124948596D01*
D15*
X33664107Y-122599415D02*
X34311155Y-125014230D01*
D16*
X35230393Y-123422062D02*
X41702096Y-121687974D01*
D10*
X38594045Y-124384271D02*
X33764416Y-125678366D01*
D17*
X41692066Y-121380079D02*
X42271820Y-123543753D01*
D18*
X43689428Y-124468354D02*
X43223554Y-122729687D01*
D10*
X43503301Y-122344146D02*
X44083056Y-124507820D01*
X44112033Y-124500056D02*
X44305219Y-124448292D01*
D14*
X44153444Y-124654604D02*
X41545445Y-125353415D01*
D19*
X43602988Y-122213908D02*
X43370053Y-121344575D01*
D10*
X43466645Y-121318692D02*
X43725464Y-122284618D01*
X43725464Y-122284618D02*
X43532279Y-122336382D01*
X44398393Y-124796025D02*
X41230157Y-125644952D01*
X44398393Y-124796025D02*
X44305219Y-124448292D01*
X41221043Y-125625165D02*
G75*
G03*
X38594045Y-124384272I-2002575J-838342D01*
G01*
D15*
X41503885Y-125135267D02*
G75*
G03*
X38876888Y-123894373I-2002575J-838342D01*
G01*
D10*
X43466645Y-121318692D02*
G75*
G03*
X40946444Y-120026953I-1905970J-614231D01*
G01*
%TO.C,SW17*%
X108304783Y-121839055D02*
X116337744Y-124294976D01*
X108202453Y-122173761D02*
X108304783Y-121839055D01*
X107544617Y-124325447D02*
X107735878Y-124383921D01*
X107252245Y-125281752D02*
X107544617Y-124325447D01*
D13*
X108437570Y-122088790D02*
X109776397Y-122498110D01*
D10*
X108393714Y-122232236D02*
X108202453Y-122173761D01*
D13*
X107706641Y-124479552D02*
X107501981Y-125148965D01*
D10*
X107755004Y-124389769D02*
X108412840Y-122238083D01*
D14*
X107626848Y-125082572D02*
X108965675Y-125491892D01*
D15*
X108798774Y-122617498D02*
X108067844Y-125008260D01*
D16*
X109691124Y-124145147D02*
X116098366Y-126104037D01*
D10*
X112033769Y-126743610D02*
X107252245Y-125281752D01*
D17*
X116253019Y-125837612D02*
X115598106Y-127979734D01*
D18*
X116310342Y-129515058D02*
X116836611Y-127793710D01*
D10*
X117278155Y-127614996D02*
X116623243Y-129757119D01*
X116651932Y-129765890D02*
X116843193Y-129824364D01*
D14*
X116605152Y-129918899D02*
X114023129Y-129129495D01*
D19*
X117431711Y-127557374D02*
X117694846Y-126696700D01*
D10*
X117790477Y-126725937D02*
X117498105Y-127682241D01*
X117498105Y-127682241D02*
X117306844Y-127623767D01*
X116737939Y-130168634D02*
X113601259Y-129209655D01*
X116737939Y-130168634D02*
X116843193Y-129824364D01*
X113604015Y-129188045D02*
G75*
G03*
X112033769Y-126743611I-2142533J350249D01*
G01*
D15*
X114103486Y-128922472D02*
G75*
G03*
X112533240Y-126478038I-2142533J350249D01*
G01*
D10*
X117790477Y-126725937D02*
G75*
G03*
X116337744Y-124294977I-1941847J489113D01*
G01*
%TO.C,D5*%
X88680000Y-87360000D02*
X87180000Y-87360000D01*
X87180000Y-87360000D02*
X87180000Y-92760000D01*
X88430000Y-89560000D02*
X87430000Y-89560000D01*
X87930000Y-89660000D02*
X88430000Y-90560000D01*
X88430000Y-90560000D02*
X87430000Y-90560000D01*
X87430000Y-90560000D02*
X87930000Y-89660000D01*
X88680000Y-92760000D02*
X88680000Y-87360000D01*
X87180000Y-92760000D02*
X88680000Y-92760000D01*
%TO.C,SW9*%
X94706864Y-51329775D02*
X103074900Y-52061882D01*
X94676360Y-51678443D02*
X94706864Y-51329775D01*
X94480259Y-53919881D02*
X94679498Y-53937312D01*
X94393104Y-54916075D02*
X94480259Y-53919881D01*
D13*
X94888672Y-51546445D02*
X96283345Y-51668463D01*
D10*
X94875599Y-51695874D02*
X94676360Y-51678443D01*
D13*
X94670783Y-54036931D02*
X94609774Y-54734268D01*
D10*
X94699422Y-53939055D02*
X94895523Y-51697617D01*
D14*
X94718109Y-54643364D02*
X96112781Y-54765382D01*
D15*
X95351907Y-51988500D02*
X95134018Y-54478987D01*
D16*
X96542373Y-53297237D02*
X103216878Y-53881180D01*
D10*
X99374077Y-55351854D02*
X94393104Y-54916075D01*
D17*
X103312758Y-53588422D02*
X103117529Y-55819899D01*
D18*
X104133413Y-57173590D02*
X104290293Y-55380439D01*
D10*
X104685032Y-55113829D02*
X104489803Y-57345305D01*
X104519689Y-57347919D02*
X104718928Y-57365351D01*
D14*
X104505744Y-57507311D02*
X101816019Y-57271990D01*
D19*
X104823252Y-55025539D02*
X104901693Y-54128965D01*
D10*
X105001313Y-54137680D02*
X104914157Y-55133874D01*
X104914157Y-55133874D02*
X104714918Y-55116443D01*
X104687552Y-57723981D02*
X101420033Y-57438110D01*
X104687552Y-57723981D02*
X104718928Y-57365351D01*
X101418237Y-57416400D02*
G75*
G03*
X99374077Y-55351855I-2168535J-102862D01*
G01*
D15*
X101851576Y-57052784D02*
G75*
G03*
X99807417Y-54988240I-2168534J-102862D01*
G01*
D10*
X105001314Y-54137680D02*
G75*
G03*
X103074900Y-52061882I-2001106J74692D01*
G01*
%TO.C,SW6*%
X20042013Y-68892460D02*
X28370149Y-67796039D01*
X20087697Y-69239466D02*
X20042013Y-68892460D01*
X20381381Y-71470217D02*
X20579670Y-71444112D01*
X20511907Y-72461662D02*
X20381381Y-71470217D01*
D13*
X20266407Y-69064644D02*
X21654430Y-68881907D01*
D10*
X20285986Y-69213361D02*
X20087697Y-69239466D01*
D13*
X20592722Y-71543256D02*
X20684091Y-72237268D01*
D10*
X20599499Y-71441501D02*
X20305815Y-69210750D01*
D14*
X20770183Y-72125071D02*
X22158205Y-71942334D01*
D15*
X20814340Y-69395959D02*
X21140655Y-71874571D01*
D16*
X22259850Y-70416009D02*
X28902530Y-69541483D01*
D10*
X25469131Y-71809031D02*
X20511907Y-72461662D01*
D17*
X28932773Y-69234913D02*
X29225152Y-71455749D01*
D18*
X30509948Y-72557475D02*
X30275001Y-70772875D01*
D10*
X30602677Y-70427147D02*
X30895056Y-72647983D01*
X30924799Y-72644067D02*
X31123088Y-72617962D01*
D14*
X30945684Y-72802698D02*
X28268783Y-73155119D01*
D19*
X30718512Y-70311034D02*
X30601039Y-69418734D01*
D10*
X30700184Y-69405681D02*
X30830710Y-70397125D01*
X30830710Y-70397125D02*
X30632421Y-70423231D01*
X31170078Y-72974882D02*
X27918139Y-73403008D01*
X31170078Y-72974882D02*
X31123088Y-72617962D01*
X27911685Y-73382201D02*
G75*
G03*
X25469131Y-71809031I-2094868J-569781D01*
G01*
D15*
X28256053Y-72933413D02*
G75*
G03*
X25813499Y-71360243I-2094868J-569781D01*
G01*
D10*
X30700184Y-69405680D02*
G75*
G03*
X28370149Y-67796039I-1969838J-360197D01*
G01*
%TO.C,D16*%
X82170000Y-117890000D02*
X80670000Y-117890000D01*
X80670000Y-117890000D02*
X80670000Y-123290000D01*
X81920000Y-120090000D02*
X80920000Y-120090000D01*
X81420000Y-120190000D02*
X81920000Y-121090000D01*
X81920000Y-121090000D02*
X80920000Y-121090000D01*
X80920000Y-121090000D02*
X81420000Y-120190000D01*
X82170000Y-123290000D02*
X82170000Y-117890000D01*
X80670000Y-123290000D02*
X82170000Y-123290000D01*
%TO.C,D6*%
X78090000Y-97445000D02*
X76590000Y-97445000D01*
X76590000Y-97445000D02*
X76590000Y-102845000D01*
X77840000Y-99645000D02*
X76840000Y-99645000D01*
X77340000Y-99745000D02*
X77840000Y-100645000D01*
X77840000Y-100645000D02*
X76840000Y-100645000D01*
X76840000Y-100645000D02*
X77340000Y-99745000D01*
X78090000Y-102845000D02*
X78090000Y-97445000D01*
X76590000Y-102845000D02*
X78090000Y-102845000D01*
%TO.C,SW2*%
X42144945Y-29172533D02*
X50524483Y-28586578D01*
X42169359Y-29521680D02*
X42144945Y-29172533D01*
X42326311Y-31766200D02*
X42525824Y-31752248D01*
X42396068Y-32763764D02*
X42326311Y-31766200D01*
D13*
X42358409Y-29358095D02*
X43754998Y-29260435D01*
D10*
X42368872Y-29507729D02*
X42169359Y-29521680D01*
D13*
X42532800Y-31852005D02*
X42581629Y-32550300D01*
D10*
X42545776Y-31750853D02*
X42388823Y-29506334D01*
D14*
X42674410Y-32443567D02*
X44071000Y-32345908D01*
D15*
X42885093Y-29722242D02*
X43059485Y-32216152D01*
D16*
X44265634Y-30828635D02*
X50949314Y-30361267D01*
D10*
X47383888Y-32414981D02*
X42396068Y-32763764D01*
D17*
X50998216Y-30057115D02*
X51154471Y-32291658D01*
D18*
X52369611Y-33469764D02*
X52244049Y-31674149D01*
D10*
X52592221Y-31349070D02*
X52748476Y-33583613D01*
X52778403Y-33581521D02*
X52977915Y-33567569D01*
D14*
X52789564Y-33741131D02*
X50096141Y-33929473D01*
D19*
X52714928Y-31240245D02*
X52652148Y-30342438D01*
D10*
X52751904Y-30335462D02*
X52821661Y-31333026D01*
X52821661Y-31333026D02*
X52622148Y-31346977D01*
X53003028Y-33926692D02*
X49731018Y-34155494D01*
X53003028Y-33926692D02*
X52977915Y-33567569D01*
X49725846Y-34134332D02*
G75*
G03*
X47383888Y-32414981I-2125745J-440829D01*
G01*
D15*
X50096969Y-33707404D02*
G75*
G03*
X47755011Y-31988053I-2125745J-440829D01*
G01*
D10*
X52751904Y-30335462D02*
G75*
G03*
X50524483Y-28586579I-1988152J-239269D01*
G01*
%TO.C,J1*%
X137840000Y-31290000D02*
X137840000Y-37290000D01*
X125840000Y-31290000D02*
X137840000Y-31290000D01*
X137840000Y-37290000D02*
X125840000Y-37290000D01*
X125840000Y-37290000D02*
X125840000Y-31290000D01*
%TO.C,U1*%
X16426400Y-11940000D02*
X18966400Y-11940000D01*
X16426400Y-42420000D02*
X16426400Y-11940000D01*
X18966400Y-11940000D02*
X18966400Y-42420000D01*
X18966400Y-42420000D02*
X16426400Y-42420000D01*
X31646400Y-11940000D02*
X34186400Y-11940000D01*
X31646400Y-42420000D02*
X31646400Y-11940000D01*
X34186400Y-11940000D02*
X34186400Y-42420000D01*
X34186400Y-42420000D02*
X31646400Y-42420000D01*
%TO.C,SW14*%
X97914132Y-98945576D02*
X106314132Y-98945575D01*
X97914132Y-99295576D02*
X97914132Y-98945576D01*
X97914132Y-101545576D02*
X98114132Y-101545576D01*
X97914132Y-102545576D02*
X97914132Y-101545576D01*
D13*
X98114132Y-99145576D02*
X99514132Y-99145576D01*
D10*
X98114132Y-99295576D02*
X97914132Y-99295576D01*
D13*
X98114132Y-101645576D02*
X98114132Y-102345576D01*
D10*
X98134132Y-101545576D02*
X98134132Y-99295576D01*
D14*
X98214132Y-102245576D02*
X99614132Y-102245576D01*
D15*
X98614132Y-99545576D02*
X98614132Y-102045576D01*
D16*
X99914132Y-100745576D02*
X106614132Y-100745576D01*
D10*
X102914132Y-102545576D02*
X97914132Y-102545576D01*
D17*
X106684132Y-100445576D02*
X106684132Y-102685576D01*
D18*
X107814132Y-103945576D02*
X107814132Y-102145576D01*
D10*
X108184132Y-101845576D02*
X108184132Y-104085576D01*
X108214132Y-104085576D02*
X108414132Y-104085576D01*
D14*
X108214132Y-104245576D02*
X105514132Y-104245576D01*
D19*
X108314131Y-101745576D02*
X108314132Y-100845577D01*
D10*
X108414132Y-100845576D02*
X108414132Y-101845576D01*
X108414132Y-101845576D02*
X108214132Y-101845576D01*
X108414132Y-104445576D02*
X105134132Y-104445576D01*
X108414132Y-104445576D02*
X108414132Y-104085576D01*
X105130450Y-104424105D02*
G75*
G03*
X102914132Y-102545576I-2151318J-291471D01*
G01*
D15*
X105530450Y-104024105D02*
G75*
G03*
X103314132Y-102145576I-2151318J-291471D01*
G01*
D10*
X108414133Y-100845576D02*
G75*
G03*
X106314132Y-98945575I-2000001J-100000D01*
G01*
%TO.C,SW3*%
X69324132Y-22695576D02*
X77724132Y-22695575D01*
X69324132Y-23045576D02*
X69324132Y-22695576D01*
X69324132Y-25295576D02*
X69524132Y-25295576D01*
X69324132Y-26295576D02*
X69324132Y-25295576D01*
D13*
X69524132Y-22895576D02*
X70924132Y-22895576D01*
D10*
X69524132Y-23045576D02*
X69324132Y-23045576D01*
D13*
X69524132Y-25395576D02*
X69524132Y-26095576D01*
D10*
X69544132Y-25295576D02*
X69544132Y-23045576D01*
D14*
X69624132Y-25995576D02*
X71024132Y-25995576D01*
D15*
X70024132Y-23295576D02*
X70024132Y-25795576D01*
D16*
X71324132Y-24495576D02*
X78024132Y-24495576D01*
D10*
X74324132Y-26295576D02*
X69324132Y-26295576D01*
D17*
X78094132Y-24195576D02*
X78094132Y-26435576D01*
D18*
X79224132Y-27695576D02*
X79224132Y-25895576D01*
D10*
X79594132Y-25595576D02*
X79594132Y-27835576D01*
X79624132Y-27835576D02*
X79824132Y-27835576D01*
D14*
X79624132Y-27995576D02*
X76924132Y-27995576D01*
D19*
X79724131Y-25495576D02*
X79724132Y-24595577D01*
D10*
X79824132Y-24595576D02*
X79824132Y-25595576D01*
X79824132Y-25595576D02*
X79624132Y-25595576D01*
X79824132Y-28195576D02*
X76544132Y-28195576D01*
X79824132Y-28195576D02*
X79824132Y-27835576D01*
X76540450Y-28174105D02*
G75*
G03*
X74324132Y-26295576I-2151318J-291471D01*
G01*
D15*
X76940450Y-27774105D02*
G75*
G03*
X74724132Y-25895576I-2151318J-291471D01*
G01*
D10*
X79824133Y-24595576D02*
G75*
G03*
X77724132Y-22695575I-2000001J-100000D01*
G01*
%TO.C,SW4*%
X96426864Y-31439775D02*
X104794900Y-32171882D01*
X96396360Y-31788443D02*
X96426864Y-31439775D01*
X96200259Y-34029881D02*
X96399498Y-34047312D01*
X96113104Y-35026075D02*
X96200259Y-34029881D01*
D13*
X96608672Y-31656445D02*
X98003345Y-31778463D01*
D10*
X96595599Y-31805874D02*
X96396360Y-31788443D01*
D13*
X96390783Y-34146931D02*
X96329774Y-34844268D01*
D10*
X96419422Y-34049055D02*
X96615523Y-31807617D01*
D14*
X96438109Y-34753364D02*
X97832781Y-34875382D01*
D15*
X97071907Y-32098500D02*
X96854018Y-34588987D01*
D16*
X98262373Y-33407237D02*
X104936878Y-33991180D01*
D10*
X101094077Y-35461854D02*
X96113104Y-35026075D01*
D17*
X105032758Y-33698422D02*
X104837529Y-35929899D01*
D18*
X105853413Y-37283590D02*
X106010293Y-35490439D01*
D10*
X106405032Y-35223829D02*
X106209803Y-37455305D01*
X106239689Y-37457919D02*
X106438928Y-37475351D01*
D14*
X106225744Y-37617311D02*
X103536019Y-37381990D01*
D19*
X106543252Y-35135539D02*
X106621693Y-34238965D01*
D10*
X106721313Y-34247680D02*
X106634157Y-35243874D01*
X106634157Y-35243874D02*
X106434918Y-35226443D01*
X106407552Y-37833981D02*
X103140033Y-37548110D01*
X106407552Y-37833981D02*
X106438928Y-37475351D01*
X103138237Y-37526400D02*
G75*
G03*
X101094077Y-35461855I-2168535J-102862D01*
G01*
D15*
X103571576Y-37162784D02*
G75*
G03*
X101527417Y-35098240I-2168534J-102862D01*
G01*
D10*
X106721314Y-34247680D02*
G75*
G03*
X104794900Y-32171882I-2001106J74692D01*
G01*
%TO.C,SW11*%
X22632013Y-88692460D02*
X30960149Y-87596039D01*
X22677697Y-89039466D02*
X22632013Y-88692460D01*
X22971381Y-91270217D02*
X23169670Y-91244112D01*
X23101907Y-92261662D02*
X22971381Y-91270217D01*
D13*
X22856407Y-88864644D02*
X24244430Y-88681907D01*
D10*
X22875986Y-89013361D02*
X22677697Y-89039466D01*
D13*
X23182722Y-91343256D02*
X23274091Y-92037268D01*
D10*
X23189499Y-91241501D02*
X22895815Y-89010750D01*
D14*
X23360183Y-91925071D02*
X24748205Y-91742334D01*
D15*
X23404340Y-89195959D02*
X23730655Y-91674571D01*
D16*
X24849850Y-90216009D02*
X31492530Y-89341483D01*
D10*
X28059131Y-91609031D02*
X23101907Y-92261662D01*
D17*
X31522773Y-89034913D02*
X31815152Y-91255749D01*
D18*
X33099948Y-92357475D02*
X32865001Y-90572875D01*
D10*
X33192677Y-90227147D02*
X33485056Y-92447983D01*
X33514799Y-92444067D02*
X33713088Y-92417962D01*
D14*
X33535684Y-92602698D02*
X30858783Y-92955119D01*
D19*
X33308512Y-90111034D02*
X33191039Y-89218734D01*
D10*
X33290184Y-89205681D02*
X33420710Y-90197125D01*
X33420710Y-90197125D02*
X33222421Y-90223231D01*
X33760078Y-92774882D02*
X30508139Y-93203008D01*
X33760078Y-92774882D02*
X33713088Y-92417962D01*
X30501685Y-93182201D02*
G75*
G03*
X28059131Y-91609031I-2094868J-569781D01*
G01*
D15*
X30846053Y-92733413D02*
G75*
G03*
X28403499Y-91160243I-2094868J-569781D01*
G01*
D10*
X33290184Y-89205680D02*
G75*
G03*
X30960149Y-87596039I-1969838J-360197D01*
G01*
%TO.C,D4*%
X86030000Y-87360000D02*
X84530000Y-87360000D01*
X84530000Y-87360000D02*
X84530000Y-92760000D01*
X85780000Y-89560000D02*
X84780000Y-89560000D01*
X85280000Y-89660000D02*
X85780000Y-90560000D01*
X85780000Y-90560000D02*
X84780000Y-90560000D01*
X84780000Y-90560000D02*
X85280000Y-89660000D01*
X86030000Y-92760000D02*
X86030000Y-87360000D01*
X84530000Y-92760000D02*
X86030000Y-92760000D01*
%TO.C,SW13*%
X69354132Y-62745576D02*
X77754132Y-62745575D01*
X69354132Y-63095576D02*
X69354132Y-62745576D01*
X69354132Y-65345576D02*
X69554132Y-65345576D01*
X69354132Y-66345576D02*
X69354132Y-65345576D01*
D13*
X69554132Y-62945576D02*
X70954132Y-62945576D01*
D10*
X69554132Y-63095576D02*
X69354132Y-63095576D01*
D13*
X69554132Y-65445576D02*
X69554132Y-66145576D01*
D10*
X69574132Y-65345576D02*
X69574132Y-63095576D01*
D14*
X69654132Y-66045576D02*
X71054132Y-66045576D01*
D15*
X70054132Y-63345576D02*
X70054132Y-65845576D01*
D16*
X71354132Y-64545576D02*
X78054132Y-64545576D01*
D10*
X74354132Y-66345576D02*
X69354132Y-66345576D01*
D17*
X78124132Y-64245576D02*
X78124132Y-66485576D01*
D18*
X79254132Y-67745576D02*
X79254132Y-65945576D01*
D10*
X79624132Y-65645576D02*
X79624132Y-67885576D01*
X79654132Y-67885576D02*
X79854132Y-67885576D01*
D14*
X79654132Y-68045576D02*
X76954132Y-68045576D01*
D19*
X79754131Y-65545576D02*
X79754132Y-64645577D01*
D10*
X79854132Y-64645576D02*
X79854132Y-65645576D01*
X79854132Y-65645576D02*
X79654132Y-65645576D01*
X79854132Y-68245576D02*
X76574132Y-68245576D01*
X79854132Y-68245576D02*
X79854132Y-67885576D01*
X76570450Y-68224105D02*
G75*
G03*
X74354132Y-66345576I-2151318J-291471D01*
G01*
D15*
X76970450Y-67824105D02*
G75*
G03*
X74754132Y-65945576I-2151318J-291471D01*
G01*
D10*
X79854133Y-64645576D02*
G75*
G03*
X77754132Y-62745575I-2000001J-100000D01*
G01*
%TO.C,D12*%
X80710000Y-107520000D02*
X79210000Y-107520000D01*
X79210000Y-107520000D02*
X79210000Y-112920000D01*
X80460000Y-109720000D02*
X79460000Y-109720000D01*
X79960000Y-109820000D02*
X80460000Y-110720000D01*
X80460000Y-110720000D02*
X79460000Y-110720000D01*
X79460000Y-110720000D02*
X79960000Y-109820000D01*
X80710000Y-112920000D02*
X80710000Y-107520000D01*
X79210000Y-112920000D02*
X80710000Y-112920000D01*
%TO.C,SW5*%
X117832757Y-41384172D02*
X126170145Y-42407874D01*
X117790103Y-41731564D02*
X117832757Y-41384172D01*
X117515897Y-43964792D02*
X117714406Y-43989166D01*
X117394028Y-44957339D02*
X117515897Y-43964792D01*
D13*
X118006893Y-41607056D02*
X119396457Y-41777673D01*
D10*
X117988612Y-41755937D02*
X117790103Y-41731564D01*
D13*
X117702219Y-44088421D02*
X117616911Y-44783203D01*
D10*
X117734257Y-43991604D02*
X118008463Y-41758375D01*
D14*
X117728352Y-44696136D02*
X119117917Y-44866753D01*
D15*
X118454418Y-42065009D02*
X118149745Y-44546374D01*
D16*
X119598485Y-43414494D02*
X126248544Y-44231019D01*
D10*
X122356758Y-45566685D02*
X117394028Y-44957339D01*
D17*
X126354583Y-43941786D02*
X126081596Y-46165089D01*
D18*
X127049618Y-47553410D02*
X127268982Y-45766827D01*
D10*
X127672785Y-45514154D02*
X127399798Y-47737458D01*
X127429574Y-47741114D02*
X127628084Y-47765488D01*
D14*
X127410075Y-47899921D02*
X124730201Y-47570874D01*
D19*
X127814002Y-45430743D02*
X127923685Y-44537452D01*
D10*
X128022940Y-44549638D02*
X127901071Y-45542184D01*
X127901071Y-45542184D02*
X127702562Y-45517810D01*
X127584211Y-48122804D02*
X124328659Y-47723073D01*
X127584211Y-48122804D02*
X127628084Y-47765488D01*
X124327622Y-47701313D02*
G75*
G03*
X122356758Y-45566686I-2170804J-27119D01*
G01*
D15*
X124773387Y-47353043D02*
G75*
G03*
X122802525Y-45218416I-2170803J-27118D01*
G01*
D10*
X128022941Y-44549638D02*
G75*
G03*
X126170145Y-42407874I-1997280J144484D01*
G01*
%TO.C,D7*%
X80740000Y-97445000D02*
X79240000Y-97445000D01*
X79240000Y-97445000D02*
X79240000Y-102845000D01*
X80490000Y-99645000D02*
X79490000Y-99645000D01*
X79990000Y-99745000D02*
X80490000Y-100645000D01*
X80490000Y-100645000D02*
X79490000Y-100645000D01*
X79490000Y-100645000D02*
X79990000Y-99745000D01*
X80740000Y-102845000D02*
X80740000Y-97445000D01*
X79240000Y-102845000D02*
X80740000Y-102845000D01*
%TO.C,SW1*%
X17412013Y-49082460D02*
X25740149Y-47986039D01*
X17457697Y-49429466D02*
X17412013Y-49082460D01*
X17751381Y-51660217D02*
X17949670Y-51634112D01*
X17881907Y-52651662D02*
X17751381Y-51660217D01*
D13*
X17636407Y-49254644D02*
X19024430Y-49071907D01*
D10*
X17655986Y-49403361D02*
X17457697Y-49429466D01*
D13*
X17962722Y-51733256D02*
X18054091Y-52427268D01*
D10*
X17969499Y-51631501D02*
X17675815Y-49400750D01*
D14*
X18140183Y-52315071D02*
X19528205Y-52132334D01*
D15*
X18184340Y-49585959D02*
X18510655Y-52064571D01*
D16*
X19629850Y-50606009D02*
X26272530Y-49731483D01*
D10*
X22839131Y-51999031D02*
X17881907Y-52651662D01*
D17*
X26302773Y-49424913D02*
X26595152Y-51645749D01*
D18*
X27879948Y-52747475D02*
X27645001Y-50962875D01*
D10*
X27972677Y-50617147D02*
X28265056Y-52837983D01*
X28294799Y-52834067D02*
X28493088Y-52807962D01*
D14*
X28315684Y-52992698D02*
X25638783Y-53345119D01*
D19*
X28088512Y-50501034D02*
X27971039Y-49608734D01*
D10*
X28070184Y-49595681D02*
X28200710Y-50587125D01*
X28200710Y-50587125D02*
X28002421Y-50613231D01*
X28540078Y-53164882D02*
X25288139Y-53593008D01*
X28540078Y-53164882D02*
X28493088Y-52807962D01*
X25281685Y-53572201D02*
G75*
G03*
X22839131Y-51999031I-2094868J-569781D01*
G01*
D15*
X25626053Y-53123413D02*
G75*
G03*
X23183499Y-51550243I-2094868J-569781D01*
G01*
D10*
X28070184Y-49595680D02*
G75*
G03*
X25740149Y-47986039I-1969838J-360197D01*
G01*
%TO.C,D10*%
X88690000Y-97445000D02*
X87190000Y-97445000D01*
X87190000Y-97445000D02*
X87190000Y-102845000D01*
X88440000Y-99645000D02*
X87440000Y-99645000D01*
X87940000Y-99745000D02*
X88440000Y-100645000D01*
X88440000Y-100645000D02*
X87440000Y-100645000D01*
X87440000Y-100645000D02*
X87940000Y-99745000D01*
X88690000Y-102845000D02*
X88690000Y-97445000D01*
X87190000Y-102845000D02*
X88690000Y-102845000D01*
%TO.C,D1*%
X78080000Y-87360000D02*
X76580000Y-87360000D01*
X76580000Y-87360000D02*
X76580000Y-92760000D01*
X77830000Y-89560000D02*
X76830000Y-89560000D01*
X77330000Y-89660000D02*
X77830000Y-90560000D01*
X77830000Y-90560000D02*
X76830000Y-90560000D01*
X76830000Y-90560000D02*
X77330000Y-89660000D01*
X78080000Y-92760000D02*
X78080000Y-87360000D01*
X76580000Y-92760000D02*
X78080000Y-92760000D01*
%TO.C,D13*%
X83360000Y-107520000D02*
X81860000Y-107520000D01*
X81860000Y-107520000D02*
X81860000Y-112920000D01*
X83110000Y-109720000D02*
X82110000Y-109720000D01*
X82610000Y-109820000D02*
X83110000Y-110720000D01*
X83110000Y-110720000D02*
X82110000Y-110720000D01*
X82110000Y-110720000D02*
X82610000Y-109820000D01*
X83360000Y-112920000D02*
X83360000Y-107520000D01*
X81860000Y-112920000D02*
X83360000Y-112920000D01*
%TO.C,SW15*%
X123373233Y-100617234D02*
X131669815Y-101931283D01*
X123318481Y-100962925D02*
X123373233Y-100617234D01*
X122966503Y-103185224D02*
X123164041Y-103216511D01*
X122810069Y-104172912D02*
X122966503Y-103185224D01*
D13*
X123539484Y-100846059D02*
X124922248Y-101065067D01*
D10*
X123516019Y-100994212D02*
X123318481Y-100962925D01*
D13*
X123148398Y-103315280D02*
X123038894Y-104006662D01*
D10*
X123183795Y-103219640D02*
X123535772Y-100997341D01*
D14*
X123153306Y-103923536D02*
X124536070Y-104142545D01*
D15*
X123970754Y-101319352D02*
X123579668Y-103788572D01*
D16*
X125067028Y-102707942D02*
X131684540Y-103756053D01*
D10*
X127748511Y-104955085D02*
X122810069Y-104172912D01*
D17*
X131800608Y-103470697D02*
X131450195Y-105683119D01*
D18*
X132369175Y-107104377D02*
X132650757Y-105326538D01*
D10*
X133063132Y-105088113D02*
X132712719Y-107300534D01*
X132742350Y-107305227D02*
X132939888Y-107336514D01*
D14*
X132717320Y-107463258D02*
X130050562Y-107040885D01*
D19*
X133207174Y-105009680D02*
X133347966Y-104120762D01*
D10*
X133446735Y-104136404D02*
X133290301Y-105124092D01*
X133290301Y-105124092D02*
X133092763Y-105092806D01*
X132883571Y-107692082D02*
X129643953Y-107178977D01*
X132883571Y-107692082D02*
X132939888Y-107336514D01*
X129643676Y-107157194D02*
G75*
G03*
X127748511Y-104955085I-2170428J48657D01*
G01*
D15*
X130101325Y-106824693D02*
G75*
G03*
X128206160Y-104622583I-2170428J48658D01*
G01*
D10*
X133446736Y-104136404D02*
G75*
G03*
X131669815Y-101931283I-1991021J214100D01*
G01*
%TO.C,D11*%
X78060000Y-107520000D02*
X76560000Y-107520000D01*
X76560000Y-107520000D02*
X76560000Y-112920000D01*
X77810000Y-109720000D02*
X76810000Y-109720000D01*
X77310000Y-109820000D02*
X77810000Y-110720000D01*
X77810000Y-110720000D02*
X76810000Y-110720000D01*
X76810000Y-110720000D02*
X77310000Y-109820000D01*
X78060000Y-112920000D02*
X78060000Y-107520000D01*
X76560000Y-112920000D02*
X78060000Y-112920000D01*
%TO.C,D3*%
X83380000Y-87360000D02*
X81880000Y-87360000D01*
X81880000Y-87360000D02*
X81880000Y-92760000D01*
X83130000Y-89560000D02*
X82130000Y-89560000D01*
X82630000Y-89660000D02*
X83130000Y-90560000D01*
X83130000Y-90560000D02*
X82130000Y-90560000D01*
X82130000Y-90560000D02*
X82630000Y-89660000D01*
X83380000Y-92760000D02*
X83380000Y-87360000D01*
X81880000Y-92760000D02*
X83380000Y-92760000D01*
%TO.C,D8*%
X83390000Y-97445000D02*
X81890000Y-97445000D01*
X81890000Y-97445000D02*
X81890000Y-102845000D01*
X83140000Y-99645000D02*
X82140000Y-99645000D01*
X82640000Y-99745000D02*
X83140000Y-100645000D01*
X83140000Y-100645000D02*
X82140000Y-100645000D01*
X82140000Y-100645000D02*
X82640000Y-99745000D01*
X83390000Y-102845000D02*
X83390000Y-97445000D01*
X81890000Y-102845000D02*
X83390000Y-102845000D01*
%TD*%
D20*
%TO.C,SW20*%
X119910000Y-36665000D03*
X119910000Y-30165000D03*
%TD*%
D21*
%TO.C,D2*%
X79980000Y-86250000D03*
D22*
X79980000Y-93870000D03*
%TD*%
D23*
%TO.C,SW8*%
X68864132Y-49335576D03*
D24*
X73944132Y-49335576D03*
D23*
X79024132Y-49335576D03*
%TD*%
%TO.C,SW12*%
X44936507Y-75719939D03*
D24*
X50004132Y-75365576D03*
D23*
X55071757Y-75011213D03*
%TD*%
D21*
%TO.C,D15*%
X87910000Y-106410000D03*
D22*
X87910000Y-114030000D03*
%TD*%
D23*
%TO.C,SW10*%
X114181998Y-67726480D03*
D24*
X119224132Y-68345576D03*
D23*
X124266266Y-68964672D03*
%TD*%
D21*
%TO.C,D14*%
X85260000Y-106410000D03*
D22*
X85260000Y-114030000D03*
%TD*%
D23*
%TO.C,SW7*%
X43566507Y-55809939D03*
D24*
X48634132Y-55455576D03*
D23*
X53701757Y-55101213D03*
%TD*%
D21*
%TO.C,D9*%
X85290000Y-96335000D03*
D22*
X85290000Y-103955000D03*
%TD*%
D21*
%TO.C,D17*%
X84070000Y-116780000D03*
D22*
X84070000Y-124400000D03*
%TD*%
D23*
%TO.C,SW16*%
X34077229Y-128700377D03*
D24*
X38984132Y-127385576D03*
D23*
X43891035Y-126070775D03*
%TD*%
%TO.C,SW17*%
X105916104Y-128010328D03*
D24*
X110774132Y-129495576D03*
D23*
X115632160Y-130980824D03*
%TD*%
D21*
%TO.C,D5*%
X87930000Y-86250000D03*
D22*
X87930000Y-93870000D03*
%TD*%
D23*
%TO.C,SW9*%
X93653463Y-57862825D03*
D24*
X98714132Y-58305576D03*
D23*
X103774801Y-58748327D03*
%TD*%
%TO.C,SW6*%
X20427592Y-75498649D03*
D24*
X25464132Y-74835576D03*
D23*
X30500672Y-74172503D03*
%TD*%
D21*
%TO.C,D16*%
X81420000Y-116780000D03*
D22*
X81420000Y-124400000D03*
%TD*%
D21*
%TO.C,D6*%
X77340000Y-96335000D03*
D22*
X77340000Y-103955000D03*
%TD*%
D23*
%TO.C,SW2*%
X42126507Y-35789939D03*
D24*
X47194132Y-35435576D03*
D23*
X52261757Y-35081213D03*
%TD*%
D25*
%TO.C,J1*%
X136340000Y-32540000D03*
X129340000Y-32540000D03*
X136340000Y-34290000D03*
X129340000Y-34290000D03*
D26*
X126040000Y-32190000D03*
X126040000Y-34640000D03*
X134540000Y-30440000D03*
X134540000Y-36390000D03*
X131540000Y-30440000D03*
X131540000Y-36390000D03*
X127540000Y-30440000D03*
X127540000Y-36390000D03*
%TD*%
D27*
%TO.C,U1*%
X16370000Y-14480000D03*
X32916400Y-13210000D03*
X16370000Y-17020000D03*
X32916400Y-15750000D03*
X16370000Y-19560000D03*
X32916400Y-18290000D03*
X16370000Y-22100000D03*
X32916400Y-20830000D03*
X16370000Y-24640000D03*
X32916400Y-23370000D03*
X16370000Y-27180000D03*
X32916400Y-25910000D03*
X16370000Y-29720000D03*
X32916400Y-28450000D03*
X16370000Y-32260000D03*
X32916400Y-30990000D03*
X16370000Y-34800000D03*
X32916400Y-33530000D03*
X16370000Y-37340000D03*
X32916400Y-36070000D03*
X16370000Y-39880000D03*
X32916400Y-38610000D03*
X16370000Y-42420000D03*
X32916400Y-41150000D03*
X17696400Y-41150000D03*
X31610000Y-42420000D03*
X17696400Y-38610000D03*
X31610000Y-39880000D03*
X17696400Y-36070000D03*
X31610000Y-37340000D03*
X17696400Y-33530000D03*
X31610000Y-34800000D03*
X17696400Y-30990000D03*
X31610000Y-32260000D03*
X17696400Y-28450000D03*
X31610000Y-29720000D03*
X17696400Y-25910000D03*
X31610000Y-27180000D03*
X17696400Y-23370000D03*
X31610000Y-24640000D03*
X17696400Y-20830000D03*
X31610000Y-22100000D03*
X17696400Y-18290000D03*
X31610000Y-19560000D03*
X17696400Y-15750000D03*
X31610000Y-17020000D03*
X17696400Y-13210000D03*
X31610000Y-14480000D03*
%TD*%
D23*
%TO.C,SW14*%
X97434132Y-105545576D03*
D24*
X102514132Y-105545576D03*
D23*
X107594132Y-105545576D03*
%TD*%
%TO.C,SW3*%
X68844132Y-29295576D03*
D24*
X73924132Y-29295576D03*
D23*
X79004132Y-29295576D03*
%TD*%
%TO.C,SW4*%
X95373463Y-37972825D03*
D24*
X100434132Y-38415576D03*
D23*
X105494801Y-38858327D03*
%TD*%
%TO.C,SW11*%
X23017592Y-95298649D03*
D24*
X28054132Y-94635576D03*
D23*
X33090672Y-93972503D03*
%TD*%
D21*
%TO.C,D4*%
X85280000Y-86250000D03*
D22*
X85280000Y-93870000D03*
%TD*%
D23*
%TO.C,SW13*%
X68874132Y-69345576D03*
D24*
X73954132Y-69345576D03*
D23*
X79034132Y-69345576D03*
%TD*%
D21*
%TO.C,D12*%
X79960000Y-106410000D03*
D22*
X79960000Y-114030000D03*
%TD*%
D23*
%TO.C,SW5*%
X116551998Y-47876480D03*
D24*
X121594132Y-48495576D03*
D23*
X126636266Y-49114672D03*
%TD*%
D21*
%TO.C,D7*%
X79990000Y-96335000D03*
D22*
X79990000Y-103955000D03*
%TD*%
D23*
%TO.C,SW1*%
X17797592Y-55688649D03*
D24*
X22834132Y-55025576D03*
D23*
X27870672Y-54362503D03*
%TD*%
D21*
%TO.C,D10*%
X87940000Y-96335000D03*
D22*
X87940000Y-103955000D03*
%TD*%
D21*
%TO.C,D1*%
X77330000Y-86250000D03*
D22*
X77330000Y-93870000D03*
%TD*%
D21*
%TO.C,D13*%
X82610000Y-106410000D03*
D22*
X82610000Y-114030000D03*
%TD*%
D23*
%TO.C,SW15*%
X121866675Y-107060889D03*
D24*
X126884132Y-107855576D03*
D23*
X131901589Y-108650263D03*
%TD*%
D21*
%TO.C,D11*%
X77310000Y-106410000D03*
D22*
X77310000Y-114030000D03*
%TD*%
D21*
%TO.C,D3*%
X82630000Y-86250000D03*
D22*
X82630000Y-93870000D03*
%TD*%
D21*
%TO.C,D8*%
X82640000Y-96335000D03*
D22*
X82640000Y-103955000D03*
%TD*%
M02*
