%TF.GenerationSoftware,KiCad,Pcbnew,7.0.7*%
%TF.CreationDate,2024-05-22T00:05:12+09:00*%
%TF.ProjectId,hmproto34,686d7072-6f74-46f3-9334-2e6b69636164,rev?*%
%TF.SameCoordinates,Original*%
%TF.FileFunction,Paste,Top*%
%TF.FilePolarity,Positive*%
%FSLAX46Y46*%
G04 Gerber Fmt 4.6, Leading zero omitted, Abs format (unit mm)*
G04 Created by KiCad (PCBNEW 7.0.7) date 2024-05-22 00:05:12*
%MOMM*%
%LPD*%
G01*
G04 APERTURE LIST*
G04 Aperture macros list*
%AMRotRect*
0 Rectangle, with rotation*
0 The origin of the aperture is its center*
0 $1 length*
0 $2 width*
0 $3 Rotation angle, in degrees counterclockwise*
0 Add horizontal line*
21,1,$1,$2,0,0,$3*%
G04 Aperture macros list end*
%ADD10R,0.950000X1.300000*%
%ADD11R,2.300000X2.000000*%
%ADD12RotRect,2.300000X2.000000X184.000000*%
%ADD13RotRect,2.300000X2.000000X173.000000*%
%ADD14RotRect,2.300000X2.000000X195.000000*%
%ADD15RotRect,2.300000X2.000000X163.000000*%
%ADD16RotRect,2.300000X2.000000X175.000000*%
%ADD17RotRect,2.300000X2.000000X187.500000*%
%ADD18RotRect,2.300000X2.000000X171.000000*%
G04 APERTURE END LIST*
D10*
%TO.C,D2*%
X79980000Y-88285000D03*
X79980000Y-91835000D03*
%TD*%
D11*
%TO.C,SW8*%
X80944132Y-46755576D03*
X68244132Y-44215576D03*
%TD*%
D12*
%TO.C,SW12*%
X56807109Y-72303565D03*
X43960864Y-70655660D03*
%TD*%
D10*
%TO.C,D15*%
X87910000Y-108445000D03*
X87910000Y-111995000D03*
%TD*%
D13*
%TO.C,SW10*%
X126486378Y-66637892D03*
X114190590Y-62569084D03*
%TD*%
D10*
%TO.C,D14*%
X85260000Y-108445000D03*
X85260000Y-111995000D03*
%TD*%
D12*
%TO.C,SW7*%
X55437109Y-52393565D03*
X42590864Y-50745660D03*
%TD*%
D10*
%TO.C,D9*%
X85290000Y-98370000D03*
X85290000Y-101920000D03*
%TD*%
%TO.C,D17*%
X84070000Y-118815000D03*
X84070000Y-122365000D03*
%TD*%
D14*
%TO.C,SW16*%
X45077860Y-123081754D03*
X32153201Y-123915304D03*
%TD*%
D15*
%TO.C,SW17*%
X118222584Y-129074912D03*
X106820138Y-122932777D03*
%TD*%
D10*
%TO.C,D5*%
X87930000Y-88285000D03*
X87930000Y-91835000D03*
%TD*%
D16*
%TO.C,SW9*%
X105912357Y-56345484D03*
X93482060Y-52708271D03*
%TD*%
D17*
%TO.C,SW6*%
X32067488Y-71363965D03*
X19144602Y-70503378D03*
%TD*%
D10*
%TO.C,D16*%
X81420000Y-118815000D03*
X81420000Y-122365000D03*
%TD*%
%TO.C,D6*%
X77340000Y-98370000D03*
X77340000Y-101920000D03*
%TD*%
D12*
%TO.C,SW2*%
X53997109Y-32373565D03*
X41150864Y-30725660D03*
%TD*%
D11*
%TO.C,SW14*%
X109514132Y-102965576D03*
X96814132Y-100425576D03*
%TD*%
%TO.C,SW3*%
X80924132Y-26715576D03*
X68224132Y-24175576D03*
%TD*%
D16*
%TO.C,SW4*%
X107632357Y-36455484D03*
X95202060Y-32818271D03*
%TD*%
D17*
%TO.C,SW11*%
X34657488Y-91163965D03*
X21734602Y-90303378D03*
%TD*%
D10*
%TO.C,D4*%
X85280000Y-88285000D03*
X85280000Y-91835000D03*
%TD*%
D11*
%TO.C,SW13*%
X80954132Y-66765576D03*
X68254132Y-64225576D03*
%TD*%
D10*
%TO.C,D12*%
X79960000Y-108445000D03*
X79960000Y-111995000D03*
%TD*%
D13*
%TO.C,SW5*%
X128856378Y-46787892D03*
X116560590Y-42719084D03*
%TD*%
D10*
%TO.C,D7*%
X79990000Y-98370000D03*
X79990000Y-101920000D03*
%TD*%
D17*
%TO.C,SW1*%
X29437488Y-51553965D03*
X16514602Y-50693378D03*
%TD*%
D10*
%TO.C,D10*%
X87940000Y-98370000D03*
X87940000Y-101920000D03*
%TD*%
%TO.C,D1*%
X77330000Y-88285000D03*
X77330000Y-91835000D03*
%TD*%
%TO.C,D13*%
X82610000Y-108445000D03*
X82610000Y-111995000D03*
%TD*%
D18*
%TO.C,SW15*%
X134201551Y-106402381D03*
X122055253Y-101906935D03*
%TD*%
D10*
%TO.C,D11*%
X77310000Y-108445000D03*
X77310000Y-111995000D03*
%TD*%
%TO.C,D3*%
X82630000Y-88285000D03*
X82630000Y-91835000D03*
%TD*%
%TO.C,D8*%
X82640000Y-98370000D03*
X82640000Y-101920000D03*
%TD*%
M02*
