M48
; DRILL file {KiCad 7.0.7} date Mon May 13 18:26:57 2024
; FORMAT={-:-/ absolute / metric / decimal}
; #@! TF.CreationDate,2024-05-13T18:26:57+09:00
; #@! TF.GenerationSoftware,Kicad,Pcbnew,7.0.7
; #@! TF.FileFunction,NonPlated,1,2,NPTH
FMAT,2
METRIC
; #@! TA.AperFunction,NonPlated,NPTH,ComponentDrill
T1C1.200
; #@! TA.AperFunction,NonPlated,NPTH,ComponentDrill
T2C1.900
; #@! TA.AperFunction,NonPlated,NPTH,ComponentDrill
T3C3.000
; #@! TA.AperFunction,NonPlated,NPTH,ComponentDrill
T4C4.100
%
G90
G05
T1
X129.34Y-32.54
X129.34Y-34.29
X136.34Y-32.54
X136.34Y-34.29
T2
X17.798Y-55.689
X20.428Y-75.499
X23.018Y-95.299
X27.871Y-54.363
X30.501Y-74.173
X33.091Y-93.973
X34.077Y-128.7
X42.127Y-35.79
X43.567Y-55.81
X43.891Y-126.071
X44.937Y-75.72
X52.262Y-35.081
X53.702Y-55.101
X55.072Y-75.011
X68.844Y-29.296
X68.864Y-49.336
X68.874Y-69.346
X79.004Y-29.296
X79.024Y-49.336
X79.034Y-69.346
X93.653Y-57.863
X95.373Y-37.973
X97.434Y-105.546
X103.775Y-58.748
X105.495Y-38.858
X105.916Y-128.01
X107.594Y-105.546
X114.182Y-67.726
X115.632Y-130.981
X116.552Y-47.876
X121.867Y-107.061
X124.266Y-68.965
X126.636Y-49.115
X131.902Y-108.65
T3
X18.725Y-53.005
X19.653Y-50.321
X21.355Y-72.815
X22.283Y-70.131
X23.945Y-92.615
X24.689Y-49.657
X24.873Y-89.931
X26.28Y-52.01
X27.319Y-69.468
X28.91Y-71.82
X29.909Y-89.267
X31.5Y-91.62
X34.647Y-125.918
X35.216Y-123.136
X40.123Y-121.821
X42.007Y-123.946
X43.216Y-33.168
X44.306Y-30.545
X44.656Y-53.188
X45.746Y-50.565
X46.026Y-73.098
X47.116Y-70.475
X49.374Y-30.191
X50.814Y-50.211
X50.818Y-32.636
X52.184Y-70.121
X52.258Y-52.656
X53.628Y-72.566
X70.114Y-26.756
X70.134Y-46.796
X70.144Y-66.806
X71.384Y-24.216
X71.404Y-44.256
X71.414Y-64.266
X76.464Y-24.216
X76.484Y-44.256
X76.494Y-64.266
X77.734Y-26.756
X77.754Y-46.796
X77.764Y-66.806
X95.14Y-55.443
X96.627Y-53.024
X96.86Y-35.553
X98.347Y-33.134
X98.704Y-103.006
X99.974Y-100.466
X101.687Y-53.466
X102.731Y-56.107
X103.407Y-33.576
X104.451Y-36.217
X105.054Y-100.466
X106.324Y-103.006
X107.873Y-125.953
X109.83Y-123.895
X114.688Y-125.38
X115.16Y-128.18
X115.752Y-65.36
X117.322Y-62.994
X118.122Y-45.51
X119.692Y-43.144
X122.364Y-63.613
X123.315Y-66.289
X123.518Y-104.751
X124.734Y-43.763
X125.17Y-102.441
X125.685Y-46.439
X130.188Y-103.235
X131.045Y-105.943
T4
X22.834Y-55.026
X25.464Y-74.836
X28.054Y-94.636
X38.984Y-127.386
X47.194Y-35.436
X48.634Y-55.456
X50.004Y-75.366
X73.924Y-29.296
X73.944Y-49.336
X73.954Y-69.346
X98.714Y-58.306
X100.434Y-38.416
X102.514Y-105.546
X110.774Y-129.496
X119.224Y-68.346
X121.594Y-48.496
X126.884Y-107.856
T0
M30
