%TF.GenerationSoftware,KiCad,Pcbnew,7.0.7*%
%TF.CreationDate,2024-05-22T00:09:16+09:00*%
%TF.ProjectId,hmproto34,686d7072-6f74-46f3-9334-2e6b69636164,rev?*%
%TF.SameCoordinates,Original*%
%TF.FileFunction,Legend,Top*%
%TF.FilePolarity,Positive*%
%FSLAX46Y46*%
G04 Gerber Fmt 4.6, Leading zero omitted, Abs format (unit mm)*
G04 Created by KiCad (PCBNEW 7.0.7) date 2024-05-22 00:09:16*
%MOMM*%
%LPD*%
G01*
G04 APERTURE LIST*
%ADD10C,0.150000*%
%ADD11C,0.600000*%
G04 APERTURE END LIST*
D10*
X78616779Y-129929819D02*
X78616779Y-128929819D01*
X78616779Y-128929819D02*
X78997731Y-128929819D01*
X78997731Y-128929819D02*
X79092969Y-128977438D01*
X79092969Y-128977438D02*
X79140588Y-129025057D01*
X79140588Y-129025057D02*
X79188207Y-129120295D01*
X79188207Y-129120295D02*
X79188207Y-129263152D01*
X79188207Y-129263152D02*
X79140588Y-129358390D01*
X79140588Y-129358390D02*
X79092969Y-129406009D01*
X79092969Y-129406009D02*
X78997731Y-129453628D01*
X78997731Y-129453628D02*
X78616779Y-129453628D01*
X80188207Y-129834580D02*
X80140588Y-129882200D01*
X80140588Y-129882200D02*
X79997731Y-129929819D01*
X79997731Y-129929819D02*
X79902493Y-129929819D01*
X79902493Y-129929819D02*
X79759636Y-129882200D01*
X79759636Y-129882200D02*
X79664398Y-129786961D01*
X79664398Y-129786961D02*
X79616779Y-129691723D01*
X79616779Y-129691723D02*
X79569160Y-129501247D01*
X79569160Y-129501247D02*
X79569160Y-129358390D01*
X79569160Y-129358390D02*
X79616779Y-129167914D01*
X79616779Y-129167914D02*
X79664398Y-129072676D01*
X79664398Y-129072676D02*
X79759636Y-128977438D01*
X79759636Y-128977438D02*
X79902493Y-128929819D01*
X79902493Y-128929819D02*
X79997731Y-128929819D01*
X79997731Y-128929819D02*
X80140588Y-128977438D01*
X80140588Y-128977438D02*
X80188207Y-129025057D01*
X80950112Y-129406009D02*
X81092969Y-129453628D01*
X81092969Y-129453628D02*
X81140588Y-129501247D01*
X81140588Y-129501247D02*
X81188207Y-129596485D01*
X81188207Y-129596485D02*
X81188207Y-129739342D01*
X81188207Y-129739342D02*
X81140588Y-129834580D01*
X81140588Y-129834580D02*
X81092969Y-129882200D01*
X81092969Y-129882200D02*
X80997731Y-129929819D01*
X80997731Y-129929819D02*
X80616779Y-129929819D01*
X80616779Y-129929819D02*
X80616779Y-128929819D01*
X80616779Y-128929819D02*
X80950112Y-128929819D01*
X80950112Y-128929819D02*
X81045350Y-128977438D01*
X81045350Y-128977438D02*
X81092969Y-129025057D01*
X81092969Y-129025057D02*
X81140588Y-129120295D01*
X81140588Y-129120295D02*
X81140588Y-129215533D01*
X81140588Y-129215533D02*
X81092969Y-129310771D01*
X81092969Y-129310771D02*
X81045350Y-129358390D01*
X81045350Y-129358390D02*
X80950112Y-129406009D01*
X80950112Y-129406009D02*
X80616779Y-129406009D01*
X82807255Y-129929819D02*
X82807255Y-128929819D01*
X82807255Y-129882200D02*
X82712017Y-129929819D01*
X82712017Y-129929819D02*
X82521541Y-129929819D01*
X82521541Y-129929819D02*
X82426303Y-129882200D01*
X82426303Y-129882200D02*
X82378684Y-129834580D01*
X82378684Y-129834580D02*
X82331065Y-129739342D01*
X82331065Y-129739342D02*
X82331065Y-129453628D01*
X82331065Y-129453628D02*
X82378684Y-129358390D01*
X82378684Y-129358390D02*
X82426303Y-129310771D01*
X82426303Y-129310771D02*
X82521541Y-129263152D01*
X82521541Y-129263152D02*
X82712017Y-129263152D01*
X82712017Y-129263152D02*
X82807255Y-129310771D01*
X83664398Y-129882200D02*
X83569160Y-129929819D01*
X83569160Y-129929819D02*
X83378684Y-129929819D01*
X83378684Y-129929819D02*
X83283446Y-129882200D01*
X83283446Y-129882200D02*
X83235827Y-129786961D01*
X83235827Y-129786961D02*
X83235827Y-129406009D01*
X83235827Y-129406009D02*
X83283446Y-129310771D01*
X83283446Y-129310771D02*
X83378684Y-129263152D01*
X83378684Y-129263152D02*
X83569160Y-129263152D01*
X83569160Y-129263152D02*
X83664398Y-129310771D01*
X83664398Y-129310771D02*
X83712017Y-129406009D01*
X83712017Y-129406009D02*
X83712017Y-129501247D01*
X83712017Y-129501247D02*
X83235827Y-129596485D01*
X84092970Y-129882200D02*
X84188208Y-129929819D01*
X84188208Y-129929819D02*
X84378684Y-129929819D01*
X84378684Y-129929819D02*
X84473922Y-129882200D01*
X84473922Y-129882200D02*
X84521541Y-129786961D01*
X84521541Y-129786961D02*
X84521541Y-129739342D01*
X84521541Y-129739342D02*
X84473922Y-129644104D01*
X84473922Y-129644104D02*
X84378684Y-129596485D01*
X84378684Y-129596485D02*
X84235827Y-129596485D01*
X84235827Y-129596485D02*
X84140589Y-129548866D01*
X84140589Y-129548866D02*
X84092970Y-129453628D01*
X84092970Y-129453628D02*
X84092970Y-129406009D01*
X84092970Y-129406009D02*
X84140589Y-129310771D01*
X84140589Y-129310771D02*
X84235827Y-129263152D01*
X84235827Y-129263152D02*
X84378684Y-129263152D01*
X84378684Y-129263152D02*
X84473922Y-129310771D01*
X84950113Y-129929819D02*
X84950113Y-129263152D01*
X84950113Y-128929819D02*
X84902494Y-128977438D01*
X84902494Y-128977438D02*
X84950113Y-129025057D01*
X84950113Y-129025057D02*
X84997732Y-128977438D01*
X84997732Y-128977438D02*
X84950113Y-128929819D01*
X84950113Y-128929819D02*
X84950113Y-129025057D01*
X85854874Y-129263152D02*
X85854874Y-130072676D01*
X85854874Y-130072676D02*
X85807255Y-130167914D01*
X85807255Y-130167914D02*
X85759636Y-130215533D01*
X85759636Y-130215533D02*
X85664398Y-130263152D01*
X85664398Y-130263152D02*
X85521541Y-130263152D01*
X85521541Y-130263152D02*
X85426303Y-130215533D01*
X85854874Y-129882200D02*
X85759636Y-129929819D01*
X85759636Y-129929819D02*
X85569160Y-129929819D01*
X85569160Y-129929819D02*
X85473922Y-129882200D01*
X85473922Y-129882200D02*
X85426303Y-129834580D01*
X85426303Y-129834580D02*
X85378684Y-129739342D01*
X85378684Y-129739342D02*
X85378684Y-129453628D01*
X85378684Y-129453628D02*
X85426303Y-129358390D01*
X85426303Y-129358390D02*
X85473922Y-129310771D01*
X85473922Y-129310771D02*
X85569160Y-129263152D01*
X85569160Y-129263152D02*
X85759636Y-129263152D01*
X85759636Y-129263152D02*
X85854874Y-129310771D01*
X86331065Y-129263152D02*
X86331065Y-129929819D01*
X86331065Y-129358390D02*
X86378684Y-129310771D01*
X86378684Y-129310771D02*
X86473922Y-129263152D01*
X86473922Y-129263152D02*
X86616779Y-129263152D01*
X86616779Y-129263152D02*
X86712017Y-129310771D01*
X86712017Y-129310771D02*
X86759636Y-129406009D01*
X86759636Y-129406009D02*
X86759636Y-129929819D01*
X87616779Y-129882200D02*
X87521541Y-129929819D01*
X87521541Y-129929819D02*
X87331065Y-129929819D01*
X87331065Y-129929819D02*
X87235827Y-129882200D01*
X87235827Y-129882200D02*
X87188208Y-129786961D01*
X87188208Y-129786961D02*
X87188208Y-129406009D01*
X87188208Y-129406009D02*
X87235827Y-129310771D01*
X87235827Y-129310771D02*
X87331065Y-129263152D01*
X87331065Y-129263152D02*
X87521541Y-129263152D01*
X87521541Y-129263152D02*
X87616779Y-129310771D01*
X87616779Y-129310771D02*
X87664398Y-129406009D01*
X87664398Y-129406009D02*
X87664398Y-129501247D01*
X87664398Y-129501247D02*
X87188208Y-129596485D01*
X88521541Y-129929819D02*
X88521541Y-128929819D01*
X88521541Y-129882200D02*
X88426303Y-129929819D01*
X88426303Y-129929819D02*
X88235827Y-129929819D01*
X88235827Y-129929819D02*
X88140589Y-129882200D01*
X88140589Y-129882200D02*
X88092970Y-129834580D01*
X88092970Y-129834580D02*
X88045351Y-129739342D01*
X88045351Y-129739342D02*
X88045351Y-129453628D01*
X88045351Y-129453628D02*
X88092970Y-129358390D01*
X88092970Y-129358390D02*
X88140589Y-129310771D01*
X88140589Y-129310771D02*
X88235827Y-129263152D01*
X88235827Y-129263152D02*
X88426303Y-129263152D01*
X88426303Y-129263152D02*
X88521541Y-129310771D01*
X89759637Y-129929819D02*
X89759637Y-128929819D01*
X89759637Y-129310771D02*
X89854875Y-129263152D01*
X89854875Y-129263152D02*
X90045351Y-129263152D01*
X90045351Y-129263152D02*
X90140589Y-129310771D01*
X90140589Y-129310771D02*
X90188208Y-129358390D01*
X90188208Y-129358390D02*
X90235827Y-129453628D01*
X90235827Y-129453628D02*
X90235827Y-129739342D01*
X90235827Y-129739342D02*
X90188208Y-129834580D01*
X90188208Y-129834580D02*
X90140589Y-129882200D01*
X90140589Y-129882200D02*
X90045351Y-129929819D01*
X90045351Y-129929819D02*
X89854875Y-129929819D01*
X89854875Y-129929819D02*
X89759637Y-129882200D01*
X90569161Y-129263152D02*
X90807256Y-129929819D01*
X91045351Y-129263152D02*
X90807256Y-129929819D01*
X90807256Y-129929819D02*
X90712018Y-130167914D01*
X90712018Y-130167914D02*
X90664399Y-130215533D01*
X90664399Y-130215533D02*
X90569161Y-130263152D01*
X92188209Y-129929819D02*
X92188209Y-128929819D01*
X92616780Y-129929819D02*
X92616780Y-129406009D01*
X92616780Y-129406009D02*
X92569161Y-129310771D01*
X92569161Y-129310771D02*
X92473923Y-129263152D01*
X92473923Y-129263152D02*
X92331066Y-129263152D01*
X92331066Y-129263152D02*
X92235828Y-129310771D01*
X92235828Y-129310771D02*
X92188209Y-129358390D01*
X93092971Y-129929819D02*
X93092971Y-129263152D01*
X93092971Y-129358390D02*
X93140590Y-129310771D01*
X93140590Y-129310771D02*
X93235828Y-129263152D01*
X93235828Y-129263152D02*
X93378685Y-129263152D01*
X93378685Y-129263152D02*
X93473923Y-129310771D01*
X93473923Y-129310771D02*
X93521542Y-129406009D01*
X93521542Y-129406009D02*
X93521542Y-129929819D01*
X93521542Y-129406009D02*
X93569161Y-129310771D01*
X93569161Y-129310771D02*
X93664399Y-129263152D01*
X93664399Y-129263152D02*
X93807256Y-129263152D01*
X93807256Y-129263152D02*
X93902495Y-129310771D01*
X93902495Y-129310771D02*
X93950114Y-129406009D01*
X93950114Y-129406009D02*
X93950114Y-129929819D01*
X94854875Y-129929819D02*
X94854875Y-129406009D01*
X94854875Y-129406009D02*
X94807256Y-129310771D01*
X94807256Y-129310771D02*
X94712018Y-129263152D01*
X94712018Y-129263152D02*
X94521542Y-129263152D01*
X94521542Y-129263152D02*
X94426304Y-129310771D01*
X94854875Y-129882200D02*
X94759637Y-129929819D01*
X94759637Y-129929819D02*
X94521542Y-129929819D01*
X94521542Y-129929819D02*
X94426304Y-129882200D01*
X94426304Y-129882200D02*
X94378685Y-129786961D01*
X94378685Y-129786961D02*
X94378685Y-129691723D01*
X94378685Y-129691723D02*
X94426304Y-129596485D01*
X94426304Y-129596485D02*
X94521542Y-129548866D01*
X94521542Y-129548866D02*
X94759637Y-129548866D01*
X94759637Y-129548866D02*
X94854875Y-129501247D01*
X95283447Y-129882200D02*
X95378685Y-129929819D01*
X95378685Y-129929819D02*
X95569161Y-129929819D01*
X95569161Y-129929819D02*
X95664399Y-129882200D01*
X95664399Y-129882200D02*
X95712018Y-129786961D01*
X95712018Y-129786961D02*
X95712018Y-129739342D01*
X95712018Y-129739342D02*
X95664399Y-129644104D01*
X95664399Y-129644104D02*
X95569161Y-129596485D01*
X95569161Y-129596485D02*
X95426304Y-129596485D01*
X95426304Y-129596485D02*
X95331066Y-129548866D01*
X95331066Y-129548866D02*
X95283447Y-129453628D01*
X95283447Y-129453628D02*
X95283447Y-129406009D01*
X95283447Y-129406009D02*
X95331066Y-129310771D01*
X95331066Y-129310771D02*
X95426304Y-129263152D01*
X95426304Y-129263152D02*
X95569161Y-129263152D01*
X95569161Y-129263152D02*
X95664399Y-129310771D01*
X96569161Y-129929819D02*
X96569161Y-128929819D01*
X96569161Y-129882200D02*
X96473923Y-129929819D01*
X96473923Y-129929819D02*
X96283447Y-129929819D01*
X96283447Y-129929819D02*
X96188209Y-129882200D01*
X96188209Y-129882200D02*
X96140590Y-129834580D01*
X96140590Y-129834580D02*
X96092971Y-129739342D01*
X96092971Y-129739342D02*
X96092971Y-129453628D01*
X96092971Y-129453628D02*
X96140590Y-129358390D01*
X96140590Y-129358390D02*
X96188209Y-129310771D01*
X96188209Y-129310771D02*
X96283447Y-129263152D01*
X96283447Y-129263152D02*
X96473923Y-129263152D01*
X96473923Y-129263152D02*
X96569161Y-129310771D01*
X97426304Y-129882200D02*
X97331066Y-129929819D01*
X97331066Y-129929819D02*
X97140590Y-129929819D01*
X97140590Y-129929819D02*
X97045352Y-129882200D01*
X97045352Y-129882200D02*
X96997733Y-129786961D01*
X96997733Y-129786961D02*
X96997733Y-129406009D01*
X96997733Y-129406009D02*
X97045352Y-129310771D01*
X97045352Y-129310771D02*
X97140590Y-129263152D01*
X97140590Y-129263152D02*
X97331066Y-129263152D01*
X97331066Y-129263152D02*
X97426304Y-129310771D01*
X97426304Y-129310771D02*
X97473923Y-129406009D01*
X97473923Y-129406009D02*
X97473923Y-129501247D01*
X97473923Y-129501247D02*
X96997733Y-129596485D01*
X97807257Y-129263152D02*
X98045352Y-129929819D01*
X98045352Y-129929819D02*
X98283447Y-129263152D01*
X94796779Y-131769819D02*
X94796779Y-131103152D01*
X94796779Y-131293628D02*
X94844398Y-131198390D01*
X94844398Y-131198390D02*
X94892017Y-131150771D01*
X94892017Y-131150771D02*
X94987255Y-131103152D01*
X94987255Y-131103152D02*
X95082493Y-131103152D01*
X95796779Y-131722200D02*
X95701541Y-131769819D01*
X95701541Y-131769819D02*
X95511065Y-131769819D01*
X95511065Y-131769819D02*
X95415827Y-131722200D01*
X95415827Y-131722200D02*
X95368208Y-131626961D01*
X95368208Y-131626961D02*
X95368208Y-131246009D01*
X95368208Y-131246009D02*
X95415827Y-131150771D01*
X95415827Y-131150771D02*
X95511065Y-131103152D01*
X95511065Y-131103152D02*
X95701541Y-131103152D01*
X95701541Y-131103152D02*
X95796779Y-131150771D01*
X95796779Y-131150771D02*
X95844398Y-131246009D01*
X95844398Y-131246009D02*
X95844398Y-131341247D01*
X95844398Y-131341247D02*
X95368208Y-131436485D01*
X96177732Y-131103152D02*
X96415827Y-131769819D01*
X96415827Y-131769819D02*
X96653922Y-131103152D01*
X98320589Y-131769819D02*
X97749161Y-131769819D01*
X98034875Y-131769819D02*
X98034875Y-130769819D01*
X98034875Y-130769819D02*
X97939637Y-130912676D01*
X97939637Y-130912676D02*
X97844399Y-131007914D01*
X97844399Y-131007914D02*
X97749161Y-131055533D01*
D11*
X53549021Y-131881657D02*
X53549021Y-128881657D01*
X54834736Y-131881657D02*
X54834736Y-130310228D01*
X54834736Y-130310228D02*
X54691878Y-130024514D01*
X54691878Y-130024514D02*
X54406164Y-129881657D01*
X54406164Y-129881657D02*
X53977593Y-129881657D01*
X53977593Y-129881657D02*
X53691878Y-130024514D01*
X53691878Y-130024514D02*
X53549021Y-130167371D01*
X56263307Y-131881657D02*
X56263307Y-129881657D01*
X56263307Y-130167371D02*
X56406164Y-130024514D01*
X56406164Y-130024514D02*
X56691879Y-129881657D01*
X56691879Y-129881657D02*
X57120450Y-129881657D01*
X57120450Y-129881657D02*
X57406164Y-130024514D01*
X57406164Y-130024514D02*
X57549022Y-130310228D01*
X57549022Y-130310228D02*
X57549022Y-131881657D01*
X57549022Y-130310228D02*
X57691879Y-130024514D01*
X57691879Y-130024514D02*
X57977593Y-129881657D01*
X57977593Y-129881657D02*
X58406164Y-129881657D01*
X58406164Y-129881657D02*
X58691879Y-130024514D01*
X58691879Y-130024514D02*
X58834736Y-130310228D01*
X58834736Y-130310228D02*
X58834736Y-131881657D01*
X60263307Y-129881657D02*
X60263307Y-132881657D01*
X60263307Y-130024514D02*
X60549022Y-129881657D01*
X60549022Y-129881657D02*
X61120450Y-129881657D01*
X61120450Y-129881657D02*
X61406164Y-130024514D01*
X61406164Y-130024514D02*
X61549022Y-130167371D01*
X61549022Y-130167371D02*
X61691879Y-130453085D01*
X61691879Y-130453085D02*
X61691879Y-131310228D01*
X61691879Y-131310228D02*
X61549022Y-131595942D01*
X61549022Y-131595942D02*
X61406164Y-131738800D01*
X61406164Y-131738800D02*
X61120450Y-131881657D01*
X61120450Y-131881657D02*
X60549022Y-131881657D01*
X60549022Y-131881657D02*
X60263307Y-131738800D01*
X62977593Y-131881657D02*
X62977593Y-129881657D01*
X62977593Y-130453085D02*
X63120450Y-130167371D01*
X63120450Y-130167371D02*
X63263308Y-130024514D01*
X63263308Y-130024514D02*
X63549022Y-129881657D01*
X63549022Y-129881657D02*
X63834736Y-129881657D01*
X65263308Y-131881657D02*
X64977593Y-131738800D01*
X64977593Y-131738800D02*
X64834736Y-131595942D01*
X64834736Y-131595942D02*
X64691879Y-131310228D01*
X64691879Y-131310228D02*
X64691879Y-130453085D01*
X64691879Y-130453085D02*
X64834736Y-130167371D01*
X64834736Y-130167371D02*
X64977593Y-130024514D01*
X64977593Y-130024514D02*
X65263308Y-129881657D01*
X65263308Y-129881657D02*
X65691879Y-129881657D01*
X65691879Y-129881657D02*
X65977593Y-130024514D01*
X65977593Y-130024514D02*
X66120451Y-130167371D01*
X66120451Y-130167371D02*
X66263308Y-130453085D01*
X66263308Y-130453085D02*
X66263308Y-131310228D01*
X66263308Y-131310228D02*
X66120451Y-131595942D01*
X66120451Y-131595942D02*
X65977593Y-131738800D01*
X65977593Y-131738800D02*
X65691879Y-131881657D01*
X65691879Y-131881657D02*
X65263308Y-131881657D01*
X67120451Y-129881657D02*
X68263308Y-129881657D01*
X67549022Y-128881657D02*
X67549022Y-131453085D01*
X67549022Y-131453085D02*
X67691879Y-131738800D01*
X67691879Y-131738800D02*
X67977594Y-131881657D01*
X67977594Y-131881657D02*
X68263308Y-131881657D01*
X69691880Y-131881657D02*
X69406165Y-131738800D01*
X69406165Y-131738800D02*
X69263308Y-131595942D01*
X69263308Y-131595942D02*
X69120451Y-131310228D01*
X69120451Y-131310228D02*
X69120451Y-130453085D01*
X69120451Y-130453085D02*
X69263308Y-130167371D01*
X69263308Y-130167371D02*
X69406165Y-130024514D01*
X69406165Y-130024514D02*
X69691880Y-129881657D01*
X69691880Y-129881657D02*
X70120451Y-129881657D01*
X70120451Y-129881657D02*
X70406165Y-130024514D01*
X70406165Y-130024514D02*
X70549023Y-130167371D01*
X70549023Y-130167371D02*
X70691880Y-130453085D01*
X70691880Y-130453085D02*
X70691880Y-131310228D01*
X70691880Y-131310228D02*
X70549023Y-131595942D01*
X70549023Y-131595942D02*
X70406165Y-131738800D01*
X70406165Y-131738800D02*
X70120451Y-131881657D01*
X70120451Y-131881657D02*
X69691880Y-131881657D01*
X71691880Y-128881657D02*
X73549023Y-128881657D01*
X73549023Y-128881657D02*
X72549023Y-130024514D01*
X72549023Y-130024514D02*
X72977594Y-130024514D01*
X72977594Y-130024514D02*
X73263309Y-130167371D01*
X73263309Y-130167371D02*
X73406166Y-130310228D01*
X73406166Y-130310228D02*
X73549023Y-130595942D01*
X73549023Y-130595942D02*
X73549023Y-131310228D01*
X73549023Y-131310228D02*
X73406166Y-131595942D01*
X73406166Y-131595942D02*
X73263309Y-131738800D01*
X73263309Y-131738800D02*
X72977594Y-131881657D01*
X72977594Y-131881657D02*
X72120451Y-131881657D01*
X72120451Y-131881657D02*
X71834737Y-131738800D01*
X71834737Y-131738800D02*
X71691880Y-131595942D01*
X76120452Y-129881657D02*
X76120452Y-131881657D01*
X75406166Y-128738800D02*
X74691880Y-130881657D01*
X74691880Y-130881657D02*
X76549023Y-130881657D01*
M02*
