%TF.GenerationSoftware,KiCad,Pcbnew,7.0.7*%
%TF.CreationDate,2024-05-22T00:09:16+09:00*%
%TF.ProjectId,hmproto34,686d7072-6f74-46f3-9334-2e6b69636164,rev?*%
%TF.SameCoordinates,Original*%
%TF.FileFunction,Profile,NP*%
%FSLAX46Y46*%
G04 Gerber Fmt 4.6, Leading zero omitted, Abs format (unit mm)*
G04 Created by KiCad (PCBNEW 7.0.7) date 2024-05-22 00:09:16*
%MOMM*%
%LPD*%
G01*
G04 APERTURE LIST*
%TA.AperFunction,Profile*%
%ADD10C,0.200000*%
%TD*%
%TA.AperFunction,Profile*%
%ADD11C,0.100000*%
%TD*%
G04 APERTURE END LIST*
D10*
X42135947Y-62883676D02*
X56101047Y-61906476D01*
D11*
X35278788Y-41731083D02*
X35278788Y-14980000D01*
D10*
X106813047Y-45966576D02*
X108032047Y-32019576D01*
X92341847Y-50726576D02*
X91122347Y-64673676D01*
X30689947Y-61031576D02*
X28862647Y-47151976D01*
X101954047Y-134118456D02*
X115342047Y-138212626D01*
X80933047Y-56326976D02*
X66933747Y-56326976D01*
X129432047Y-42423676D02*
X115536047Y-40717576D01*
D11*
X11990004Y-138370000D02*
G75*
G03*
X14960013Y-141377796I2988896J-18900D01*
G01*
D10*
X43931647Y-118841476D02*
X30408747Y-122464376D01*
D11*
X115379898Y-36234405D02*
G75*
G03*
X118350000Y-39242203I2988902J-18895D01*
G01*
D10*
X105068047Y-65894676D02*
X106289047Y-51947576D01*
X91122347Y-64673676D02*
X105068047Y-65894676D01*
X106289047Y-51947576D02*
X92341847Y-50726576D01*
X42554747Y-68871076D02*
X43531947Y-82837476D01*
D11*
X137802096Y-42250000D02*
G75*
G03*
X134832059Y-39242203I-2988896J18900D01*
G01*
D10*
X43531947Y-82837476D02*
X57496947Y-81860276D01*
X80933047Y-42327376D02*
X80933047Y-56326976D01*
X39764247Y-28962576D02*
X40740047Y-42929576D01*
D11*
X134800992Y-141362072D02*
X14960013Y-141377797D01*
X134800992Y-141362088D02*
G75*
G03*
X137808789Y-138392059I18908J2988888D01*
G01*
D10*
X80933047Y-76330576D02*
X66933747Y-76330576D01*
X113098047Y-60571276D02*
X111392047Y-74467176D01*
X54706547Y-41952376D02*
X53729347Y-27986576D01*
X127726047Y-56319876D02*
X129432047Y-42423676D01*
D11*
X38286585Y-12009989D02*
G75*
G03*
X35278789Y-14980000I-18885J-2988911D01*
G01*
D10*
X66933747Y-56326976D02*
X66933747Y-42327376D01*
D11*
X14991080Y-44701104D02*
G75*
G03*
X11983284Y-47671109I-18900J-2988896D01*
G01*
D10*
X94085347Y-30799576D02*
X92865747Y-44747076D01*
X35911247Y-100695476D02*
X34084147Y-86814376D01*
X47554247Y-132365616D02*
X43931647Y-118841476D01*
X30408747Y-122464376D02*
X34031647Y-135988466D01*
X95508747Y-98525176D02*
X109508047Y-98525176D01*
X22031647Y-102521476D02*
X35911247Y-100695476D01*
X41158747Y-48917176D02*
X42135947Y-62883676D01*
X56519747Y-67894176D02*
X42554747Y-68871076D01*
D11*
X38286585Y-12009987D02*
X112409974Y-11992203D01*
D10*
X33299947Y-80862676D02*
X31474047Y-66983376D01*
X66933747Y-42327376D02*
X80933047Y-42327376D01*
X92865747Y-44747076D02*
X106813047Y-45966576D01*
X55125247Y-47940076D02*
X41158747Y-48917176D01*
X31474047Y-66983376D02*
X17593047Y-68810376D01*
D11*
X14991080Y-44701096D02*
X32270991Y-44701096D01*
D10*
X134937047Y-102068176D02*
X121110047Y-99878476D01*
D11*
X115379987Y-15000000D02*
X115379987Y-36234406D01*
D10*
X56101047Y-61906476D02*
X55125247Y-47940076D01*
X125288047Y-76173176D02*
X126994047Y-62278676D01*
X109508047Y-98525176D02*
X109508047Y-112524576D01*
X40740047Y-42929576D02*
X54706547Y-41952376D01*
X14983047Y-48978976D02*
X16808947Y-62858676D01*
X66933747Y-22325576D02*
X80933047Y-22325576D01*
X115536047Y-40717576D02*
X113830047Y-54613876D01*
D11*
X118350000Y-39242203D02*
X134832059Y-39242203D01*
D10*
X66933747Y-36324576D02*
X66933747Y-22325576D01*
X20204447Y-88641776D02*
X22031647Y-102521476D01*
X16808947Y-62858676D02*
X30689947Y-61031576D01*
X111392047Y-74467176D02*
X125288047Y-76173176D01*
X53729347Y-27986576D02*
X39764247Y-28962576D01*
X66933747Y-76330576D02*
X66933747Y-62329476D01*
X119434047Y-124823576D02*
X106047047Y-120730776D01*
X19420347Y-82691476D02*
X33299947Y-80862676D01*
X95508747Y-112524576D02*
X95508747Y-98525176D01*
D11*
X32270991Y-44701087D02*
G75*
G03*
X35278787Y-41731083I18909J2988887D01*
G01*
D10*
X66933747Y-62329476D02*
X80933047Y-62329476D01*
X126994047Y-62278676D02*
X113098047Y-60571276D01*
X108032047Y-32019576D02*
X94085347Y-30799576D01*
X109508047Y-112524576D02*
X95508747Y-112524576D01*
X121110047Y-99878476D02*
X118920047Y-113705576D01*
X57496947Y-81860276D02*
X56519747Y-67894176D01*
X80933047Y-22325576D02*
X80933047Y-36324576D01*
X118920047Y-113705576D02*
X132747047Y-115895276D01*
X132747047Y-115895276D02*
X134937047Y-102068176D01*
X17593047Y-68810376D02*
X19420347Y-82691476D01*
X106047047Y-120730776D02*
X101954047Y-134118456D01*
D11*
X115379996Y-15000000D02*
G75*
G03*
X112409974Y-11992204I-2988896J18900D01*
G01*
D10*
X80933047Y-36324576D02*
X66933747Y-36324576D01*
X113830047Y-54613876D02*
X127726047Y-56319876D01*
D11*
X11990000Y-138370000D02*
X11983283Y-47671109D01*
D10*
X34084147Y-86814376D02*
X20204447Y-88641776D01*
X28862647Y-47151976D02*
X14983047Y-48978976D01*
X80933047Y-62329476D02*
X80933047Y-76330576D01*
X34031647Y-135988466D02*
X47554247Y-132365616D01*
D11*
X137802072Y-42250000D02*
X137808789Y-138392059D01*
D10*
X115342047Y-138212626D02*
X119434047Y-124823576D01*
M02*
