%TF.GenerationSoftware,KiCad,Pcbnew,7.0.7*%
%TF.CreationDate,2024-05-22T00:09:16+09:00*%
%TF.ProjectId,hmproto34,686d7072-6f74-46f3-9334-2e6b69636164,rev?*%
%TF.SameCoordinates,Original*%
%TF.FileFunction,Legend,Bot*%
%TF.FilePolarity,Positive*%
%FSLAX46Y46*%
G04 Gerber Fmt 4.6, Leading zero omitted, Abs format (unit mm)*
G04 Created by KiCad (PCBNEW 7.0.7) date 2024-05-22 00:09:16*
%MOMM*%
%LPD*%
G01*
G04 APERTURE LIST*
%ADD10C,0.150000*%
%ADD11C,0.600000*%
G04 APERTURE END LIST*
D10*
X56625602Y-132109819D02*
X56625602Y-131443152D01*
X56625602Y-131633628D02*
X56577983Y-131538390D01*
X56577983Y-131538390D02*
X56530364Y-131490771D01*
X56530364Y-131490771D02*
X56435126Y-131443152D01*
X56435126Y-131443152D02*
X56339888Y-131443152D01*
X55625602Y-132062200D02*
X55720840Y-132109819D01*
X55720840Y-132109819D02*
X55911316Y-132109819D01*
X55911316Y-132109819D02*
X56006554Y-132062200D01*
X56006554Y-132062200D02*
X56054173Y-131966961D01*
X56054173Y-131966961D02*
X56054173Y-131586009D01*
X56054173Y-131586009D02*
X56006554Y-131490771D01*
X56006554Y-131490771D02*
X55911316Y-131443152D01*
X55911316Y-131443152D02*
X55720840Y-131443152D01*
X55720840Y-131443152D02*
X55625602Y-131490771D01*
X55625602Y-131490771D02*
X55577983Y-131586009D01*
X55577983Y-131586009D02*
X55577983Y-131681247D01*
X55577983Y-131681247D02*
X56054173Y-131776485D01*
X55244649Y-131443152D02*
X55006554Y-132109819D01*
X55006554Y-132109819D02*
X54768459Y-131443152D01*
X53101792Y-132109819D02*
X53673220Y-132109819D01*
X53387506Y-132109819D02*
X53387506Y-131109819D01*
X53387506Y-131109819D02*
X53482744Y-131252676D01*
X53482744Y-131252676D02*
X53577982Y-131347914D01*
X53577982Y-131347914D02*
X53673220Y-131395533D01*
X72805602Y-130269819D02*
X72805602Y-129269819D01*
X72805602Y-129269819D02*
X72424650Y-129269819D01*
X72424650Y-129269819D02*
X72329412Y-129317438D01*
X72329412Y-129317438D02*
X72281793Y-129365057D01*
X72281793Y-129365057D02*
X72234174Y-129460295D01*
X72234174Y-129460295D02*
X72234174Y-129603152D01*
X72234174Y-129603152D02*
X72281793Y-129698390D01*
X72281793Y-129698390D02*
X72329412Y-129746009D01*
X72329412Y-129746009D02*
X72424650Y-129793628D01*
X72424650Y-129793628D02*
X72805602Y-129793628D01*
X71234174Y-130174580D02*
X71281793Y-130222200D01*
X71281793Y-130222200D02*
X71424650Y-130269819D01*
X71424650Y-130269819D02*
X71519888Y-130269819D01*
X71519888Y-130269819D02*
X71662745Y-130222200D01*
X71662745Y-130222200D02*
X71757983Y-130126961D01*
X71757983Y-130126961D02*
X71805602Y-130031723D01*
X71805602Y-130031723D02*
X71853221Y-129841247D01*
X71853221Y-129841247D02*
X71853221Y-129698390D01*
X71853221Y-129698390D02*
X71805602Y-129507914D01*
X71805602Y-129507914D02*
X71757983Y-129412676D01*
X71757983Y-129412676D02*
X71662745Y-129317438D01*
X71662745Y-129317438D02*
X71519888Y-129269819D01*
X71519888Y-129269819D02*
X71424650Y-129269819D01*
X71424650Y-129269819D02*
X71281793Y-129317438D01*
X71281793Y-129317438D02*
X71234174Y-129365057D01*
X70472269Y-129746009D02*
X70329412Y-129793628D01*
X70329412Y-129793628D02*
X70281793Y-129841247D01*
X70281793Y-129841247D02*
X70234174Y-129936485D01*
X70234174Y-129936485D02*
X70234174Y-130079342D01*
X70234174Y-130079342D02*
X70281793Y-130174580D01*
X70281793Y-130174580D02*
X70329412Y-130222200D01*
X70329412Y-130222200D02*
X70424650Y-130269819D01*
X70424650Y-130269819D02*
X70805602Y-130269819D01*
X70805602Y-130269819D02*
X70805602Y-129269819D01*
X70805602Y-129269819D02*
X70472269Y-129269819D01*
X70472269Y-129269819D02*
X70377031Y-129317438D01*
X70377031Y-129317438D02*
X70329412Y-129365057D01*
X70329412Y-129365057D02*
X70281793Y-129460295D01*
X70281793Y-129460295D02*
X70281793Y-129555533D01*
X70281793Y-129555533D02*
X70329412Y-129650771D01*
X70329412Y-129650771D02*
X70377031Y-129698390D01*
X70377031Y-129698390D02*
X70472269Y-129746009D01*
X70472269Y-129746009D02*
X70805602Y-129746009D01*
X68615126Y-130269819D02*
X68615126Y-129269819D01*
X68615126Y-130222200D02*
X68710364Y-130269819D01*
X68710364Y-130269819D02*
X68900840Y-130269819D01*
X68900840Y-130269819D02*
X68996078Y-130222200D01*
X68996078Y-130222200D02*
X69043697Y-130174580D01*
X69043697Y-130174580D02*
X69091316Y-130079342D01*
X69091316Y-130079342D02*
X69091316Y-129793628D01*
X69091316Y-129793628D02*
X69043697Y-129698390D01*
X69043697Y-129698390D02*
X68996078Y-129650771D01*
X68996078Y-129650771D02*
X68900840Y-129603152D01*
X68900840Y-129603152D02*
X68710364Y-129603152D01*
X68710364Y-129603152D02*
X68615126Y-129650771D01*
X67757983Y-130222200D02*
X67853221Y-130269819D01*
X67853221Y-130269819D02*
X68043697Y-130269819D01*
X68043697Y-130269819D02*
X68138935Y-130222200D01*
X68138935Y-130222200D02*
X68186554Y-130126961D01*
X68186554Y-130126961D02*
X68186554Y-129746009D01*
X68186554Y-129746009D02*
X68138935Y-129650771D01*
X68138935Y-129650771D02*
X68043697Y-129603152D01*
X68043697Y-129603152D02*
X67853221Y-129603152D01*
X67853221Y-129603152D02*
X67757983Y-129650771D01*
X67757983Y-129650771D02*
X67710364Y-129746009D01*
X67710364Y-129746009D02*
X67710364Y-129841247D01*
X67710364Y-129841247D02*
X68186554Y-129936485D01*
X67329411Y-130222200D02*
X67234173Y-130269819D01*
X67234173Y-130269819D02*
X67043697Y-130269819D01*
X67043697Y-130269819D02*
X66948459Y-130222200D01*
X66948459Y-130222200D02*
X66900840Y-130126961D01*
X66900840Y-130126961D02*
X66900840Y-130079342D01*
X66900840Y-130079342D02*
X66948459Y-129984104D01*
X66948459Y-129984104D02*
X67043697Y-129936485D01*
X67043697Y-129936485D02*
X67186554Y-129936485D01*
X67186554Y-129936485D02*
X67281792Y-129888866D01*
X67281792Y-129888866D02*
X67329411Y-129793628D01*
X67329411Y-129793628D02*
X67329411Y-129746009D01*
X67329411Y-129746009D02*
X67281792Y-129650771D01*
X67281792Y-129650771D02*
X67186554Y-129603152D01*
X67186554Y-129603152D02*
X67043697Y-129603152D01*
X67043697Y-129603152D02*
X66948459Y-129650771D01*
X66472268Y-130269819D02*
X66472268Y-129603152D01*
X66472268Y-129269819D02*
X66519887Y-129317438D01*
X66519887Y-129317438D02*
X66472268Y-129365057D01*
X66472268Y-129365057D02*
X66424649Y-129317438D01*
X66424649Y-129317438D02*
X66472268Y-129269819D01*
X66472268Y-129269819D02*
X66472268Y-129365057D01*
X65567507Y-129603152D02*
X65567507Y-130412676D01*
X65567507Y-130412676D02*
X65615126Y-130507914D01*
X65615126Y-130507914D02*
X65662745Y-130555533D01*
X65662745Y-130555533D02*
X65757983Y-130603152D01*
X65757983Y-130603152D02*
X65900840Y-130603152D01*
X65900840Y-130603152D02*
X65996078Y-130555533D01*
X65567507Y-130222200D02*
X65662745Y-130269819D01*
X65662745Y-130269819D02*
X65853221Y-130269819D01*
X65853221Y-130269819D02*
X65948459Y-130222200D01*
X65948459Y-130222200D02*
X65996078Y-130174580D01*
X65996078Y-130174580D02*
X66043697Y-130079342D01*
X66043697Y-130079342D02*
X66043697Y-129793628D01*
X66043697Y-129793628D02*
X65996078Y-129698390D01*
X65996078Y-129698390D02*
X65948459Y-129650771D01*
X65948459Y-129650771D02*
X65853221Y-129603152D01*
X65853221Y-129603152D02*
X65662745Y-129603152D01*
X65662745Y-129603152D02*
X65567507Y-129650771D01*
X65091316Y-129603152D02*
X65091316Y-130269819D01*
X65091316Y-129698390D02*
X65043697Y-129650771D01*
X65043697Y-129650771D02*
X64948459Y-129603152D01*
X64948459Y-129603152D02*
X64805602Y-129603152D01*
X64805602Y-129603152D02*
X64710364Y-129650771D01*
X64710364Y-129650771D02*
X64662745Y-129746009D01*
X64662745Y-129746009D02*
X64662745Y-130269819D01*
X63805602Y-130222200D02*
X63900840Y-130269819D01*
X63900840Y-130269819D02*
X64091316Y-130269819D01*
X64091316Y-130269819D02*
X64186554Y-130222200D01*
X64186554Y-130222200D02*
X64234173Y-130126961D01*
X64234173Y-130126961D02*
X64234173Y-129746009D01*
X64234173Y-129746009D02*
X64186554Y-129650771D01*
X64186554Y-129650771D02*
X64091316Y-129603152D01*
X64091316Y-129603152D02*
X63900840Y-129603152D01*
X63900840Y-129603152D02*
X63805602Y-129650771D01*
X63805602Y-129650771D02*
X63757983Y-129746009D01*
X63757983Y-129746009D02*
X63757983Y-129841247D01*
X63757983Y-129841247D02*
X64234173Y-129936485D01*
X62900840Y-130269819D02*
X62900840Y-129269819D01*
X62900840Y-130222200D02*
X62996078Y-130269819D01*
X62996078Y-130269819D02*
X63186554Y-130269819D01*
X63186554Y-130269819D02*
X63281792Y-130222200D01*
X63281792Y-130222200D02*
X63329411Y-130174580D01*
X63329411Y-130174580D02*
X63377030Y-130079342D01*
X63377030Y-130079342D02*
X63377030Y-129793628D01*
X63377030Y-129793628D02*
X63329411Y-129698390D01*
X63329411Y-129698390D02*
X63281792Y-129650771D01*
X63281792Y-129650771D02*
X63186554Y-129603152D01*
X63186554Y-129603152D02*
X62996078Y-129603152D01*
X62996078Y-129603152D02*
X62900840Y-129650771D01*
X61662744Y-130269819D02*
X61662744Y-129269819D01*
X61662744Y-129650771D02*
X61567506Y-129603152D01*
X61567506Y-129603152D02*
X61377030Y-129603152D01*
X61377030Y-129603152D02*
X61281792Y-129650771D01*
X61281792Y-129650771D02*
X61234173Y-129698390D01*
X61234173Y-129698390D02*
X61186554Y-129793628D01*
X61186554Y-129793628D02*
X61186554Y-130079342D01*
X61186554Y-130079342D02*
X61234173Y-130174580D01*
X61234173Y-130174580D02*
X61281792Y-130222200D01*
X61281792Y-130222200D02*
X61377030Y-130269819D01*
X61377030Y-130269819D02*
X61567506Y-130269819D01*
X61567506Y-130269819D02*
X61662744Y-130222200D01*
X60853220Y-129603152D02*
X60615125Y-130269819D01*
X60377030Y-129603152D02*
X60615125Y-130269819D01*
X60615125Y-130269819D02*
X60710363Y-130507914D01*
X60710363Y-130507914D02*
X60757982Y-130555533D01*
X60757982Y-130555533D02*
X60853220Y-130603152D01*
X59234172Y-130269819D02*
X59234172Y-129269819D01*
X58805601Y-130269819D02*
X58805601Y-129746009D01*
X58805601Y-129746009D02*
X58853220Y-129650771D01*
X58853220Y-129650771D02*
X58948458Y-129603152D01*
X58948458Y-129603152D02*
X59091315Y-129603152D01*
X59091315Y-129603152D02*
X59186553Y-129650771D01*
X59186553Y-129650771D02*
X59234172Y-129698390D01*
X58329410Y-130269819D02*
X58329410Y-129603152D01*
X58329410Y-129698390D02*
X58281791Y-129650771D01*
X58281791Y-129650771D02*
X58186553Y-129603152D01*
X58186553Y-129603152D02*
X58043696Y-129603152D01*
X58043696Y-129603152D02*
X57948458Y-129650771D01*
X57948458Y-129650771D02*
X57900839Y-129746009D01*
X57900839Y-129746009D02*
X57900839Y-130269819D01*
X57900839Y-129746009D02*
X57853220Y-129650771D01*
X57853220Y-129650771D02*
X57757982Y-129603152D01*
X57757982Y-129603152D02*
X57615125Y-129603152D01*
X57615125Y-129603152D02*
X57519886Y-129650771D01*
X57519886Y-129650771D02*
X57472267Y-129746009D01*
X57472267Y-129746009D02*
X57472267Y-130269819D01*
X56567506Y-130269819D02*
X56567506Y-129746009D01*
X56567506Y-129746009D02*
X56615125Y-129650771D01*
X56615125Y-129650771D02*
X56710363Y-129603152D01*
X56710363Y-129603152D02*
X56900839Y-129603152D01*
X56900839Y-129603152D02*
X56996077Y-129650771D01*
X56567506Y-130222200D02*
X56662744Y-130269819D01*
X56662744Y-130269819D02*
X56900839Y-130269819D01*
X56900839Y-130269819D02*
X56996077Y-130222200D01*
X56996077Y-130222200D02*
X57043696Y-130126961D01*
X57043696Y-130126961D02*
X57043696Y-130031723D01*
X57043696Y-130031723D02*
X56996077Y-129936485D01*
X56996077Y-129936485D02*
X56900839Y-129888866D01*
X56900839Y-129888866D02*
X56662744Y-129888866D01*
X56662744Y-129888866D02*
X56567506Y-129841247D01*
X56138934Y-130222200D02*
X56043696Y-130269819D01*
X56043696Y-130269819D02*
X55853220Y-130269819D01*
X55853220Y-130269819D02*
X55757982Y-130222200D01*
X55757982Y-130222200D02*
X55710363Y-130126961D01*
X55710363Y-130126961D02*
X55710363Y-130079342D01*
X55710363Y-130079342D02*
X55757982Y-129984104D01*
X55757982Y-129984104D02*
X55853220Y-129936485D01*
X55853220Y-129936485D02*
X55996077Y-129936485D01*
X55996077Y-129936485D02*
X56091315Y-129888866D01*
X56091315Y-129888866D02*
X56138934Y-129793628D01*
X56138934Y-129793628D02*
X56138934Y-129746009D01*
X56138934Y-129746009D02*
X56091315Y-129650771D01*
X56091315Y-129650771D02*
X55996077Y-129603152D01*
X55996077Y-129603152D02*
X55853220Y-129603152D01*
X55853220Y-129603152D02*
X55757982Y-129650771D01*
X54853220Y-130269819D02*
X54853220Y-129269819D01*
X54853220Y-130222200D02*
X54948458Y-130269819D01*
X54948458Y-130269819D02*
X55138934Y-130269819D01*
X55138934Y-130269819D02*
X55234172Y-130222200D01*
X55234172Y-130222200D02*
X55281791Y-130174580D01*
X55281791Y-130174580D02*
X55329410Y-130079342D01*
X55329410Y-130079342D02*
X55329410Y-129793628D01*
X55329410Y-129793628D02*
X55281791Y-129698390D01*
X55281791Y-129698390D02*
X55234172Y-129650771D01*
X55234172Y-129650771D02*
X55138934Y-129603152D01*
X55138934Y-129603152D02*
X54948458Y-129603152D01*
X54948458Y-129603152D02*
X54853220Y-129650771D01*
X53996077Y-130222200D02*
X54091315Y-130269819D01*
X54091315Y-130269819D02*
X54281791Y-130269819D01*
X54281791Y-130269819D02*
X54377029Y-130222200D01*
X54377029Y-130222200D02*
X54424648Y-130126961D01*
X54424648Y-130126961D02*
X54424648Y-129746009D01*
X54424648Y-129746009D02*
X54377029Y-129650771D01*
X54377029Y-129650771D02*
X54281791Y-129603152D01*
X54281791Y-129603152D02*
X54091315Y-129603152D01*
X54091315Y-129603152D02*
X53996077Y-129650771D01*
X53996077Y-129650771D02*
X53948458Y-129746009D01*
X53948458Y-129746009D02*
X53948458Y-129841247D01*
X53948458Y-129841247D02*
X54424648Y-129936485D01*
X53615124Y-129603152D02*
X53377029Y-130269819D01*
X53377029Y-130269819D02*
X53138934Y-129603152D01*
D11*
X97873360Y-132221657D02*
X97873360Y-129221657D01*
X96587646Y-132221657D02*
X96587646Y-130650228D01*
X96587646Y-130650228D02*
X96730503Y-130364514D01*
X96730503Y-130364514D02*
X97016217Y-130221657D01*
X97016217Y-130221657D02*
X97444788Y-130221657D01*
X97444788Y-130221657D02*
X97730503Y-130364514D01*
X97730503Y-130364514D02*
X97873360Y-130507371D01*
X95159074Y-132221657D02*
X95159074Y-130221657D01*
X95159074Y-130507371D02*
X95016217Y-130364514D01*
X95016217Y-130364514D02*
X94730502Y-130221657D01*
X94730502Y-130221657D02*
X94301931Y-130221657D01*
X94301931Y-130221657D02*
X94016217Y-130364514D01*
X94016217Y-130364514D02*
X93873360Y-130650228D01*
X93873360Y-130650228D02*
X93873360Y-132221657D01*
X93873360Y-130650228D02*
X93730502Y-130364514D01*
X93730502Y-130364514D02*
X93444788Y-130221657D01*
X93444788Y-130221657D02*
X93016217Y-130221657D01*
X93016217Y-130221657D02*
X92730502Y-130364514D01*
X92730502Y-130364514D02*
X92587645Y-130650228D01*
X92587645Y-130650228D02*
X92587645Y-132221657D01*
X91159074Y-130221657D02*
X91159074Y-133221657D01*
X91159074Y-130364514D02*
X90873360Y-130221657D01*
X90873360Y-130221657D02*
X90301931Y-130221657D01*
X90301931Y-130221657D02*
X90016217Y-130364514D01*
X90016217Y-130364514D02*
X89873360Y-130507371D01*
X89873360Y-130507371D02*
X89730502Y-130793085D01*
X89730502Y-130793085D02*
X89730502Y-131650228D01*
X89730502Y-131650228D02*
X89873360Y-131935942D01*
X89873360Y-131935942D02*
X90016217Y-132078800D01*
X90016217Y-132078800D02*
X90301931Y-132221657D01*
X90301931Y-132221657D02*
X90873360Y-132221657D01*
X90873360Y-132221657D02*
X91159074Y-132078800D01*
X88444788Y-132221657D02*
X88444788Y-130221657D01*
X88444788Y-130793085D02*
X88301931Y-130507371D01*
X88301931Y-130507371D02*
X88159074Y-130364514D01*
X88159074Y-130364514D02*
X87873359Y-130221657D01*
X87873359Y-130221657D02*
X87587645Y-130221657D01*
X86159073Y-132221657D02*
X86444788Y-132078800D01*
X86444788Y-132078800D02*
X86587645Y-131935942D01*
X86587645Y-131935942D02*
X86730502Y-131650228D01*
X86730502Y-131650228D02*
X86730502Y-130793085D01*
X86730502Y-130793085D02*
X86587645Y-130507371D01*
X86587645Y-130507371D02*
X86444788Y-130364514D01*
X86444788Y-130364514D02*
X86159073Y-130221657D01*
X86159073Y-130221657D02*
X85730502Y-130221657D01*
X85730502Y-130221657D02*
X85444788Y-130364514D01*
X85444788Y-130364514D02*
X85301931Y-130507371D01*
X85301931Y-130507371D02*
X85159073Y-130793085D01*
X85159073Y-130793085D02*
X85159073Y-131650228D01*
X85159073Y-131650228D02*
X85301931Y-131935942D01*
X85301931Y-131935942D02*
X85444788Y-132078800D01*
X85444788Y-132078800D02*
X85730502Y-132221657D01*
X85730502Y-132221657D02*
X86159073Y-132221657D01*
X84301930Y-130221657D02*
X83159073Y-130221657D01*
X83873359Y-129221657D02*
X83873359Y-131793085D01*
X83873359Y-131793085D02*
X83730502Y-132078800D01*
X83730502Y-132078800D02*
X83444787Y-132221657D01*
X83444787Y-132221657D02*
X83159073Y-132221657D01*
X81730501Y-132221657D02*
X82016216Y-132078800D01*
X82016216Y-132078800D02*
X82159073Y-131935942D01*
X82159073Y-131935942D02*
X82301930Y-131650228D01*
X82301930Y-131650228D02*
X82301930Y-130793085D01*
X82301930Y-130793085D02*
X82159073Y-130507371D01*
X82159073Y-130507371D02*
X82016216Y-130364514D01*
X82016216Y-130364514D02*
X81730501Y-130221657D01*
X81730501Y-130221657D02*
X81301930Y-130221657D01*
X81301930Y-130221657D02*
X81016216Y-130364514D01*
X81016216Y-130364514D02*
X80873359Y-130507371D01*
X80873359Y-130507371D02*
X80730501Y-130793085D01*
X80730501Y-130793085D02*
X80730501Y-131650228D01*
X80730501Y-131650228D02*
X80873359Y-131935942D01*
X80873359Y-131935942D02*
X81016216Y-132078800D01*
X81016216Y-132078800D02*
X81301930Y-132221657D01*
X81301930Y-132221657D02*
X81730501Y-132221657D01*
X79730501Y-129221657D02*
X77873358Y-129221657D01*
X77873358Y-129221657D02*
X78873358Y-130364514D01*
X78873358Y-130364514D02*
X78444787Y-130364514D01*
X78444787Y-130364514D02*
X78159073Y-130507371D01*
X78159073Y-130507371D02*
X78016215Y-130650228D01*
X78016215Y-130650228D02*
X77873358Y-130935942D01*
X77873358Y-130935942D02*
X77873358Y-131650228D01*
X77873358Y-131650228D02*
X78016215Y-131935942D01*
X78016215Y-131935942D02*
X78159073Y-132078800D01*
X78159073Y-132078800D02*
X78444787Y-132221657D01*
X78444787Y-132221657D02*
X79301930Y-132221657D01*
X79301930Y-132221657D02*
X79587644Y-132078800D01*
X79587644Y-132078800D02*
X79730501Y-131935942D01*
X75301930Y-130221657D02*
X75301930Y-132221657D01*
X76016215Y-129078800D02*
X76730501Y-131221657D01*
X76730501Y-131221657D02*
X74873358Y-131221657D01*
M02*
